Funever Sans Display-Black.ufo
<glyph name="exclam" format="2">
	<advance width="310"/>
	<unicode hex="0021"/>
	<outline>
		<contour>
			<point x="155" y="-10" type="curve"/>
			<point x="214" y="-10"/>
			<point x="255" y="39"/>
			<point x="255" y="101" type="curve"/>
			<point x="255" y="146"/>
			<point x="216" y="190"/>
			<point x="155" y="190" type="curve"/>
			<point x="96" y="190"/>
			<point x="55" y="141"/>
			<point x="55" y="79" type="curve"/>
			<point x="55" y="34"/>
			<point x="94" y="-10"/>
		</contour>
		<contour>
			<point x="230" y="260" type="line"/>
			<point x="240" y="700" type="line"/>
			<point x="70" y="700" type="line"/>
			<point x="80" y="260" type="line"/>
		</contour>
	</outline>
</glyph>
<glyph name="numbersign" format="2">
	<advance width="679"/>
	<unicode hex="0023"/>
	<outline>
		<contour>
			<point x="594" y="285" type="line"/>
			<point x="15" y="285" type="line"/>
			<point x="15" y="135" type="line"/>
			<point x="594" y="135" type="line"/>
		</contour>
		<contour>
			<point x="664" y="565" type="line"/>
			<point x="85" y="565" type="line"/>
			<point x="85" y="415" type="line"/>
			<point x="664" y="415" type="line"/>
		</contour>
		<contour>
			<point x="190" y="-22" type="line"/>
			<point x="380" y="689" type="line"/>
			<point x="233" y="722" type="line"/>
			<point x="44" y="12" type="line"/>
		</contour>
		<contour>
			<point x="440" y="-22" type="line"/>
			<point x="630" y="689" type="line"/>
			<point x="483" y="722" type="line"/>
			<point x="294" y="12" type="line"/>
		</contour>
	</outline>
</glyph>
<glyph name="percent" format="2">
	<advance width="1020"/>
	<unicode hex="0025"/>
	<outline>
		<contour>
			<point x="355" y="-53" type="line"/>
			<point x="780" y="685" type="line"/>
			<point x="666" y="752" type="line"/>
			<point x="240" y="12" type="line"/>
		</contour>
		<contour>
			<point x="235" y="310" type="curve"/>
			<point x="352" y="310"/>
			<point x="435" y="409"/>
			<point x="435" y="532" type="curve"/>
			<point x="435" y="622"/>
			<point x="356" y="710"/>
			<point x="235" y="710" type="curve"/>
			<point x="118" y="710"/>
			<point x="35" y="611"/>
			<point x="35" y="488" type="curve"/>
			<point x="35" y="398"/>
			<point x="114" y="310"/>
		</contour>
		<contour>
			<point x="785" y="-10" type="curve"/>
			<point x="902" y="-10"/>
			<point x="985" y="89"/>
			<point x="985" y="212" type="curve"/>
			<point x="985" y="302"/>
			<point x="906" y="390"/>
			<point x="785" y="390" type="curve"/>
			<point x="668" y="390"/>
			<point x="585" y="291"/>
			<point x="585" y="168" type="curve"/>
			<point x="585" y="78"/>
			<point x="664" y="-10"/>
		</contour>
		<contour>
			<point x="235" y="435" type="curve"/>
			<point x="205" y="435"/>
			<point x="185" y="468"/>
			<point x="185" y="502" type="curve"/>
			<point x="185" y="548"/>
			<point x="206" y="585"/>
			<point x="235" y="585" type="curve"/>
			<point x="265" y="585"/>
			<point x="285" y="552"/>
			<point x="285" y="518" type="curve"/>
			<point x="285" y="472"/>
			<point x="264" y="435"/>
		</contour>
		<contour>
			<point x="785" y="115" type="curve"/>
			<point x="755" y="115"/>
			<point x="735" y="148"/>
			<point x="735" y="182" type="curve"/>
			<point x="735" y="228"/>
			<point x="756" y="265"/>
			<point x="785" y="265" type="curve"/>
			<point x="815" y="265"/>
			<point x="835" y="232"/>
			<point x="835" y="198" type="curve"/>
			<point x="835" y="152"/>
			<point x="814" y="115"/>
		</contour>
	</outline>
</glyph>
<glyph name="ampersand" format="2">
	<advance width="772"/>
	<unicode hex="0026"/>
	<outline>
		<contour>
			<point x="527" y="710" type="line"/>
			<point x="384" y="710"/>
			<point x="151" y="658"/>
			<point x="151" y="531" type="curve"/>
			<point x="151" y="380"/>
			<point x="322" y="245"/>
			<point x="618" y="-21" type="curve"/>
			<point x="737" y="120" type="line"/>
			<point x="476" y="344"/>
			<point x="351" y="434"/>
			<point x="351" y="501" type="curve"/>
			<point x="351" y="550"/>
			<point x="427" y="560"/>
			<point x="527" y="560" type="curve"/>
		</contour>
		<contour>
			<point x="276" y="485" type="line"/>
			<point x="89" y="359"/>
			<point x="35" y="280"/>
			<point x="35" y="158" type="curve"/>
			<point x="35" y="36"/>
			<point x="189" y="-10"/>
			<point x="334" y="-10" type="curve"/>
			<point x="520" y="-10"/>
			<point x="631" y="112"/>
			<point x="722" y="281" type="curve"/>
			<point x="610" y="355" type="line"/>
			<point x="526" y="224"/>
			<point x="431" y="140"/>
			<point x="333" y="140" type="curve"/>
			<point x="260" y="140"/>
			<point x="205" y="166"/>
			<point x="205" y="228" type="curve"/>
			<point x="205" y="291"/>
			<point x="245" y="359"/>
			<point x="324" y="430" type="curve"/>
		</contour>
	</outline>
</glyph>
<glyph name="quotesingle" format="2">
	<advance width="310"/>
	<unicode hex="0027"/>
	<outline>
		<contour>
			<point x="230" y="400" type="line"/>
			<point x="240" y="700" type="line"/>
			<point x="70" y="700" type="line"/>
			<point x="80" y="400" type="line"/>
		</contour>
	</outline>
</glyph>
<glyph name="parenleft" format="2">
	<advance width="423"/>
	<unicode hex="0028"/>
	<outline>
		<contour>
			<point x="388" y="-180" type="line"/>
			<point x="294" y="-46"/>
			<point x="250" y="94"/>
			<point x="250" y="260" type="curve"/>
			<point x="250" y="426"/>
			<point x="294" y="566"/>
			<point x="388" y="700" type="curve"/>
			<point x="224" y="700" type="line"/>
			<point x="124" y="587"/>
			<point x="70" y="422"/>
			<point x="70" y="260" type="curve"/>
			<point x="70" y="98"/>
			<point x="124" y="-67"/>
			<point x="224" y="-180" type="curve"/>
		</contour>
	</outline>
</glyph>
<glyph name="asterisk" format="2">
	<advance width="442"/>
	<unicode hex="002A"/>
	<outline>
		<contour>
			<point x="281" y="340" type="line"/>
			<point x="241" y="520" type="line"/>
			<point x="281" y="700" type="line"/>
			<point x="161" y="700" type="line"/>
			<point x="201" y="520" type="line"/>
			<point x="161" y="340" type="line"/>
		</contour>
		<contour>
			<point x="347" y="662" type="line"/>
			<point x="211" y="537" type="line"/>
			<point x="35" y="482" type="line"/>
			<point x="95" y="378" type="line"/>
			<point x="231" y="503" type="line"/>
			<point x="407" y="558" type="line"/>
		</contour>
		<contour>
			<point x="35" y="558" type="line"/>
			<point x="211" y="503" type="line"/>
			<point x="347" y="378" type="line"/>
			<point x="407" y="482" type="line"/>
			<point x="231" y="537" type="line"/>
			<point x="95" y="662" type="line"/>
		</contour>
	</outline>
</glyph>
<glyph name="plus" format="2">
	<advance width="520"/>
	<unicode hex="002B"/>
	<outline>
		<contour>
			<point x="485" y="375" type="line"/>
			<point x="35" y="375" type="line"/>
			<point x="35" y="225" type="line"/>
			<point x="485" y="225" type="line"/>
		</contour>
		<contour>
			<point x="335" y="75" type="line"/>
			<point x="335" y="525" type="line"/>
			<point x="185" y="525" type="line"/>
			<point x="185" y="75" type="line"/>
		</contour>
	</outline>
</glyph>
<glyph name="comma" format="2">
	<advance width="277"/>
	<unicode hex="002C"/>
	<outline>
		<contour>
			<point x="115" y="-181" type="line"/>
			<point x="242" y="106" type="line"/>
			<point x="78" y="150" type="line"/>
			<point x="10" y="-143" type="line"/>
		</contour>
	</outline>
</glyph>
<glyph name="hyphenminus" format="2">
	<advance width="370"/>
	<unicode hex="002D"/>
	<unicode hex="00AD"/>
	<outline>
		<contour>
			<point x="335" y="325" type="line"/>
			<point x="35" y="325" type="line"/>
			<point x="35" y="175" type="line"/>
			<point x="335" y="175" type="line"/>
		</contour>
	</outline>
</glyph>
<glyph name="period" format="2">
	<advance width="270"/>
	<unicode hex="002E"/>
	<outline>
		<contour>
			<point x="135" y="-10" type="curve"/>
			<point x="194" y="-10"/>
			<point x="235" y="39"/>
			<point x="235" y="101" type="curve"/>
			<point x="235" y="146"/>
			<point x="196" y="190"/>
			<point x="135" y="190" type="curve"/>
			<point x="76" y="190"/>
			<point x="35" y="141"/>
			<point x="35" y="79" type="curve"/>
			<point x="35" y="34"/>
			<point x="74" y="-10"/>
		</contour>
	</outline>
</glyph>
<glyph name="slash" format="2">
	<advance width="497"/>
	<unicode hex="002F"/>
	<outline>
		<contour>
			<point x="200" y="-82" type="line"/>
			<point x="462" y="729" type="line"/>
			<point x="298" y="782" type="line"/>
			<point x="35" y="-31" type="line"/>
		</contour>
	</outline>
</glyph>
<glyph name="zero" format="2">
	<advance width="600"/>
	<unicode hex="0030"/>
	<outline>
		<contour>
			<point x="300" y="-10" type="curve"/>
			<point x="451" y="-10"/>
			<point x="558" y="168"/>
			<point x="558" y="390" type="curve"/>
			<point x="558" y="552"/>
			<point x="456" y="710"/>
			<point x="300" y="710" type="curve"/>
			<point x="149" y="710"/>
			<point x="43" y="532"/>
			<point x="43" y="310" type="curve"/>
			<point x="43" y="148"/>
			<point x="144" y="-10"/>
		</contour>
		<contour>
			<point x="300" y="140" type="curve"/>
			<point x="261" y="140"/>
			<point x="235" y="232"/>
			<point x="235" y="327" type="curve"/>
			<point x="235" y="456"/>
			<point x="262" y="560"/>
			<point x="300" y="560" type="curve"/>
			<point x="339" y="560"/>
			<point x="365" y="468"/>
			<point x="365" y="373" type="curve"/>
			<point x="365" y="244"/>
			<point x="338" y="140"/>
		</contour>
	</outline>
</glyph>
<glyph name="one" format="2">
	<advance width="550"/>
	<unicode hex="0031"/>
	<outline>
		<contour>
			<point x="467" y="0" type="line"/>
			<point x="467" y="720" type="line"/>
			<point x="466" y="720" type="line"/>
			<point x="38" y="466" type="line"/>
			<point x="115" y="336" type="line"/>
			<point x="440" y="547" type="line"/>
			<point x="267" y="547" type="line"/>
			<point x="267" y="0" type="line"/>
		</contour>
	</outline>
</glyph>
<glyph name="two" format="2">
	<advance width="600"/>
	<unicode hex="0032"/>
	<outline>
		<contour>
			<point x="254" y="0" type="line"/>
			<point x="407" y="168"/>
			<point x="523" y="296"/>
			<point x="523" y="468" type="curve"/>
			<point x="523" y="640"/>
			<point x="284" y="710"/>
			<point x="75" y="710" type="curve"/>
			<point x="75" y="560" type="line"/>
			<point x="265" y="560"/>
			<point x="323" y="503"/>
			<point x="323" y="438" type="curve"/>
			<point x="323" y="276"/>
			<point x="218" y="186"/>
			<point x="35" y="1" type="curve"/>
			<point x="35" y="0" type="line"/>
			<point x="553" y="0" type="line"/>
			<point x="553" y="150" type="line"/>
			<point x="285" y="150" type="line"/>
		</contour>
	</outline>
</glyph>
<glyph name="three" format="2">
	<advance width="600"/>
	<unicode hex="0033"/>
	<outline>
		<contour>
			<point x="366" y="354" type="line"/>
			<point x="447" y="380"/>
			<point x="508" y="440"/>
			<point x="508" y="547" type="curve"/>
			<point x="508" y="657"/>
			<point x="290" y="710"/>
			<point x="95" y="710" type="curve"/>
			<point x="95" y="560" type="line"/>
			<point x="247" y="560"/>
			<point x="308" y="535"/>
			<point x="308" y="487" type="curve"/>
			<point x="308" y="439"/>
			<point x="272" y="412"/>
			<point x="185" y="408" type="curve"/>
			<point x="185" y="327" type="line"/>
			<point x="284" y="320"/>
			<point x="332" y="310"/>
			<point x="332" y="243" type="curve"/>
			<point x="332" y="163"/>
			<point x="235" y="140"/>
			<point x="74" y="140" type="curve"/>
			<point x="74" y="-10" type="line"/>
			<point x="300" y="-10"/>
			<point x="531" y="41"/>
			<point x="531" y="212" type="curve"/>
			<point x="531" y="330"/>
			<point x="436" y="378"/>
			<point x="366" y="391" type="curve"/>
		</contour>
	</outline>
</glyph>
<glyph name="four" format="2">
	<advance width="600"/>
	<unicode hex="0034"/>
	<outline>
		<contour>
			<point x="327" y="391" type="line"/>
			<point x="327" y="152" type="line"/>
			<point x="307" y="152" type="line"/>
			<point x="307" y="0" type="line"/>
			<point x="507" y="0" type="line"/>
			<point x="507" y="700" type="line"/>
			<point x="406" y="700" type="line"/>
			<point x="29" y="191" type="line"/>
			<point x="29" y="100" type="line"/>
			<point x="576" y="100" type="line"/>
			<point x="576" y="250" type="line"/>
			<point x="412" y="250" type="line"/>
			<point x="412" y="230" type="line"/>
			<point x="217" y="230" type="line"/>
		</contour>
	</outline>
</glyph>
<glyph name="five" format="2">
	<advance width="600"/>
	<unicode hex="0035"/>
	<outline>
		<contour>
			<point x="546" y="550" type="line"/>
			<point x="546" y="700" type="line"/>
			<point x="115" y="700" type="line"/>
			<point x="105" y="356" type="line"/>
			<point x="283" y="356"/>
			<point x="347" y="325"/>
			<point x="347" y="289" type="curve"/>
			<point x="347" y="213"/>
			<point x="220" y="156"/>
			<point x="54" y="140" type="curve"/>
			<point x="78" y="-10" type="line"/>
			<point x="255" y="-4"/>
			<point x="547" y="68"/>
			<point x="547" y="310" type="curve"/>
			<point x="547" y="403"/>
			<point x="422" y="476"/>
			<point x="299" y="476" type="curve"/>
			<point x="304" y="461" type="line"/>
			<point x="315" y="696" type="line"/>
			<point x="119" y="550" type="line"/>
		</contour>
	</outline>
</glyph>
<glyph name="six" format="2">
	<advance width="600"/>
	<unicode hex="0036"/>
	<outline>
		<contour>
			<point x="405" y="710" type="line"/>
			<point x="233" y="637"/>
			<point x="40" y="423"/>
			<point x="40" y="229" type="curve"/>
			<point x="40" y="83"/>
			<point x="131" y="-10"/>
			<point x="282" y="-10" type="curve"/>
			<point x="433" y="-10"/>
			<point x="558" y="79"/>
			<point x="558" y="216" type="curve"/>
			<point x="558" y="359"/>
			<point x="411" y="462"/>
			<point x="147" y="462" type="curve"/>
			<point x="147" y="332" type="line"/>
			<point x="305" y="332"/>
			<point x="359" y="302"/>
			<point x="359" y="226" type="curve"/>
			<point x="359" y="170"/>
			<point x="318" y="140"/>
			<point x="292" y="140" type="curve"/>
			<point x="266" y="140"/>
			<point x="240" y="177"/>
			<point x="240" y="239" type="curve"/>
			<point x="240" y="384"/>
			<point x="327" y="496"/>
			<point x="497" y="575" type="curve"/>
		</contour>
	</outline>
</glyph>
<glyph name="seven" format="2">
	<advance width="600"/>
	<unicode hex="0037"/>
	<outline>
		<contour>
			<point x="405" y="550" type="line"/>
			<point x="405" y="672" type="line"/>
			<point x="90" y="68" type="line"/>
			<point x="261" y="-9" type="line"/>
			<point x="580" y="699" type="line"/>
			<point x="580" y="700" type="line"/>
			<point x="61" y="700" type="line"/>
			<point x="61" y="550" type="line"/>
		</contour>
	</outline>
</glyph>
<glyph name="eight" format="2">
	<advance width="600"/>
	<unicode hex="0038"/>
	<outline>
		<contour>
			<point x="308" y="-10" type="curve"/>
			<point x="458" y="-10"/>
			<point x="565" y="88"/>
			<point x="565" y="209" type="curve"/>
			<point x="565" y="298"/>
			<point x="464" y="385"/>
			<point x="308" y="385" type="curve"/>
			<point x="157" y="385"/>
			<point x="50" y="287"/>
			<point x="50" y="166" type="curve"/>
			<point x="50" y="77"/>
			<point x="152" y="-10"/>
		</contour>
		<contour>
			<point x="308" y="120" type="curve"/>
			<point x="258" y="120"/>
			<point x="225" y="159"/>
			<point x="225" y="200" type="curve"/>
			<point x="225" y="255"/>
			<point x="259" y="300"/>
			<point x="308" y="300" type="curve"/>
			<point x="357" y="300"/>
			<point x="390" y="260"/>
			<point x="390" y="220" type="curve"/>
			<point x="390" y="164"/>
			<point x="356" y="120"/>
		</contour>
		<contour>
			<point x="308" y="335" type="curve"/>
			<point x="452" y="335"/>
			<point x="555" y="428"/>
			<point x="555" y="543" type="curve"/>
			<point x="555" y="627"/>
			<point x="457" y="710"/>
			<point x="308" y="710" type="curve"/>
			<point x="163" y="710"/>
			<point x="60" y="617"/>
			<point x="60" y="502" type="curve"/>
			<point x="60" y="418"/>
			<point x="158" y="335"/>
		</contour>
		<contour>
			<point x="307" y="420" type="curve"/>
			<point x="260" y="420"/>
			<point x="230" y="455"/>
			<point x="230" y="490" type="curve"/>
			<point x="230" y="540"/>
			<point x="262" y="580"/>
			<point x="307" y="580" type="curve"/>
			<point x="354" y="580"/>
			<point x="385" y="544"/>
			<point x="385" y="509" type="curve"/>
			<point x="385" y="459"/>
			<point x="352" y="420"/>
		</contour>
	</outline>
</glyph>
<glyph name="nine" format="2">
	<advance width="600"/>
	<unicode hex="0039"/>
	<outline>
		<contour>
			<point x="193" y="-10" type="line"/>
			<point x="364" y="63"/>
			<point x="558" y="277"/>
			<point x="558" y="471" type="curve"/>
			<point x="558" y="617"/>
			<point x="457" y="710"/>
			<point x="306" y="710" type="curve"/>
			<point x="154" y="710"/>
			<point x="40" y="601"/>
			<point x="40" y="464" type="curve"/>
			<point x="40" y="321"/>
			<point x="187" y="238"/>
			<point x="451" y="238" type="curve"/>
			<point x="451" y="368" type="line"/>
			<point x="293" y="368"/>
			<point x="239" y="378"/>
			<point x="239" y="454" type="curve"/>
			<point x="239" y="510"/>
			<point x="270" y="560"/>
			<point x="296" y="560" type="curve"/>
			<point x="322" y="560"/>
			<point x="358" y="523"/>
			<point x="358" y="461" type="curve"/>
			<point x="358" y="316"/>
			<point x="271" y="204"/>
			<point x="101" y="125" type="curve"/>
		</contour>
	</outline>
</glyph>
<glyph name="less" format="2">
	<advance width="501"/>
	<unicode hex="003C"/>
	<outline>
		<contour>
			<point x="267" y="300" type="line"/>
			<point x="485" y="412" type="line"/>
			<point x="416" y="542" type="line"/>
			<point x="35" y="302" type="line"/>
			<point x="35" y="301" type="line"/>
			<point x="415" y="59" type="line"/>
			<point x="481" y="188" type="line"/>
			<point x="267" y="303" type="line"/>
		</contour>
	</outline>
</glyph>
<glyph name="question" format="2">
	<advance width="458"/>
	<unicode hex="003F"/>
	<outline>
		<contour>
			<point x="35" y="562" type="line"/>
			<point x="177" y="562"/>
			<point x="223" y="522"/>
			<point x="223" y="474" type="curve"/>
			<point x="223" y="409"/>
			<point x="180" y="379"/>
			<point x="101" y="356" type="curve"/>
			<point x="141" y="229" type="line"/>
			<point x="241" y="242"/>
			<point x="423" y="344"/>
			<point x="423" y="496" type="curve"/>
			<point x="423" y="648"/>
			<point x="188" y="710"/>
			<point x="35" y="710" type="curve"/>
		</contour>
		<contour>
			<point x="175" y="-10" type="curve"/>
			<point x="234" y="-10"/>
			<point x="275" y="39"/>
			<point x="275" y="101" type="curve"/>
			<point x="275" y="146"/>
			<point x="236" y="190"/>
			<point x="175" y="190" type="curve"/>
			<point x="116" y="190"/>
			<point x="75" y="141"/>
			<point x="75" y="79" type="curve"/>
			<point x="75" y="34"/>
			<point x="114" y="-10"/>
		</contour>
	</outline>
</glyph>
<glyph name="at" format="2">
	<advance width="890"/>
	<unicode hex="0040"/>
	<outline>
		<contour>
			<point x="445" y="-110" type="curve"/>
			<point x="554" y="-110"/>
			<point x="635" y="-93"/>
			<point x="759" y="-37" type="curve"/>
			<point x="722" y="70" type="line"/>
			<point x="605" y="22"/>
			<point x="549" y="15"/>
			<point x="445" y="15" type="curve"/>
			<point x="291" y="15"/>
			<point x="185" y="125"/>
			<point x="185" y="257" type="curve"/>
			<point x="185" y="435"/>
			<point x="303" y="585"/>
			<point x="475" y="585" type="curve"/>
			<point x="669" y="585"/>
			<point x="705" y="495"/>
			<point x="705" y="343" type="curve"/>
			<point x="705" y="241"/>
			<point x="672" y="219"/>
			<point x="647" y="219" type="curve"/>
			<point x="613" y="219"/>
			<point x="589" y="227"/>
			<point x="589" y="271" type="curve"/>
			<point x="589" y="450" type="line"/>
			<point x="474" y="450" type="line"/>
			<point x="474" y="271" type="line"/>
			<point x="474" y="103"/>
			<point x="547" y="94"/>
			<point x="649" y="94" type="curve"/>
			<point x="727" y="94"/>
			<point x="855" y="178"/>
			<point x="855" y="346" type="curve"/>
			<point x="855" y="514"/>
			<point x="748" y="710"/>
			<point x="475" y="710" type="curve"/>
			<point x="228" y="710"/>
			<point x="35" y="496"/>
			<point x="35" y="254" type="curve"/>
			<point x="35" y="81"/>
			<point x="184" y="-110"/>
		</contour>
		<contour>
			<point x="589" y="512" type="line"/>
			<point x="374" y="512"/>
			<point x="265" y="379"/>
			<point x="265" y="240" type="curve"/>
			<point x="265" y="145"/>
			<point x="363" y="94"/>
			<point x="449" y="94" type="curve"/>
			<point x="502" y="94"/>
			<point x="540" y="97"/>
			<point x="606" y="121" type="curve"/>
			<point x="580" y="245" type="line"/>
			<point x="534" y="222"/>
			<point x="487" y="219"/>
			<point x="457" y="219" type="curve"/>
			<point x="421" y="219"/>
			<point x="400" y="233"/>
			<point x="400" y="280" type="curve"/>
			<point x="400" y="333"/>
			<point x="447" y="387"/>
			<point x="589" y="387" type="curve"/>
		</contour>
	</outline>
</glyph>
<glyph name="A" format="2">
	<advance width="823"/>
	<unicode hex="0041"/>
	<outline>
		<contour>
			<point x="155" y="103" type="line"/>
			<point x="669" y="103" type="line"/>
			<point x="589" y="253" type="line"/>
			<point x="235" y="253" type="line"/>
		</contour>
		<contour>
			<point x="411" y="714" type="line"/>
			<point x="35" y="64" type="line"/>
			<point x="212" y="-7" type="line"/>
			<point x="416" y="407" type="line"/>
			<point x="408" y="407" type="line"/>
			<point x="611" y="-7" type="line"/>
			<point x="788" y="64" type="line"/>
			<point x="413" y="714" type="line"/>
		</contour>
	</outline>
</glyph>
<glyph name="B" format="2">
	<advance width="653"/>
	<unicode hex="0042"/>
	<outline>
		<contour>
			<point x="270" y="10" type="line"/>
			<point x="270" y="700" type="line"/>
			<point x="70" y="700" type="line"/>
			<point x="70" y="0" type="line"/>
		</contour>
		<contour>
			<point x="70" y="310" type="line"/>
			<point x="449" y="310"/>
			<point x="583" y="436"/>
			<point x="583" y="557" type="curve"/>
			<point x="583" y="678"/>
			<point x="445" y="710"/>
			<point x="70" y="710" type="curve"/>
			<point x="70" y="580" type="line"/>
			<point x="332" y="580"/>
			<point x="383" y="542"/>
			<point x="384" y="507" type="curve"/>
			<point x="384" y="478"/>
			<point x="352" y="407"/>
			<point x="70" y="407" type="curve"/>
		</contour>
		<contour>
			<point x="70" y="-10" type="line"/>
			<point x="484" y="-10"/>
			<point x="618" y="92"/>
			<point x="618" y="214" type="curve"/>
			<point x="618" y="336"/>
			<point x="469" y="407"/>
			<point x="70" y="407" type="curve"/>
			<point x="70" y="307" type="line"/>
			<point x="400" y="307"/>
			<point x="418" y="248"/>
			<point x="418" y="214" type="curve"/>
			<point x="418" y="180"/>
			<point x="369" y="120"/>
			<point x="70" y="120" type="curve"/>
		</contour>
	</outline>
</glyph>
<glyph name="C" format="2">
	<advance width="653"/>
	<unicode hex="0043"/>
	<outline>
		<contour>
			<point x="588" y="710" type="line"/>
			<point x="273" y="710"/>
			<point x="35" y="480"/>
			<point x="35" y="242" type="curve"/>
			<point x="35" y="77"/>
			<point x="254" y="-10"/>
			<point x="403" y="-10" type="curve"/>
			<point x="494" y="-10"/>
			<point x="559" y="-4"/>
			<point x="618" y="16" type="curve"/>
			<point x="591" y="165" type="line"/>
			<point x="553" y="147"/>
			<point x="478" y="140"/>
			<point x="416" y="140" type="curve"/>
			<point x="358" y="140"/>
			<point x="235" y="184"/>
			<point x="235" y="292" type="curve"/>
			<point x="235" y="440"/>
			<point x="446" y="560"/>
			<point x="588" y="560" type="curve"/>
		</contour>
	</outline>
</glyph>
<glyph name="D" format="2">
	<advance width="693"/>
	<unicode hex="0044"/>
	<outline>
		<contour>
			<point x="270" y="20" type="line"/>
			<point x="270" y="690" type="line"/>
			<point x="70" y="700" type="line"/>
			<point x="70" y="0" type="line"/>
		</contour>
		<contour>
			<point x="70" y="-10" type="line"/>
			<point x="450" y="-10"/>
			<point x="658" y="180"/>
			<point x="658" y="418" type="curve"/>
			<point x="658" y="653"/>
			<point x="429" y="710"/>
			<point x="70" y="710" type="curve"/>
			<point x="70" y="560" type="line"/>
			<point x="345" y="560"/>
			<point x="458" y="523"/>
			<point x="458" y="418" type="curve"/>
			<point x="458" y="223"/>
			<point x="297" y="140"/>
			<point x="70" y="140" type="curve"/>
		</contour>
	</outline>
</glyph>
<glyph name="E" format="2">
	<advance width="571"/>
	<unicode hex="0045"/>
	<outline>
		<contour>
			<point x="270" y="426" type="line"/>
			<point x="270" y="550" type="line"/>
			<point x="507" y="550" type="line"/>
			<point x="507" y="700" type="line"/>
			<point x="70" y="700" type="line"/>
			<point x="70" y="0" type="line"/>
			<point x="536" y="0" type="line"/>
			<point x="536" y="150" type="line"/>
			<point x="270" y="150" type="line"/>
			<point x="270" y="276" type="line"/>
			<point x="492" y="276" type="line"/>
			<point x="492" y="426" type="line"/>
		</contour>
	</outline>
</glyph>
<glyph name="F" format="2">
	<advance width="542"/>
	<unicode hex="0046"/>
	<outline>
		<contour>
			<point x="270" y="396" type="line"/>
			<point x="270" y="550" type="line"/>
			<point x="507" y="550" type="line"/>
			<point x="507" y="700" type="line"/>
			<point x="70" y="700" type="line"/>
			<point x="70" y="0" type="line"/>
			<point x="270" y="0" type="line"/>
			<point x="270" y="246" type="line"/>
			<point x="492" y="246" type="line"/>
			<point x="492" y="396" type="line"/>
		</contour>
	</outline>
</glyph>
<glyph name="G" format="2">
	<advance width="738"/>
	<unicode hex="0047"/>
	<outline>
		<contour>
			<point x="588" y="710" type="line"/>
			<point x="273" y="710"/>
			<point x="35" y="480"/>
			<point x="35" y="242" type="curve"/>
			<point x="35" y="77"/>
			<point x="254" y="-10"/>
			<point x="403" y="-10" type="curve"/>
			<point x="494" y="-10"/>
			<point x="559" y="-4"/>
			<point x="668" y="16" type="curve"/>
			<point x="668" y="350" type="line"/>
			<point x="468" y="350" type="line"/>
			<point x="468" y="39" type="line"/>
			<point x="591" y="165" type="line"/>
			<point x="553" y="147"/>
			<point x="478" y="140"/>
			<point x="416" y="140" type="curve"/>
			<point x="358" y="140"/>
			<point x="235" y="184"/>
			<point x="235" y="292" type="curve"/>
			<point x="235" y="440"/>
			<point x="446" y="560"/>
			<point x="588" y="560" type="curve"/>
		</contour>
	</outline>
</glyph>
<glyph name="H" format="2">
	<advance width="827"/>
	<unicode hex="0048"/>
	<outline>
		<contour>
			<point x="270" y="296" type="line"/>
			<point x="557" y="296" type="line"/>
			<point x="557" y="0" type="line"/>
			<point x="757" y="0" type="line"/>
			<point x="757" y="700" type="line"/>
			<point x="557" y="700" type="line"/>
			<point x="557" y="446" type="line"/>
			<point x="270" y="446" type="line"/>
			<point x="270" y="700" type="line"/>
			<point x="70" y="700" type="line"/>
			<point x="70" y="0" type="line"/>
			<point x="270" y="0" type="line"/>
		</contour>
	</outline>
</glyph>
<glyph name="J" format="2">
	<advance width="420"/>
	<unicode hex="004A"/>
	<outline>
		<contour>
			<point x="79" y="-10" type="line"/>
			<point x="218" y="18"/>
			<point x="350" y="91"/>
			<point x="350" y="263" type="curve"/>
			<point x="350" y="700" type="line"/>
			<point x="150" y="700" type="line"/>
			<point x="150" y="263" type="line"/>
			<point x="150" y="219"/>
			<point x="130" y="166"/>
			<point x="35" y="140" type="curve"/>
		</contour>
	</outline>
</glyph>
<glyph name="K" format="2">
	<advance width="774"/>
	<unicode hex="004B"/>
	<outline>
		<contour>
			<point x="270" y="0" type="line"/>
			<point x="270" y="700" type="line"/>
			<point x="70" y="700" type="line"/>
			<point x="70" y="0" type="line"/>
		</contour>
		<contour>
			<point x="240" y="344" type="line"/>
			<point x="576" y="0" type="line"/>
			<point x="739" y="126" type="line"/>
			<point x="461" y="346" type="line"/>
			<point x="716" y="570" type="line"/>
			<point x="540" y="700" type="line"/>
		</contour>
	</outline>
</glyph>
<glyph name="L" format="2">
	<advance width="521"/>
	<unicode hex="004C"/>
	<outline>
		<contour>
			<point x="70" y="0" type="line"/>
			<point x="486" y="0" type="line"/>
			<point x="486" y="150" type="line"/>
			<point x="270" y="150" type="line"/>
			<point x="270" y="700" type="line"/>
			<point x="70" y="700" type="line"/>
		</contour>
	</outline>
</glyph>
<glyph name="M" format="2">
	<advance width="958"/>
	<unicode hex="004D"/>
	<outline>
		<contour>
			<point x="478" y="134" type="line"/>
			<point x="480" y="134" type="line"/>
			<point x="663" y="366" type="line"/>
			<point x="657" y="366" type="line"/>
			<point x="723" y="-4" type="line"/>
			<point x="923" y="44" type="line"/>
			<point x="768" y="722" type="line"/>
			<point x="767" y="722" type="line"/>
			<point x="473" y="361" type="line"/>
			<point x="485" y="361" type="line"/>
			<point x="191" y="722" type="line"/>
			<point x="190" y="722" type="line"/>
			<point x="35" y="44" type="line"/>
			<point x="235" y="-4" type="line"/>
			<point x="301" y="366" type="line"/>
			<point x="296" y="366" type="line"/>
		</contour>
	</outline>
</glyph>
<glyph name="N" format="2">
	<advance width="836"/>
	<unicode hex="004E"/>
	<outline>
		<contour>
			<point x="270" y="359" type="line"/>
			<point x="765" y="-14" type="line"/>
			<point x="766" y="-14" type="line"/>
			<point x="766" y="700" type="line"/>
			<point x="566" y="700" type="line"/>
			<point x="566" y="350" type="line"/>
			<point x="71" y="714" type="line"/>
			<point x="70" y="714" type="line"/>
			<point x="70" y="0" type="line"/>
			<point x="270" y="0" type="line"/>
		</contour>
	</outline>
</glyph>
<glyph name="O" format="2">
	<advance width="770"/>
	<unicode hex="004F"/>
	<outline>
		<contour>
			<point x="385" y="-10" type="curve"/>
			<point x="590" y="-10"/>
			<point x="735" y="168"/>
			<point x="735" y="390" type="curve"/>
			<point x="735" y="552"/>
			<point x="597" y="710"/>
			<point x="385" y="710" type="curve"/>
			<point x="180" y="710"/>
			<point x="35" y="532"/>
			<point x="35" y="310" type="curve"/>
			<point x="35" y="148"/>
			<point x="173" y="-10"/>
		</contour>
		<contour>
			<point x="385" y="140" type="curve"/>
			<point x="294" y="140"/>
			<point x="235" y="232"/>
			<point x="235" y="327" type="curve"/>
			<point x="235" y="456"/>
			<point x="297" y="560"/>
			<point x="385" y="560" type="curve"/>
			<point x="476" y="560"/>
			<point x="535" y="468"/>
			<point x="535" y="373" type="curve"/>
			<point x="535" y="244"/>
			<point x="473" y="140"/>
		</contour>
	</outline>
</glyph>
<glyph name="P" format="2">
	<advance width="618"/>
	<unicode hex="0050"/>
	<outline>
		<contour>
			<point x="70" y="167" type="line"/>
			<point x="389" y="167"/>
			<point x="583" y="338"/>
			<point x="583" y="496" type="curve"/>
			<point x="583" y="652"/>
			<point x="375" y="710"/>
			<point x="70" y="710" type="curve"/>
			<point x="70" y="560" type="line"/>
			<point x="326" y="560"/>
			<point x="383" y="536"/>
			<point x="384" y="466" type="curve"/>
			<point x="384" y="365"/>
			<point x="250" y="317"/>
			<point x="70" y="317" type="curve"/>
		</contour>
		<contour>
			<point x="270" y="0" type="line"/>
			<point x="270" y="690" type="line"/>
			<point x="70" y="700" type="line"/>
			<point x="70" y="0" type="line"/>
		</contour>
	</outline>
</glyph>
<glyph name="Q" format="2">
	<advance width="770"/>
	<unicode hex="0051"/>
	<outline>
		<contour>
			<point x="385" y="-10" type="curve"/>
			<point x="590" y="-10"/>
			<point x="735" y="168"/>
			<point x="735" y="390" type="curve"/>
			<point x="735" y="552"/>
			<point x="597" y="710"/>
			<point x="385" y="710" type="curve"/>
			<point x="180" y="710"/>
			<point x="35" y="532"/>
			<point x="35" y="310" type="curve"/>
			<point x="35" y="148"/>
			<point x="173" y="-10"/>
		</contour>
		<contour>
			<point x="385" y="140" type="curve"/>
			<point x="294" y="140"/>
			<point x="235" y="232"/>
			<point x="235" y="327" type="curve"/>
			<point x="235" y="456"/>
			<point x="297" y="560"/>
			<point x="385" y="560" type="curve"/>
			<point x="476" y="560"/>
			<point x="535" y="468"/>
			<point x="535" y="373" type="curve"/>
			<point x="535" y="244"/>
			<point x="473" y="140"/>
		</contour>
		<contour>
			<point x="429" y="71" type="line"/>
			<point x="363" y="-8" type="line"/>
			<point x="689" y="-115" type="line"/>
			<point x="735" y="27" type="line"/>
		</contour>
	</outline>
</glyph>
<glyph name="R" format="2">
	<advance width="711"/>
	<unicode hex="0052"/>
	<outline>
		<contour>
			<point x="270" y="0" type="line"/>
			<point x="270" y="700" type="line"/>
			<point x="70" y="700" type="line"/>
			<point x="70" y="0" type="line"/>
		</contour>
		<contour>
			<point x="334" y="230" type="line"/>
			<point x="490" y="313"/>
			<point x="594" y="414"/>
			<point x="594" y="516" type="curve"/>
			<point x="594" y="652"/>
			<point x="426" y="710"/>
			<point x="70" y="710" type="curve"/>
			<point x="70" y="560" type="line"/>
			<point x="337" y="560"/>
			<point x="394" y="536"/>
			<point x="394" y="486" type="curve"/>
			<point x="395" y="441"/>
			<point x="374" y="370"/>
			<point x="248" y="324" type="curve"/>
			<point x="491" y="-6" type="line"/>
			<point x="676" y="86" type="line"/>
			<point x="428" y="358" type="line"/>
		</contour>
	</outline>
</glyph>
<glyph name="S" format="2">
	<advance width="467"/>
	<unicode hex="0053"/>
	<outline>
		<contour>
			<point x="361" y="710" type="line"/>
			<point x="258" y="710"/>
			<point x="35" y="638"/>
			<point x="35" y="511" type="curve"/>
			<point x="35" y="430"/>
			<point x="67" y="396"/>
			<point x="128" y="346" type="curve"/>
			<point x="157" y="322"/>
			<point x="232" y="259"/>
			<point x="232" y="219" type="curve"/>
			<point x="232" y="180"/>
			<point x="166" y="140"/>
			<point x="63" y="140" type="curve"/>
			<point x="63" y="-10" type="line"/>
			<point x="182" y="-10"/>
			<point x="432" y="49"/>
			<point x="432" y="199" type="curve"/>
			<point x="432" y="276"/>
			<point x="397" y="334"/>
			<point x="332" y="381" type="curve"/>
			<point x="295" y="407"/>
			<point x="235" y="456"/>
			<point x="235" y="481" type="curve"/>
			<point x="235" y="520"/>
			<point x="261" y="560"/>
			<point x="361" y="560" type="curve"/>
		</contour>
	</outline>
</glyph>
<glyph name="T" format="2">
	<advance width="761"/>
	<unicode hex="0054"/>
	<outline>
		<contour>
			<point x="281" y="550" type="line"/>
			<point x="281" y="0" type="line"/>
			<point x="481" y="0" type="line"/>
			<point x="481" y="550" type="line"/>
			<point x="726" y="550" type="line"/>
			<point x="726" y="700" type="line"/>
			<point x="35" y="700" type="line"/>
			<point x="35" y="550" type="line"/>
		</contour>
	</outline>
</glyph>
<glyph name="U" format="2">
	<advance width="820"/>
	<unicode hex="0055"/>
	<outline>
		<contour>
			<point x="70" y="313" type="line"/>
			<point x="70" y="122"/>
			<point x="202" y="-10"/>
			<point x="398" y="-10" type="curve"/>
			<point x="616" y="-10"/>
			<point x="750" y="103"/>
			<point x="750" y="313" type="curve"/>
			<point x="750" y="700" type="line"/>
			<point x="550" y="700" type="line"/>
			<point x="550" y="313" type="line"/>
			<point x="550" y="211"/>
			<point x="478" y="140"/>
			<point x="398" y="140" type="curve"/>
			<point x="340" y="140"/>
			<point x="270" y="201"/>
			<point x="270" y="313" type="curve"/>
			<point x="270" y="700" type="line"/>
			<point x="70" y="700" type="line"/>
		</contour>
	</outline>
</glyph>
<glyph name="V" format="2">
	<advance width="823"/>
	<unicode hex="0056"/>
	<outline>
		<contour>
			<point x="212" y="707" type="line"/>
			<point x="35" y="636" type="line"/>
			<point x="411" y="-14" type="line"/>
			<point x="413" y="-14" type="line"/>
			<point x="788" y="636" type="line"/>
			<point x="611" y="707" type="line"/>
			<point x="406" y="301" type="line"/>
			<point x="418" y="301" type="line"/>
		</contour>
	</outline>
</glyph>
<glyph name="W" format="2">
	<advance width="1126"/>
	<unicode hex="0057"/>
	<outline>
		<contour>
			<point x="568" y="333" type="line"/>
			<point x="558" y="333" type="line"/>
			<point x="779" y="-14" type="line"/>
			<point x="780" y="-14" type="line"/>
			<point x="1091" y="636" type="line"/>
			<point x="914" y="707" type="line"/>
			<point x="751" y="331" type="line"/>
			<point x="759" y="331" type="line"/>
			<point x="564" y="639" type="line"/>
			<point x="562" y="639" type="line"/>
			<point x="367" y="331" type="line"/>
			<point x="375" y="331" type="line"/>
			<point x="212" y="704" type="line"/>
			<point x="35" y="636" type="line"/>
			<point x="349" y="-14" type="line"/>
			<point x="351" y="-14" type="line"/>
		</contour>
	</outline>
</glyph>
<glyph name="X" format="2">
	<advance width="796"/>
	<unicode hex="0058"/>
	<outline>
		<contour>
			<point x="771" y="79" type="line"/>
			<point x="512" y="371" type="line"/>
			<point x="512" y="356" type="line"/>
			<point x="750" y="622" type="line"/>
			<point x="580" y="714" type="line"/>
			<point x="321" y="378" type="line"/>
			<point x="321" y="348" type="line"/>
			<point x="600" y="-14" type="line"/>
		</contour>
		<contour>
			<point x="25" y="79" type="line"/>
			<point x="196" y="-14" type="line"/>
			<point x="475" y="348" type="line"/>
			<point x="475" y="378" type="line"/>
			<point x="216" y="714" type="line"/>
			<point x="46" y="622" type="line"/>
			<point x="284" y="356" type="line"/>
			<point x="284" y="371" type="line"/>
		</contour>
	</outline>
</glyph>
<glyph name="Y" format="2">
	<advance width="814"/>
	<unicode hex="0059"/>
	<outline>
		<contour>
			<point x="507" y="0" type="line"/>
			<point x="507" y="358" type="line"/>
			<point x="307" y="358" type="line"/>
			<point x="307" y="0" type="line"/>
		</contour>
		<contour>
			<point x="407" y="211" type="line"/>
			<point x="779" y="605" type="line"/>
			<point x="624" y="714" type="line"/>
			<point x="402" y="458" type="line"/>
			<point x="412" y="458" type="line"/>
			<point x="190" y="714" type="line"/>
			<point x="35" y="605" type="line"/>
		</contour>
	</outline>
</glyph>
<glyph name="Z" format="2">
	<advance width="653"/>
	<unicode hex="005A"/>
	<outline>
		<contour>
			<point x="331" y="550" type="line"/>
			<point x="35" y="1" type="line"/>
			<point x="35" y="0" type="line"/>
			<point x="618" y="0" type="line"/>
			<point x="618" y="150" type="line"/>
			<point x="324" y="150" type="line"/>
			<point x="599" y="699" type="line"/>
			<point x="599" y="700" type="line"/>
			<point x="62" y="700" type="line"/>
			<point x="62" y="550" type="line"/>
		</contour>
	</outline>
</glyph>
<glyph name="bracketleft" format="2">
	<advance width="435"/>
	<unicode hex="005B"/>
	<outline>
		<contour>
			<point x="400" y="-150" type="line"/>
			<point x="400" y="0" type="line"/>
			<point x="270" y="0" type="line"/>
			<point x="270" y="550" type="line"/>
			<point x="400" y="550" type="line"/>
			<point x="400" y="700" type="line"/>
			<point x="70" y="700" type="line"/>
			<point x="70" y="-150" type="line"/>
		</contour>
	</outline>
</glyph>
<glyph name="underscore" format="2">
	<advance width="520"/>
	<unicode hex="005F"/>
	<outline>
		<contour>
			<point x="485" y="-85" type="line"/>
			<point x="35" y="-85" type="line"/>
			<point x="35" y="-235" type="line"/>
			<point x="485" y="-235" type="line"/>
		</contour>
	</outline>
</glyph>
<glyph name="grave" format="2">
	<advance width="355"/>
	<unicode hex="0060"/>
	<outline>
		<contour>
			<point x="320" y="542" type="line"/>
			<point x="166" y="804" type="line"/>
			<point x="35" y="694" type="line"/>
			<point x="267" y="497" type="line"/>
		</contour>
	</outline>
</glyph>
<glyph name="a" format="2">
	<advance width="600"/>
	<unicode hex="0061"/>
	<outline>
		<contour>
			<point x="389" y="324" type="line"/>
			<point x="193" y="321"/>
			<point x="35" y="205"/>
			<point x="35" y="128" type="curve"/>
			<point x="35" y="45"/>
			<point x="137" y="-10"/>
			<point x="245" y="-10" type="curve"/>
			<point x="311" y="-10"/>
			<point x="357" y="-7"/>
			<point x="530" y="3" type="curve"/>
			<point x="419" y="153" type="line"/>
			<point x="351" y="142"/>
			<point x="292" y="140"/>
			<point x="276" y="140" type="curve"/>
			<point x="258" y="140"/>
			<point x="235" y="153"/>
			<point x="235" y="166" type="curve"/>
			<point x="235" y="179"/>
			<point x="252" y="204"/>
			<point x="389" y="204" type="curve"/>
		</contour>
		<contour>
			<point x="330" y="3" type="line"/>
			<point x="530" y="3" type="line"/>
			<point x="530" y="260" type="line"/>
			<point x="530" y="456"/>
			<point x="312" y="502"/>
			<point x="88" y="510" type="curve"/>
			<point x="84" y="360" type="line"/>
			<point x="297" y="360"/>
			<point x="330" y="341"/>
			<point x="330" y="260" type="curve"/>
		</contour>
	</outline>
</glyph>
<glyph name="c" format="2">
	<advance width="498"/>
	<unicode hex="0063"/>
	<outline>
		<contour>
			<point x="441" y="510" type="line"/>
			<point x="213" y="510"/>
			<point x="35" y="344"/>
			<point x="35" y="172" type="curve"/>
			<point x="35" y="53"/>
			<point x="125" y="-10"/>
			<point x="308" y="-10" type="curve"/>
			<point x="374" y="-10"/>
			<point x="420" y="-6"/>
			<point x="463" y="9" type="curve"/>
			<point x="455" y="159" type="line"/>
			<point x="413" y="144"/>
			<point x="397" y="140"/>
			<point x="339" y="140" type="curve"/>
			<point x="300" y="140"/>
			<point x="235" y="170"/>
			<point x="235" y="204" type="curve"/>
			<point x="235" y="290"/>
			<point x="354" y="360"/>
			<point x="441" y="360" type="curve"/>
		</contour>
	</outline>
</glyph>
<glyph name="d" format="2">
	<advance width="634"/>
	<unicode hex="0064"/>
	<outline>
		<contour>
			<point x="364" y="8" type="line"/>
			<point x="564" y="8" type="line"/>
			<point x="564" y="730" type="line"/>
			<point x="364" y="730" type="line"/>
		</contour>
		<contour>
			<point x="564" y="540" type="line"/>
			<point x="257" y="540"/>
			<point x="35" y="350"/>
			<point x="35" y="178" type="curve"/>
			<point x="35" y="38"/>
			<point x="212" y="-10"/>
			<point x="379" y="-10" type="curve"/>
			<point x="451" y="-10"/>
			<point x="516" y="-6"/>
			<point x="564" y="8" type="curve"/>
			<point x="555" y="158" type="line"/>
			<point x="508" y="146"/>
			<point x="450" y="140"/>
			<point x="409" y="140" type="curve"/>
			<point x="316" y="140"/>
			<point x="235" y="147"/>
			<point x="235" y="208" type="curve"/>
			<point x="235" y="269"/>
			<point x="340" y="390"/>
			<point x="564" y="390" type="curve"/>
		</contour>
	</outline>
</glyph>
<glyph name="e" format="2">
	<advance width="573"/>
	<unicode hex="0065"/>
	<outline>
		<contour>
			<point x="48" y="278" type="line"/>
			<point x="48" y="208" type="line"/>
			<point x="538" y="208" type="line"/>
			<point x="538" y="398"/>
			<point x="463" y="510"/>
			<point x="290" y="510" type="curve"/>
			<point x="118" y="510"/>
			<point x="35" y="366"/>
			<point x="35" y="248" type="curve"/>
			<point x="35" y="46"/>
			<point x="218" y="-10"/>
			<point x="474" y="-10" type="curve"/>
			<point x="474" y="140" type="line"/>
			<point x="305" y="140"/>
			<point x="235" y="156"/>
			<point x="235" y="248" type="curve"/>
			<point x="235" y="338"/>
			<point x="264" y="360"/>
			<point x="290" y="360" type="curve"/>
			<point x="317" y="360"/>
			<point x="338" y="338"/>
			<point x="338" y="269" type="curve"/>
			<point x="350" y="278" type="line"/>
		</contour>
	</outline>
</glyph>
<glyph name="g" format="2">
	<advance width="633"/>
	<unicode hex="0067"/>
	<outline>
		<contour>
			<point x="563" y="510" type="line"/>
			<point x="296" y="510"/>
			<point x="35" y="422"/>
			<point x="35" y="210" type="curve"/>
			<point x="35" y="48"/>
			<point x="222" y="-10"/>
			<point x="378" y="-10" type="curve"/>
			<point x="450" y="-10"/>
			<point x="515" y="-6"/>
			<point x="563" y="9" type="curve"/>
			<point x="554" y="159" type="line"/>
			<point x="507" y="145"/>
			<point x="469" y="140"/>
			<point x="428" y="140" type="curve"/>
			<point x="315" y="140"/>
			<point x="235" y="155"/>
			<point x="235" y="220" type="curve"/>
			<point x="235" y="282"/>
			<point x="328" y="360"/>
			<point x="563" y="360" type="curve"/>
		</contour>
		<contour>
			<point x="129" y="-240" type="line"/>
			<point x="416" y="-240"/>
			<point x="563" y="-171"/>
			<point x="563" y="0" type="curve"/>
			<point x="563" y="500" type="line"/>
			<point x="363" y="480" type="line"/>
			<point x="363" y="0" type="line"/>
			<point x="363" y="-58"/>
			<point x="288" y="-90"/>
			<point x="129" y="-90" type="curve"/>
		</contour>
	</outline>
</glyph>
<glyph name="i" format="2">
	<advance width="340"/>
	<unicode hex="0069"/>
	<outline>
		<contour>
			<point x="270" y="0" type="line"/>
			<point x="270" y="500" type="line"/>
			<point x="70" y="500" type="line"/>
			<point x="70" y="0" type="line"/>
		</contour>
		<contour>
			<point x="170" y="570" type="curve"/>
			<point x="229" y="570"/>
			<point x="270" y="619"/>
			<point x="270" y="681" type="curve"/>
			<point x="270" y="726"/>
			<point x="231" y="770"/>
			<point x="170" y="770" type="curve"/>
			<point x="111" y="770"/>
			<point x="70" y="721"/>
			<point x="70" y="659" type="curve"/>
			<point x="70" y="614"/>
			<point x="109" y="570"/>
		</contour>
	</outline>
</glyph>
<glyph name="j" format="2">
	<advance width="340"/>
	<unicode hex="006A"/>
	<outline>
		<contour>
			<point x="-8" y="-239" type="line"/>
			<point x="108" y="-237"/>
			<point x="270" y="-137"/>
			<point x="270" y="0" type="curve"/>
			<point x="270" y="500" type="line"/>
			<point x="70" y="500" type="line"/>
			<point x="70" y="40" type="line"/>
			<point x="70" y="-49"/>
			<point x="21" y="-82"/>
			<point x="-55" y="-89" type="curve"/>
		</contour>
		<contour>
			<point x="170" y="570" type="curve"/>
			<point x="229" y="570"/>
			<point x="270" y="619"/>
			<point x="270" y="681" type="curve"/>
			<point x="270" y="726"/>
			<point x="231" y="770"/>
			<point x="170" y="770" type="curve"/>
			<point x="111" y="770"/>
			<point x="70" y="721"/>
			<point x="70" y="659" type="curve"/>
			<point x="70" y="614"/>
			<point x="109" y="570"/>
		</contour>
	</outline>
</glyph>
<glyph name="k" format="2">
	<advance width="652"/>
	<unicode hex="006B"/>
	<outline>
		<contour>
			<point x="270" y="0" type="line"/>
			<point x="270" y="730" type="line"/>
			<point x="70" y="730" type="line"/>
			<point x="70" y="0" type="line"/>
		</contour>
		<contour>
			<point x="240" y="246" type="line"/>
			<point x="483" y="0" type="line"/>
			<point x="617" y="125" type="line"/>
			<point x="433" y="253" type="line"/>
			<point x="433" y="240" type="line"/>
			<point x="604" y="376" type="line"/>
			<point x="470" y="500" type="line"/>
		</contour>
	</outline>
</glyph>
<glyph name="l" format="2">
	<advance width="340"/>
	<unicode hex="006C"/>
	<outline>
		<contour>
			<point x="270" y="0" type="line"/>
			<point x="270" y="730" type="line"/>
			<point x="70" y="730" type="line"/>
			<point x="70" y="0" type="line"/>
		</contour>
	</outline>
</glyph>
<glyph name="m" format="2">
	<advance width="1002"/>
	<unicode hex="006D"/>
	<outline>
		<contour>
			<point x="601" y="257" type="line"/>
			<point x="601" y="379"/>
			<point x="568" y="510"/>
			<point x="428" y="510" type="curve"/>
			<point x="258" y="510"/>
			<point x="190" y="318"/>
			<point x="190" y="257" type="curve"/>
			<point x="270" y="257" type="line"/>
			<point x="270" y="323"/>
			<point x="297" y="350"/>
			<point x="342" y="350" type="curve"/>
			<point x="387" y="350"/>
			<point x="401" y="324"/>
			<point x="401" y="257" type="curve"/>
			<point x="401" y="0" type="line"/>
			<point x="601" y="0" type="line"/>
		</contour>
		<contour>
			<point x="70" y="500" type="line"/>
			<point x="70" y="0" type="line"/>
			<point x="270" y="0" type="line"/>
			<point x="270" y="500" type="line"/>
		</contour>
		<contour>
			<point x="932" y="257" type="line"/>
			<point x="932" y="379"/>
			<point x="899" y="510"/>
			<point x="759" y="510" type="curve"/>
			<point x="589" y="510"/>
			<point x="521" y="318"/>
			<point x="521" y="257" type="curve"/>
			<point x="601" y="257" type="line"/>
			<point x="601" y="323"/>
			<point x="628" y="350"/>
			<point x="673" y="350" type="curve"/>
			<point x="718" y="350"/>
			<point x="732" y="324"/>
			<point x="732" y="257" type="curve"/>
			<point x="732" y="0" type="line"/>
			<point x="932" y="0" type="line"/>
		</contour>
	</outline>
</glyph>
<glyph name="n" format="2">
	<advance width="701"/>
	<unicode hex="006E"/>
	<outline>
		<contour>
			<point x="70" y="500" type="line"/>
			<point x="70" y="0" type="line"/>
			<point x="270" y="0" type="line"/>
			<point x="270" y="500" type="line"/>
		</contour>
		<contour>
			<point x="631" y="257" type="line"/>
			<point x="631" y="379"/>
			<point x="608" y="510"/>
			<point x="453" y="510" type="curve"/>
			<point x="283" y="510"/>
			<point x="190" y="318"/>
			<point x="190" y="257" type="curve"/>
			<point x="270" y="257" type="line"/>
			<point x="270" y="323"/>
			<point x="302" y="350"/>
			<point x="357" y="350" type="curve"/>
			<point x="412" y="350"/>
			<point x="431" y="324"/>
			<point x="431" y="257" type="curve"/>
			<point x="431" y="0" type="line"/>
			<point x="631" y="0" type="line"/>
		</contour>
	</outline>
</glyph>
<glyph name="p" format="2">
	<advance width="633"/>
	<unicode hex="0070"/>
	<outline>
		<contour>
			<point x="270" y="-230" type="line"/>
			<point x="270" y="500" type="line"/>
			<point x="70" y="500" type="line"/>
			<point x="70" y="-230" type="line"/>
		</contour>
		<contour>
			<point x="70" y="-9" type="line"/>
			<point x="467" y="-9"/>
			<point x="598" y="112"/>
			<point x="598" y="270" type="curve"/>
			<point x="597" y="406"/>
			<point x="432" y="520"/>
			<point x="70" y="520" type="curve"/>
			<point x="70" y="370" type="line"/>
			<point x="351" y="370"/>
			<point x="397" y="299"/>
			<point x="397" y="250" type="curve"/>
			<point x="397" y="189"/>
			<point x="338" y="141"/>
			<point x="70" y="141" type="curve"/>
		</contour>
	</outline>
</glyph>
<glyph name="q" format="2">
	<advance width="634"/>
	<unicode hex="0071"/>
	<outline>
		<contour>
			<point x="364" y="-230" type="line"/>
			<point x="564" y="-230" type="line"/>
			<point x="564" y="500" type="line"/>
			<point x="364" y="470" type="line"/>
		</contour>
		<contour>
			<point x="564" y="510" type="line"/>
			<point x="257" y="510"/>
			<point x="35" y="350"/>
			<point x="35" y="178" type="curve"/>
			<point x="35" y="38"/>
			<point x="212" y="-10"/>
			<point x="379" y="-10" type="curve"/>
			<point x="451" y="-10"/>
			<point x="516" y="-6"/>
			<point x="564" y="8" type="curve"/>
			<point x="555" y="158" type="line"/>
			<point x="508" y="146"/>
			<point x="450" y="140"/>
			<point x="409" y="140" type="curve"/>
			<point x="316" y="140"/>
			<point x="235" y="147"/>
			<point x="235" y="208" type="curve"/>
			<point x="235" y="269"/>
			<point x="340" y="360"/>
			<point x="564" y="360" type="curve"/>
		</contour>
	</outline>
</glyph>
<glyph name="r" format="2">
	<advance width="502"/>
	<unicode hex="0072"/>
	<outline>
		<contour>
			<point x="458" y="510" type="line"/>
			<point x="328" y="501"/>
			<point x="200" y="415"/>
			<point x="200" y="227" type="curve"/>
			<point x="270" y="227" type="line"/>
			<point x="270" y="289"/>
			<point x="377" y="352"/>
			<point x="467" y="361" type="curve"/>
		</contour>
		<contour>
			<point x="70" y="500" type="line"/>
			<point x="70" y="0" type="line"/>
			<point x="270" y="0" type="line"/>
			<point x="270" y="500" type="line"/>
		</contour>
	</outline>
</glyph>
<glyph name="s" format="2">
	<advance width="432"/>
	<unicode hex="0073"/>
	<outline>
		<contour>
			<point x="350" y="510" type="line"/>
			<point x="185" y="510"/>
			<point x="35" y="453"/>
			<point x="35" y="366" type="curve"/>
			<point x="35" y="315"/>
			<point x="62" y="279"/>
			<point x="121" y="236" type="curve"/>
			<point x="151" y="214"/>
			<point x="197" y="197"/>
			<point x="197" y="176" type="curve"/>
			<point x="197" y="160"/>
			<point x="139" y="140"/>
			<point x="58" y="140" type="curve"/>
			<point x="58" y="-10" type="line"/>
			<point x="234" y="-10"/>
			<point x="397" y="37"/>
			<point x="397" y="126" type="curve"/>
			<point x="397" y="189"/>
			<point x="363" y="225"/>
			<point x="315" y="258" type="curve"/>
			<point x="280" y="283"/>
			<point x="225" y="306"/>
			<point x="225" y="326" type="curve"/>
			<point x="225" y="349"/>
			<point x="277" y="360"/>
			<point x="350" y="360" type="curve"/>
		</contour>
	</outline>
</glyph>
<glyph name="t" format="2">
	<advance width="466"/>
	<unicode hex="0074"/>
	<outline>
		<contour>
			<point x="431" y="500" type="line"/>
			<point x="35" y="500" type="line"/>
			<point x="35" y="350" type="line"/>
			<point x="431" y="350" type="line"/>
		</contour>
		<contour>
			<point x="421" y="-10" type="curve"/>
			<point x="421" y="140" type="line"/>
			<point x="354" y="140"/>
			<point x="310" y="169"/>
			<point x="310" y="233" type="curve"/>
			<point x="310" y="600" type="line"/>
			<point x="110" y="600" type="line"/>
			<point x="110" y="203" type="line"/>
			<point x="110" y="51"/>
			<point x="222" y="-10"/>
		</contour>
	</outline>
</glyph>
<glyph name="u" format="2">
	<advance width="701"/>
	<unicode hex="0075"/>
	<outline>
		<contour>
			<point x="632" y="0" type="line"/>
			<point x="632" y="500" type="line"/>
			<point x="432" y="500" type="line"/>
			<point x="432" y="0" type="line"/>
		</contour>
		<contour>
			<point x="70" y="244" type="line"/>
			<point x="70" y="121"/>
			<point x="94" y="-10"/>
			<point x="248" y="-10" type="curve"/>
			<point x="419" y="-10"/>
			<point x="512" y="182"/>
			<point x="512" y="244" type="curve"/>
			<point x="432" y="244" type="line"/>
			<point x="432" y="177"/>
			<point x="400" y="150"/>
			<point x="345" y="150" type="curve"/>
			<point x="290" y="150"/>
			<point x="271" y="177"/>
			<point x="271" y="244" type="curve"/>
			<point x="271" y="500" type="line"/>
			<point x="71" y="500" type="line"/>
		</contour>
	</outline>
</glyph>
<glyph name="v" format="2">
	<advance width="698"/>
	<unicode hex="0076"/>
	<outline>
		<contour>
			<point x="360" y="268" type="line"/>
			<point x="222" y="520" type="line"/>
			<point x="35" y="449" type="line"/>
			<point x="348" y="-14" type="line"/>
			<point x="350" y="-14" type="line"/>
			<point x="663" y="449" type="line"/>
			<point x="476" y="520" type="line"/>
			<point x="338" y="268" type="line"/>
		</contour>
	</outline>
</glyph>
<glyph name="w" format="2">
	<advance width="879"/>
	<unicode hex="0077"/>
	<outline>
		<contour>
			<point x="440" y="190" type="line"/>
			<point x="589" y="-14" type="line"/>
			<point x="590" y="-14" type="line"/>
			<point x="844" y="445" type="line"/>
			<point x="657" y="506" type="line"/>
			<point x="552" y="270" type="line"/>
			<point x="577" y="270" type="line"/>
			<point x="441" y="467" type="line"/>
			<point x="439" y="467" type="line"/>
			<point x="302" y="270" type="line"/>
			<point x="328" y="270" type="line"/>
			<point x="222" y="506" type="line"/>
			<point x="35" y="445" type="line"/>
			<point x="289" y="-14" type="line"/>
			<point x="290" y="-14" type="line"/>
		</contour>
	</outline>
</glyph>
<glyph name="x" format="2">
	<advance width="666"/>
	<unicode hex="0078"/>
	<outline>
		<contour>
			<point x="631" y="73" type="line"/>
			<point x="438" y="264" type="line"/>
			<point x="438" y="249" type="line"/>
			<point x="620" y="428" type="line"/>
			<point x="460" y="520" type="line"/>
			<point x="269" y="270" type="line"/>
			<point x="269" y="240" type="line"/>
			<point x="480" y="-20" type="line"/>
		</contour>
		<contour>
			<point x="35" y="73" type="line"/>
			<point x="186" y="-20" type="line"/>
			<point x="397" y="240" type="line"/>
			<point x="397" y="270" type="line"/>
			<point x="206" y="520" type="line"/>
			<point x="46" y="428" type="line"/>
			<point x="228" y="249" type="line"/>
			<point x="228" y="264" type="line"/>
		</contour>
	</outline>
</glyph>
<glyph name="y" format="2">
	<advance width="692"/>
	<unicode hex="0079"/>
	<outline>
		<contour>
			<point x="420" y="13" type="line"/>
			<point x="222" y="511" type="line"/>
			<point x="35" y="450" type="line"/>
			<point x="273" y="-58" type="line"/>
		</contour>
		<contour>
			<point x="349" y="-235" type="line"/>
			<point x="455" y="0" type="line"/>
			<point x="657" y="450" type="line"/>
			<point x="480" y="511" type="line"/>
			<point x="283" y="13" type="line"/>
			<point x="247" y="0" type="line"/>
			<point x="172" y="-164" type="line"/>
		</contour>
	</outline>
</glyph>
<glyph name="z" format="2">
	<advance width="541"/>
	<unicode hex="007A"/>
	<outline>
		<contour>
			<point x="227" y="350" type="line"/>
			<point x="35" y="1" type="line"/>
			<point x="35" y="0" type="line"/>
			<point x="506" y="0" type="line"/>
			<point x="506" y="150" type="line"/>
			<point x="309" y="150" type="line"/>
			<point x="501" y="499" type="line"/>
			<point x="501" y="500" type="line"/>
			<point x="59" y="500" type="line"/>
			<point x="59" y="350" type="line"/>
		</contour>
	</outline>
</glyph>
<glyph name="braceleft" format="2">
	<advance width="500"/>
	<unicode hex="007B"/>
	<outline>
		<contour>
			<point x="465" y="700" type="line"/>
			<point x="335" y="700" type="line"/>
			<point x="214" y="700"/>
			<point x="165" y="651"/>
			<point x="165" y="530" type="curve"/>
			<point x="165" y="450" type="line"/>
			<point x="165" y="371"/>
			<point x="143" y="340"/>
			<point x="75" y="340" type="curve"/>
			<point x="35" y="340" type="line"/>
			<point x="35" y="180" type="line"/>
			<point x="75" y="180" type="line"/>
			<point x="143" y="180"/>
			<point x="165" y="150"/>
			<point x="165" y="70" type="curve"/>
			<point x="165" y="-10" type="line"/>
			<point x="165" y="-131"/>
			<point x="214" y="-180"/>
			<point x="335" y="-180" type="curve"/>
			<point x="465" y="-180" type="line"/>
			<point x="465" y="-50" type="line"/>
			<point x="425" y="-50" type="line"/>
			<point x="343" y="-50"/>
			<point x="335" y="-42"/>
			<point x="335" y="32" type="curve"/>
			<point x="335" y="60" type="line"/>
			<point x="335" y="183"/>
			<point x="330" y="222"/>
			<point x="215" y="259" type="curve"/>
			<point x="215" y="261" type="line"/>
			<point x="298" y="288"/>
			<point x="335" y="335"/>
			<point x="335" y="435" type="curve"/>
			<point x="335" y="480" type="line"/>
			<point x="335" y="565"/>
			<point x="343" y="570"/>
			<point x="425" y="570" type="curve"/>
			<point x="465" y="570" type="line"/>
		</contour>
	</outline>
</glyph>
<glyph name="asciitilde" format="2">
	<advance width="653"/>
	<unicode hex="007E"/>
	<outline>
		<contour>
			<point x="15" y="208" type="curve"/>
			<point x="138" y="138" type="line"/>
			<point x="163" y="201"/>
			<point x="199" y="227"/>
			<point x="226" y="227" type="curve"/>
			<point x="252" y="227"/>
			<point x="266" y="221"/>
			<point x="289" y="191" type="curve"/>
			<point x="322" y="150"/>
			<point x="364" y="123"/>
			<point x="435" y="123" type="curve"/>
			<point x="520" y="123"/>
			<point x="600" y="185"/>
			<point x="639" y="287" type="curve"/>
			<point x="505" y="359" type="line"/>
			<point x="484" y="301"/>
			<point x="440" y="273"/>
			<point x="417" y="273" type="curve"/>
			<point x="400" y="273"/>
			<point x="375" y="284"/>
			<point x="358" y="306" type="curve"/>
			<point x="334" y="338"/>
			<point x="306" y="377"/>
			<point x="228" y="377" type="curve"/>
			<point x="136" y="377"/>
			<point x="72" y="320"/>
		</contour>
	</outline>
</glyph>
<glyph name="currency" format="2">
	<advance width="686"/>
	<unicode hex="00A4"/>
	<outline>
		<contour>
			<point x="343" y="115" type="curve"/>
			<point x="480" y="115"/>
			<point x="593" y="225"/>
			<point x="593" y="365" type="curve"/>
			<point x="593" y="500"/>
			<point x="487" y="615"/>
			<point x="343" y="615" type="curve"/>
			<point x="207" y="615"/>
			<point x="93" y="507"/>
			<point x="93" y="365" type="curve"/>
			<point x="93" y="227"/>
			<point x="206" y="115"/>
		</contour>
		<contour>
			<point x="343" y="280" type="curve"/>
			<point x="296" y="280"/>
			<point x="258" y="319"/>
			<point x="258" y="365" type="curve"/>
			<point x="258" y="413"/>
			<point x="297" y="450"/>
			<point x="343" y="450" type="curve"/>
			<point x="390" y="450"/>
			<point x="428" y="413"/>
			<point x="428" y="365" type="curve"/>
			<point x="428" y="319"/>
			<point x="391" y="280"/>
		</contour>
		<contour>
			<point x="141" y="57" type="line"/>
			<point x="270" y="186" type="line"/>
			<point x="164" y="292" type="line"/>
			<point x="35" y="163" type="line"/>
		</contour>
		<contour>
			<point x="545" y="57" type="line"/>
			<point x="651" y="163" type="line"/>
			<point x="522" y="292" type="line"/>
			<point x="416" y="186" type="line"/>
		</contour>
		<contour>
			<point x="164" y="438" type="line"/>
			<point x="270" y="544" type="line"/>
			<point x="141" y="673" type="line"/>
			<point x="35" y="567" type="line"/>
		</contour>
		<contour>
			<point x="522" y="438" type="line"/>
			<point x="651" y="567" type="line"/>
			<point x="545" y="673" type="line"/>
			<point x="416" y="544" type="line"/>
		</contour>
	</outline>
</glyph>
<glyph name="yen" format="2">
	<advance width="814"/>
	<unicode hex="00A5"/>
	<outline>
		<contour>
			<point x="507" y="0" type="line"/>
			<point x="507" y="358" type="line"/>
			<point x="307" y="358" type="line"/>
			<point x="307" y="0" type="line"/>
		</contour>
		<contour>
			<point x="407" y="211" type="line"/>
			<point x="779" y="605" type="line"/>
			<point x="624" y="714" type="line"/>
			<point x="402" y="458" type="line"/>
			<point x="412" y="458" type="line"/>
			<point x="190" y="714" type="line"/>
			<point x="35" y="605" type="line"/>
		</contour>
		<contour>
			<point x="107" y="190" type="line"/>
			<point x="707" y="190" type="line"/>
			<point x="707" y="310" type="line"/>
			<point x="107" y="310" type="line"/>
		</contour>
	</outline>
</glyph>
<glyph name="section" format="2">
	<advance width="492"/>
	<unicode hex="00A7"/>
	<outline>
		<contour>
			<point x="240" y="480" type="line"/>
			<point x="105" y="480"/>
			<point x="35" y="423"/>
			<point x="35" y="336" type="curve"/>
			<point x="35" y="225"/>
			<point x="227" y="197"/>
			<point x="227" y="146" type="curve"/>
			<point x="227" y="130"/>
			<point x="169" y="110"/>
			<point x="88" y="110" type="curve"/>
			<point x="88" y="-40" type="line"/>
			<point x="264" y="-40"/>
			<point x="427" y="7"/>
			<point x="427" y="96" type="curve"/>
			<point x="427" y="209"/>
			<point x="185" y="296"/>
			<point x="185" y="336" type="curve"/>
			<point x="185" y="359"/>
			<point x="227" y="400"/>
			<point x="300" y="400" type="curve"/>
		</contour>
		<contour>
			<point x="380" y="740" type="line"/>
			<point x="215" y="740"/>
			<point x="65" y="683"/>
			<point x="65" y="596" type="curve"/>
			<point x="65" y="485"/>
			<point x="317" y="387"/>
			<point x="317" y="346" type="curve"/>
			<point x="317" y="320"/>
			<point x="269" y="290"/>
			<point x="188" y="290" type="curve"/>
			<point x="258" y="210" type="line"/>
			<point x="334" y="210"/>
			<point x="457" y="267"/>
			<point x="457" y="356" type="curve"/>
			<point x="457" y="469"/>
			<point x="255" y="526"/>
			<point x="255" y="556" type="curve"/>
			<point x="255" y="579"/>
			<point x="307" y="590"/>
			<point x="380" y="590" type="curve"/>
		</contour>
	</outline>
</glyph>
<glyph name="ordfeminine" format="2">
	<advance width="378"/>
	<unicode hex="00AA"/>
	<outline>
		<contour>
			<point x="251" y="663" type="line"/>
			<point x="138" y="661"/>
			<point x="35" y="614"/>
			<point x="35" y="570" type="curve"/>
			<point x="35" y="522"/>
			<point x="95" y="490"/>
			<point x="187" y="490" type="curve"/>
			<point x="265" y="490"/>
			<point x="282" y="490"/>
			<point x="343" y="497" type="curve"/>
			<point x="268" y="588" type="line"/>
			<point x="229" y="582"/>
			<point x="214" y="581"/>
			<point x="195" y="581" type="curve"/>
			<point x="175" y="581"/>
			<point x="162" y="590"/>
			<point x="162" y="602" type="curve"/>
			<point x="162" y="620"/>
			<point x="171" y="635"/>
			<point x="251" y="635" type="curve"/>
		</contour>
		<contour>
			<point x="216" y="497" type="line"/>
			<point x="343" y="497" type="line"/>
			<point x="343" y="646" type="line"/>
			<point x="343" y="759"/>
			<point x="206" y="785"/>
			<point x="77" y="790" type="curve"/>
			<point x="74" y="686" type="line"/>
			<point x="197" y="686"/>
			<point x="216" y="672"/>
			<point x="216" y="636" type="curve"/>
		</contour>
		<contour>
			<point x="343" y="430" type="line"/>
			<point x="55" y="430" type="line"/>
			<point x="55" y="350" type="line"/>
			<point x="343" y="350" type="line"/>
		</contour>
	</outline>
</glyph>
<glyph name="logicalnot" format="2">
	<advance width="635"/>
	<unicode hex="00AC"/>
	<outline>
		<contour>
			<point x="565" y="409" type="line"/>
			<point x="35" y="409" type="line"/>
			<point x="35" y="259" type="line"/>
			<point x="415" y="259" type="line"/>
			<point x="415" y="91" type="line"/>
			<point x="565" y="91" type="line"/>
		</contour>
	</outline>
</glyph>
<glyph name="macron" format="2">
	<advance width="437"/>
	<unicode hex="00AF"/>
	<outline>
		<contour>
			<point x="402" y="610" type="line"/>
			<point x="402" y="730" type="line"/>
			<point x="35" y="730" type="line"/>
			<point x="35" y="610" type="line"/>
		</contour>
	</outline>
</glyph>
<glyph name="degree" format="2">
	<advance width="370"/>
	<unicode hex="00B0"/>
	<outline>
		<contour>
			<point x="185" y="410" type="curve"/>
			<point x="273" y="410"/>
			<point x="335" y="484"/>
			<point x="335" y="577" type="curve"/>
			<point x="335" y="644"/>
			<point x="276" y="710"/>
			<point x="185" y="710" type="curve"/>
			<point x="97" y="710"/>
			<point x="35" y="636"/>
			<point x="35" y="543" type="curve"/>
			<point x="35" y="476"/>
			<point x="94" y="410"/>
		</contour>
		<contour>
			<point x="185" y="500" type="curve"/>
			<point x="149" y="500"/>
			<point x="125" y="526"/>
			<point x="125" y="553" type="curve"/>
			<point x="125" y="590"/>
			<point x="150" y="620"/>
			<point x="185" y="620" type="curve"/>
			<point x="221" y="620"/>
			<point x="245" y="594"/>
			<point x="245" y="567" type="curve"/>
			<point x="245" y="530"/>
			<point x="220" y="500"/>
		</contour>
	</outline>
</glyph>
<glyph name="mu" format="2">
	<advance width="702"/>
	<unicode hex="00B5"/>
	<outline>
		<contour>
			<point x="70" y="-230" type="line"/>
			<point x="270" y="-230" type="line"/>
			<point x="270" y="500" type="line"/>
			<point x="70" y="500" type="line"/>
		</contour>
		<contour>
			<point x="632" y="0" type="line"/>
			<point x="632" y="500" type="line"/>
			<point x="432" y="500" type="line"/>
			<point x="432" y="0" type="line"/>
		</contour>
		<contour>
			<point x="211" y="244" type="line"/>
			<point x="211" y="121"/>
			<point x="263" y="-10"/>
			<point x="348" y="-10" type="curve"/>
			<point x="438" y="-10"/>
			<point x="491" y="182"/>
			<point x="491" y="244" type="curve"/>
			<point x="432" y="244" type="line"/>
			<point x="432" y="177"/>
			<point x="402" y="150"/>
			<point x="348" y="150" type="curve"/>
			<point x="293" y="150"/>
			<point x="270" y="177"/>
			<point x="270" y="244" type="curve"/>
		</contour>
	</outline>
</glyph>
<glyph name="paragraph" format="2">
	<advance width="618"/>
	<unicode hex="00B6"/>
	<outline>
		<contour>
			<point x="332" y="197" type="curve"/>
			<point x="332" y="350" type="line"/>
			<point x="273" y="374"/>
			<point x="235" y="411"/>
			<point x="235" y="466" type="curve"/>
			<point x="235" y="537"/>
			<point x="299" y="560"/>
			<point x="548" y="560" type="curve"/>
			<point x="548" y="710" type="line"/>
			<point x="245" y="710"/>
			<point x="35" y="653"/>
			<point x="35" y="496" type="curve"/>
			<point x="35" y="379"/>
			<point x="146" y="253"/>
		</contour>
		<contour>
			<point x="548" y="0" type="line"/>
			<point x="548" y="700" type="line"/>
			<point x="428" y="690" type="line"/>
			<point x="428" y="0" type="line"/>
		</contour>
		<contour>
			<point x="228" y="0" type="line"/>
			<point x="348" y="0" type="line"/>
			<point x="348" y="670" type="line"/>
			<point x="228" y="660" type="line"/>
		</contour>
		<contour>
			<point x="334" y="254" type="curve"/>
			<point x="335" y="629" type="line"/>
			<point x="271" y="619"/>
			<point x="112" y="591"/>
			<point x="112" y="485" type="curve"/>
			<point x="112" y="355"/>
			<point x="213" y="289"/>
		</contour>
	</outline>
</glyph>
<glyph name="ordmasculine" format="2">
	<advance width="395"/>
	<unicode hex="00BA"/>
	<outline>
		<contour>
			<point x="198" y="490" type="curve"/>
			<point x="293" y="490"/>
			<point x="360" y="564"/>
			<point x="360" y="657" type="curve"/>
			<point x="360" y="724"/>
			<point x="296" y="790"/>
			<point x="198" y="790" type="curve"/>
			<point x="102" y="790"/>
			<point x="35" y="716"/>
			<point x="35" y="623" type="curve"/>
			<point x="35" y="556"/>
			<point x="99" y="490"/>
		</contour>
		<contour>
			<point x="198" y="590" type="curve"/>
			<point x="177" y="590"/>
			<point x="163" y="611"/>
			<point x="163" y="634" type="curve"/>
			<point x="163" y="665"/>
			<point x="177" y="690"/>
			<point x="198" y="690" type="curve"/>
			<point x="219" y="690"/>
			<point x="233" y="669"/>
			<point x="233" y="646" type="curve"/>
			<point x="233" y="615"/>
			<point x="218" y="590"/>
		</contour>
		<contour>
			<point x="340" y="430" type="line"/>
			<point x="55" y="430" type="line"/>
			<point x="55" y="350" type="line"/>
			<point x="340" y="350" type="line"/>
		</contour>
	</outline>
</glyph>
<glyph name="Thorn" format="2">
	<advance width="618"/>
	<unicode hex="00DE"/>
	<outline>
		<contour>
			<point x="270" y="0" type="line"/>
			<point x="270" y="700" type="line"/>
			<point x="70" y="700" type="line"/>
			<point x="70" y="0" type="line"/>
		</contour>
		<contour>
			<point x="70" y="97" type="line"/>
			<point x="389" y="97"/>
			<point x="583" y="268"/>
			<point x="583" y="426" type="curve"/>
			<point x="583" y="582"/>
			<point x="375" y="640"/>
			<point x="70" y="640" type="curve"/>
			<point x="70" y="490" type="line"/>
			<point x="326" y="490"/>
			<point x="383" y="466"/>
			<point x="384" y="396" type="curve"/>
			<point x="384" y="295"/>
			<point x="250" y="247"/>
			<point x="70" y="247" type="curve"/>
		</contour>
	</outline>
</glyph>
<glyph name="germandbls" format="2">
	<advance width="704"/>
	<unicode hex="00DF"/>
	<outline>
		<contour>
			<point x="270" y="0" type="line"/>
			<point x="270" y="491" type="line"/>
			<point x="70" y="491" type="line"/>
			<point x="70" y="0" type="line"/>
		</contour>
		<contour>
			<point x="622" y="450" type="line"/>
			<point x="622" y="681"/>
			<point x="535" y="740"/>
			<point x="350" y="740" type="curve"/>
			<point x="330" y="610" type="line"/>
			<point x="372" y="610"/>
			<point x="422" y="595"/>
			<point x="422" y="450" type="curve"/>
		</contour>
		<contour>
			<point x="270" y="491" type="line"/>
			<point x="270" y="573"/>
			<point x="290" y="610"/>
			<point x="330" y="610" type="curve"/>
			<point x="350" y="740" type="line"/>
			<point x="157" y="740"/>
			<point x="70" y="644"/>
			<point x="70" y="491" type="curve"/>
		</contour>
		<contour>
			<point x="592" y="600" type="line"/>
			<point x="447" y="600"/>
			<point x="327" y="493"/>
			<point x="327" y="406" type="curve"/>
			<point x="327" y="355"/>
			<point x="334" y="319"/>
			<point x="393" y="276" type="curve"/>
			<point x="423" y="254"/>
			<point x="469" y="237"/>
			<point x="469" y="196" type="curve"/>
			<point x="469" y="160"/>
			<point x="411" y="140"/>
			<point x="330" y="140" type="curve"/>
			<point x="330" y="-10" type="line"/>
			<point x="506" y="-10"/>
			<point x="669" y="37"/>
			<point x="669" y="146" type="curve"/>
			<point x="669" y="229"/>
			<point x="635" y="265"/>
			<point x="587" y="298" type="curve"/>
			<point x="552" y="323"/>
			<point x="517" y="346"/>
			<point x="517" y="366" type="curve"/>
			<point x="517" y="419"/>
			<point x="549" y="450"/>
			<point x="622" y="450" type="curve"/>
		</contour>
	</outline>
</glyph>
<glyph name="ae" format="2">
	<advance width="868"/>
	<unicode hex="00E6"/>
	<outline>
		<contour>
			<point x="389" y="324" type="line"/>
			<point x="193" y="321"/>
			<point x="35" y="205"/>
			<point x="35" y="128" type="curve"/>
			<point x="35" y="45"/>
			<point x="137" y="-10"/>
			<point x="245" y="-10" type="curve"/>
			<point x="311" y="-10"/>
			<point x="459" y="35"/>
			<point x="459" y="245" type="curve"/>
			<point x="330" y="245" type="line"/>
			<point x="330" y="144"/>
			<point x="292" y="140"/>
			<point x="276" y="140" type="curve"/>
			<point x="258" y="140"/>
			<point x="235" y="153"/>
			<point x="235" y="166" type="curve"/>
			<point x="235" y="179"/>
			<point x="252" y="204"/>
			<point x="389" y="204" type="curve"/>
		</contour>
		<contour>
			<point x="330" y="243" type="line"/>
			<point x="530" y="243" type="line"/>
			<point x="530" y="260" type="line"/>
			<point x="530" y="456"/>
			<point x="312" y="502"/>
			<point x="88" y="510" type="curve"/>
			<point x="84" y="360" type="line"/>
			<point x="297" y="360"/>
			<point x="330" y="341"/>
			<point x="330" y="260" type="curve"/>
		</contour>
		<contour>
			<point x="343" y="278" type="line"/>
			<point x="343" y="208" type="line"/>
			<point x="833" y="208" type="line"/>
			<point x="833" y="398"/>
			<point x="758" y="510"/>
			<point x="585" y="510" type="curve"/>
			<point x="413" y="510"/>
			<point x="330" y="366"/>
			<point x="330" y="248" type="curve"/>
			<point x="330" y="46"/>
			<point x="513" y="-10"/>
			<point x="769" y="-10" type="curve"/>
			<point x="769" y="140" type="line"/>
			<point x="600" y="140"/>
			<point x="530" y="156"/>
			<point x="530" y="248" type="curve"/>
			<point x="530" y="338"/>
			<point x="559" y="360"/>
			<point x="585" y="360" type="curve"/>
			<point x="612" y="360"/>
			<point x="633" y="338"/>
			<point x="633" y="269" type="curve"/>
			<point x="645" y="278" type="line"/>
		</contour>
	</outline>
</glyph>
<glyph name="eth" format="2">
	<advance width="600"/>
	<unicode hex="00F0"/>
	<outline>
		<contour>
			<point x="253" y="740" type="curve"/>
			<point x="93" y="655" type="line"/>
			<point x="271" y="496"/>
			<point x="358" y="384"/>
			<point x="358" y="239" type="curve"/>
			<point x="358" y="177"/>
			<point x="332" y="140"/>
			<point x="286" y="140" type="curve"/>
			<point x="240" y="140"/>
			<point x="199" y="170"/>
			<point x="199" y="226" type="curve"/>
			<point x="199" y="302"/>
			<point x="243" y="380"/>
			<point x="391" y="380" type="curve"/>
			<point x="391" y="510" type="line"/>
			<point x="137" y="510"/>
			<point x="0" y="359"/>
			<point x="0" y="216" type="curve"/>
			<point x="0" y="79"/>
			<point x="124" y="-10"/>
			<point x="276" y="-10" type="curve"/>
			<point x="427" y="-10"/>
			<point x="558" y="83"/>
			<point x="558" y="249" type="curve"/>
			<point x="558" y="443"/>
			<point x="364" y="637"/>
		</contour>
		<contour>
			<point x="384" y="740" type="line"/>
			<point x="63" y="554" type="line"/>
			<point x="100" y="489" type="line"/>
			<point x="422" y="674" type="line"/>
		</contour>
	</outline>
</glyph>
<glyph name="divide" format="2">
	<advance width="520"/>
	<unicode hex="00F7"/>
	<outline>
		<contour>
			<point x="485" y="360" type="line"/>
			<point x="35" y="360" type="line"/>
			<point x="35" y="240" type="line"/>
			<point x="485" y="240" type="line"/>
		</contour>
		<contour>
			<point x="260" y="400" type="curve"/>
			<point x="304" y="400"/>
			<point x="335" y="437"/>
			<point x="335" y="483" type="curve"/>
			<point x="335" y="517"/>
			<point x="305" y="550"/>
			<point x="260" y="550" type="curve"/>
			<point x="216" y="550"/>
			<point x="185" y="513"/>
			<point x="185" y="467" type="curve"/>
			<point x="185" y="433"/>
			<point x="215" y="400"/>
		</contour>
		<contour>
			<point x="260" y="50" type="curve"/>
			<point x="304" y="50"/>
			<point x="335" y="87"/>
			<point x="335" y="133" type="curve"/>
			<point x="335" y="167"/>
			<point x="305" y="200"/>
			<point x="260" y="200" type="curve"/>
			<point x="216" y="200"/>
			<point x="185" y="163"/>
			<point x="185" y="117" type="curve"/>
			<point x="185" y="83"/>
			<point x="215" y="50"/>
		</contour>
	</outline>
</glyph>
<glyph name="idotless" format="2">
	<advance width="340"/>
	<unicode hex="0131"/>
	<outline>
		<contour>
			<point x="270" y="0" type="line"/>
			<point x="270" y="500" type="line"/>
			<point x="70" y="500" type="line"/>
			<point x="70" y="0" type="line"/>
		</contour>
	</outline>
</glyph>
<glyph name="longs" format="2">
	<advance width="420"/>
	<unicode hex="017F"/>
	<outline>
		<contour>
			<point x="361" y="740" type="line"/>
			<point x="202" y="712"/>
			<point x="70" y="639"/>
			<point x="70" y="467" type="curve"/>
			<point x="70" y="0" type="line"/>
			<point x="270" y="0" type="line"/>
			<point x="270" y="467" type="line"/>
			<point x="270" y="511"/>
			<point x="260" y="554"/>
			<point x="385" y="580" type="curve"/>
		</contour>
	</outline>
</glyph>
<glyph name="jdotless" format="2">
	<advance width="340"/>
	<unicode hex="0237"/>
	<outline>
		<contour>
			<point x="-8" y="-239" type="line"/>
			<point x="108" y="-237"/>
			<point x="270" y="-137"/>
			<point x="270" y="0" type="curve"/>
			<point x="270" y="500" type="line"/>
			<point x="70" y="500" type="line"/>
			<point x="70" y="40" type="line"/>
			<point x="70" y="-49"/>
			<point x="21" y="-82"/>
			<point x="-55" y="-89" type="curve"/>
		</contour>
	</outline>
</glyph>
<glyph name="alpha" format="2">
	<advance width="613"/>
	<unicode hex="0251"/>
	<outline>
		<contour>
			<point x="543" y="510" type="line"/>
			<point x="246" y="510"/>
			<point x="35" y="422"/>
			<point x="35" y="210" type="curve"/>
			<point x="35" y="48"/>
			<point x="132" y="-10"/>
			<point x="208" y="-10" type="curve"/>
			<point x="280" y="-10"/>
			<point x="365" y="64"/>
			<point x="413" y="139" type="curve"/>
			<point x="404" y="219" type="line"/>
			<point x="357" y="165"/>
			<point x="329" y="140"/>
			<point x="288" y="140" type="curve"/>
			<point x="265" y="140"/>
			<point x="235" y="155"/>
			<point x="235" y="220" type="curve"/>
			<point x="235" y="282"/>
			<point x="308" y="360"/>
			<point x="543" y="360" type="curve"/>
		</contour>
		<contour>
			<point x="543" y="0" type="line"/>
			<point x="543" y="500" type="line"/>
			<point x="343" y="480" type="line"/>
			<point x="343" y="0" type="line"/>
		</contour>
	</outline>
</glyph>
<glyph name="eopen" format="2">
	<advance width="498"/>
	<unicode hex="025B"/>
	<outline>
		<contour>
			<point x="423" y="223" type="curve"/>
			<point x="423" y="281" type="line"/>
			<point x="301" y="281"/>
			<point x="259" y="302"/>
			<point x="259" y="324" type="curve"/>
			<point x="259" y="349"/>
			<point x="321" y="380"/>
			<point x="453" y="380" type="curve"/>
			<point x="453" y="510" type="line"/>
			<point x="208" y="510"/>
			<point x="50" y="427"/>
			<point x="50" y="340" type="curve"/>
			<point x="50" y="252"/>
			<point x="204" y="223"/>
		</contour>
		<contour>
			<point x="463" y="-10" type="curve"/>
			<point x="463" y="120" type="line"/>
			<point x="284" y="120"/>
			<point x="235" y="127"/>
			<point x="235" y="152" type="curve"/>
			<point x="235" y="176"/>
			<point x="253" y="221"/>
			<point x="423" y="221" type="curve"/>
			<point x="423" y="281" type="line"/>
			<point x="184" y="281"/>
			<point x="35" y="210"/>
			<point x="35" y="122" type="curve"/>
			<point x="35" y="34"/>
			<point x="169" y="-10"/>
		</contour>
	</outline>
</glyph>
<glyph name="gsmallcapital" format="2">
	<advance width="602"/>
	<unicode hex="0262"/>
	<outline>
		<contour>
			<point x="441" y="510" type="line"/>
			<point x="213" y="510"/>
			<point x="35" y="344"/>
			<point x="35" y="172" type="curve"/>
			<point x="35" y="53"/>
			<point x="118" y="-10"/>
			<point x="301" y="-10" type="curve"/>
			<point x="377" y="-10"/>
			<point x="463" y="4"/>
			<point x="532" y="29" type="curve"/>
			<point x="532" y="250" type="line"/>
			<point x="332" y="250" type="line"/>
			<point x="332" y="25" type="line"/>
			<point x="455" y="159" type="line"/>
			<point x="413" y="144"/>
			<point x="397" y="140"/>
			<point x="309" y="140" type="curve"/>
			<point x="270" y="140"/>
			<point x="235" y="170"/>
			<point x="235" y="208" type="curve"/>
			<point x="235" y="290"/>
			<point x="354" y="360"/>
			<point x="441" y="360" type="curve"/>
		</contour>
	</outline>
</glyph>
<glyph name="ismallcapital" format="2">
	<advance width="445"/>
	<unicode hex="026A"/>
	<outline>
		<contour>
			<point x="323" y="0" type="line"/>
			<point x="323" y="500" type="line"/>
			<point x="123" y="500" type="line"/>
			<point x="123" y="0" type="line"/>
		</contour>
		<contour>
			<point x="410" y="350" type="line"/>
			<point x="410" y="500" type="line"/>
			<point x="35" y="500" type="line"/>
			<point x="35" y="350" type="line"/>
		</contour>
		<contour>
			<point x="410" y="0" type="line"/>
			<point x="410" y="150" type="line"/>
			<point x="35" y="150" type="line"/>
			<point x="35" y="0" type="line"/>
		</contour>
	</outline>
</glyph>
<glyph name="nsmallcapital" format="2">
	<advance width="675"/>
	<unicode hex="0274"/>
	<outline>
		<contour>
			<point x="270" y="217" type="line"/>
			<point x="604" y="-14" type="line"/>
			<point x="605" y="-14" type="line"/>
			<point x="605" y="500" type="line"/>
			<point x="405" y="500" type="line"/>
			<point x="405" y="300" type="line"/>
			<point x="71" y="514" type="line"/>
			<point x="70" y="514" type="line"/>
			<point x="70" y="0" type="line"/>
			<point x="270" y="0" type="line"/>
		</contour>
	</outline>
</glyph>
<glyph name="rsmallcapital" format="2">
	<advance width="637"/>
	<unicode hex="0280"/>
	<outline>
		<contour>
			<point x="270" y="-2" type="line"/>
			<point x="270" y="500" type="line"/>
			<point x="70" y="500" type="line"/>
			<point x="70" y="-2" type="line"/>
		</contour>
		<contour>
			<point x="337" y="155" type="line"/>
			<point x="430" y="176"/>
			<point x="550" y="257"/>
			<point x="550" y="371" type="curve"/>
			<point x="550" y="469"/>
			<point x="383" y="510"/>
			<point x="70" y="510" type="curve"/>
			<point x="70" y="360" type="line"/>
			<point x="318" y="360"/>
			<point x="350" y="345"/>
			<point x="350" y="309" type="curve"/>
			<point x="350" y="276"/>
			<point x="335" y="238"/>
			<point x="254" y="212" type="curve"/>
			<point x="427" y="-7" type="line"/>
			<point x="602" y="98" type="line"/>
			<point x="407" y="261" type="line"/>
		</contour>
	</outline>
</glyph>
<glyph name="ysmallcapital" format="2">
	<advance width="693"/>
	<unicode hex="028F"/>
	<outline>
		<contour>
			<point x="446" y="0" type="line"/>
			<point x="446" y="258" type="line"/>
			<point x="246" y="258" type="line"/>
			<point x="246" y="0" type="line"/>
		</contour>
		<contour>
			<point x="346" y="76" type="line"/>
			<point x="658" y="403" type="line"/>
			<point x="502" y="514" type="line"/>
			<point x="342" y="330" type="line"/>
			<point x="350" y="330" type="line"/>
			<point x="190" y="514" type="line"/>
			<point x="35" y="405" type="line"/>
		</contour>
	</outline>
</glyph>
<glyph name="lsmallcapital" format="2">
	<advance width="474"/>
	<unicode hex="029F"/>
	<outline>
		<contour>
			<point x="70" y="0" type="line"/>
			<point x="439" y="0" type="line"/>
			<point x="439" y="150" type="line"/>
			<point x="270" y="150" type="line"/>
			<point x="270" y="500" type="line"/>
			<point x="70" y="500" type="line"/>
		</contour>
	</outline>
</glyph>
<glyph name="gravecomb" format="2">
	<advance width="0"/>
	<unicode hex="0300"/>
	<outline>
		<contour>
			<point x="280" y="595" type="line"/>
			<point x="150" y="813" type="line"/>
			<point x="35" y="716" type="line"/>
			<point x="227" y="550" type="line"/>
		</contour>
	</outline>
</glyph>
<glyph name="acutecomb" format="2">
	<advance width="0"/>
	<unicode hex="0301"/>
	<outline>
		<contour>
			<point x="36" y="595" type="line"/>
			<point x="89" y="550" type="line"/>
			<point x="281" y="716" type="line"/>
			<point x="166" y="813" type="line"/>
		</contour>
	</outline>
</glyph>
<glyph name="circumflexcomb" format="2">
	<advance width="0"/>
	<unicode hex="0302"/>
	<outline>
		<contour>
			<point x="362" y="567" type="line"/>
			<point x="432" y="664" type="line"/>
			<point x="234" y="774" type="line"/>
			<point x="233" y="774" type="line"/>
			<point x="35" y="664" type="line"/>
			<point x="105" y="567" type="line"/>
			<point x="240" y="665" type="line"/>
			<point x="227" y="665" type="line"/>
		</contour>
	</outline>
</glyph>
<glyph name="tildecomb" format="2">
	<advance width="0"/>
	<unicode hex="0303"/>
	<outline>
		<contour>
			<point x="35" y="641" type="curve"/>
			<point x="115" y="602" type="line"/>
			<point x="124" y="621"/>
			<point x="147" y="645"/>
			<point x="174" y="645" type="curve"/>
			<point x="221" y="645"/>
			<point x="253" y="589"/>
			<point x="308" y="589" type="curve"/>
			<point x="364" y="589"/>
			<point x="420" y="638"/>
			<point x="451" y="713" type="curve"/>
			<point x="372" y="745" type="line"/>
			<point x="363" y="722"/>
			<point x="337" y="695"/>
			<point x="307" y="695" type="curve"/>
			<point x="266" y="695"/>
			<point x="236" y="752"/>
			<point x="186" y="752" type="curve"/>
			<point x="136" y="752"/>
			<point x="84" y="715"/>
		</contour>
	</outline>
</glyph>
<glyph name="macroncomb" format="2">
	<advance width="0"/>
	<unicode hex="0304"/>
	<outline>
		<contour>
			<point x="402" y="610" type="line"/>
			<point x="402" y="730" type="line"/>
			<point x="35" y="730" type="line"/>
			<point x="35" y="610" type="line"/>
		</contour>
	</outline>
</glyph>
<glyph name="brevecomb" format="2">
	<advance width="0"/>
	<unicode hex="0306"/>
	<outline>
		<contour>
			<point x="388" y="774" type="line"/>
			<point x="358" y="718"/>
			<point x="310" y="676"/>
			<point x="260" y="676" type="curve"/>
			<point x="210" y="676"/>
			<point x="162" y="718"/>
			<point x="132" y="774" type="curve"/>
			<point x="35" y="714" type="line"/>
			<point x="85" y="623"/>
			<point x="152" y="567"/>
			<point x="260" y="567" type="curve"/>
			<point x="368" y="567"/>
			<point x="435" y="623"/>
			<point x="485" y="714" type="curve"/>
		</contour>
	</outline>
</glyph>
<glyph name="dotaccentcomb" format="2">
	<advance width="0"/>
	<unicode hex="0307"/>
	<outline>
		<contour>
			<point x="120" y="585" type="curve"/>
			<point x="170" y="585"/>
			<point x="205" y="627"/>
			<point x="205" y="679" type="curve"/>
			<point x="205" y="718"/>
			<point x="171" y="755"/>
			<point x="120" y="755" type="curve"/>
			<point x="70" y="755"/>
			<point x="35" y="713"/>
			<point x="35" y="661" type="curve"/>
			<point x="35" y="622"/>
			<point x="69" y="585"/>
		</contour>
	</outline>
</glyph>
<glyph name="dieresiscomb" format="2">
	<advance width="0"/>
	<unicode hex="0308"/>
	<outline>
		<contour>
			<point x="360" y="585" type="curve"/>
			<point x="410" y="585"/>
			<point x="445" y="627"/>
			<point x="445" y="679" type="curve"/>
			<point x="445" y="718"/>
			<point x="411" y="755"/>
			<point x="360" y="755" type="curve"/>
			<point x="310" y="755"/>
			<point x="275" y="713"/>
			<point x="275" y="661" type="curve"/>
			<point x="275" y="622"/>
			<point x="309" y="585"/>
		</contour>
		<contour>
			<point x="120" y="585" type="curve"/>
			<point x="170" y="585"/>
			<point x="205" y="627"/>
			<point x="205" y="679" type="curve"/>
			<point x="205" y="718"/>
			<point x="171" y="755"/>
			<point x="120" y="755" type="curve"/>
			<point x="70" y="755"/>
			<point x="35" y="713"/>
			<point x="35" y="661" type="curve"/>
			<point x="35" y="622"/>
			<point x="69" y="585"/>
		</contour>
	</outline>
</glyph>
<glyph name="hookcomb" format="2">
	<advance width="0"/>
	<unicode hex="0309"/>
	<outline>
		<contour>
			<point x="96" y="567" type="line"/>
			<point x="176" y="567" type="line"/>
			<point x="176" y="604" type="line"/>
			<point x="130" y="581" type="line"/>
			<point x="197" y="581"/>
			<point x="293" y="620"/>
			<point x="293" y="687" type="curve"/>
			<point x="293" y="767"/>
			<point x="125" y="816"/>
			<point x="38" y="822" type="curve"/>
			<point x="35" y="729" type="line"/>
			<point x="107" y="724"/>
			<point x="164" y="701"/>
			<point x="164" y="681" type="curve"/>
			<point x="164" y="665"/>
			<point x="156" y="645"/>
			<point x="96" y="645" type="curve"/>
		</contour>
	</outline>
</glyph>
<glyph name="ringcomb" format="2">
	<advance width="0"/>
	<unicode hex="030A"/>
	<outline>
		<contour>
			<point x="160" y="535" type="curve"/>
			<point x="233" y="535"/>
			<point x="285" y="597"/>
			<point x="285" y="674" type="curve"/>
			<point x="285" y="730"/>
			<point x="236" y="785"/>
			<point x="160" y="785" type="curve"/>
			<point x="87" y="785"/>
			<point x="35" y="723"/>
			<point x="35" y="646" type="curve"/>
			<point x="35" y="590"/>
			<point x="84" y="535"/>
		</contour>
		<contour>
			<point x="160" y="625" type="curve"/>
			<point x="139" y="625"/>
			<point x="125" y="640"/>
			<point x="125" y="656" type="curve"/>
			<point x="125" y="678"/>
			<point x="140" y="695"/>
			<point x="160" y="695" type="curve"/>
			<point x="181" y="695"/>
			<point x="195" y="680"/>
			<point x="195" y="664" type="curve"/>
			<point x="195" y="642"/>
			<point x="181" y="625"/>
		</contour>
	</outline>
</glyph>
<glyph name="doubleacutecomb" format="2">
	<advance width="0"/>
	<unicode hex="030B"/>
	<outline>
		<contour>
			<point x="265" y="584" type="line"/>
			<point x="318" y="539" type="line"/>
			<point x="503" y="711" type="line"/>
			<point x="402" y="796" type="line"/>
		</contour>
		<contour>
			<point x="35" y="584" type="line"/>
			<point x="88" y="539" type="line"/>
			<point x="273" y="711" type="line"/>
			<point x="172" y="796" type="line"/>
		</contour>
	</outline>
</glyph>
<glyph name="caroncomb" format="2">
	<advance width="0"/>
	<unicode hex="030C"/>
	<outline>
		<contour>
			<point x="362" y="774" type="line"/>
			<point x="227" y="676" type="line"/>
			<point x="240" y="676" type="line"/>
			<point x="105" y="774" type="line"/>
			<point x="35" y="677" type="line"/>
			<point x="233" y="567" type="line"/>
			<point x="234" y="567" type="line"/>
			<point x="432" y="677" type="line"/>
		</contour>
	</outline>
</glyph>
<glyph name="doublegravecomb" format="2">
	<advance width="0"/>
	<unicode hex="030F"/>
	<outline>
		<contour>
			<point x="273" y="584" type="line"/>
			<point x="136" y="796" type="line"/>
			<point x="35" y="711" type="line"/>
			<point x="220" y="539" type="line"/>
		</contour>
		<contour>
			<point x="503" y="584" type="line"/>
			<point x="366" y="796" type="line"/>
			<point x="265" y="711" type="line"/>
			<point x="450" y="539" type="line"/>
		</contour>
	</outline>
</glyph>
<glyph name="horncomb" format="2">
	<advance width="0"/>
	<unicode hex="031B"/>
	<outline>
		<contour>
			<point x="0" y="500" type="line"/>
			<point x="0" y="380" type="line"/>
			<point x="43" y="380" type="line"/>
			<point x="142" y="380"/>
			<point x="250" y="462"/>
			<point x="258" y="590" type="curve"/>
			<point x="145" y="605" type="line"/>
			<point x="139" y="548"/>
			<point x="97" y="500"/>
			<point x="37" y="500" type="curve"/>
		</contour>
	</outline>
</glyph>
<glyph name="dotbelowcomb" format="2">
	<advance width="0"/>
	<unicode hex="0323"/>
	<outline>
		<contour>
			<point x="120" y="-255" type="curve"/>
			<point x="170" y="-255"/>
			<point x="205" y="-213"/>
			<point x="205" y="-161" type="curve"/>
			<point x="205" y="-122"/>
			<point x="171" y="-85"/>
			<point x="120" y="-85" type="curve"/>
			<point x="70" y="-85"/>
			<point x="35" y="-127"/>
			<point x="35" y="-179" type="curve"/>
			<point x="35" y="-218"/>
			<point x="69" y="-255"/>
		</contour>
	</outline>
</glyph>
<glyph name="commaaccentcomb" format="2">
	<advance width="0"/>
	<unicode hex="0326"/>
	<outline>
		<contour>
			<point x="35" y="-282" type="line"/>
			<point x="101" y="-306" type="line"/>
			<point x="204" y="-109" type="line"/>
			<point x="82" y="-66" type="line"/>
		</contour>
	</outline>
</glyph>
<glyph name="cedillacomb" format="2">
	<advance width="0"/>
	<unicode hex="0327"/>
	<outline>
		<contour>
			<point x="71" y="10" type="line"/>
			<point x="48" y="-108" type="line"/>
			<point x="103" y="-108"/>
			<point x="131" y="-108"/>
			<point x="131" y="-124" type="curve"/>
			<point x="131" y="-144"/>
			<point x="92" y="-156"/>
			<point x="35" y="-162" type="curve"/>
			<point x="50" y="-235" type="line"/>
			<point x="110" y="-228"/>
			<point x="230" y="-210"/>
			<point x="230" y="-130" type="curve"/>
			<point x="230" y="-63"/>
			<point x="134" y="-44"/>
			<point x="67" y="-44" type="curve"/>
			<point x="113" y="-67" type="line"/>
			<point x="131" y="10" type="line"/>
		</contour>
	</outline>
</glyph>
<glyph name="ogonekcomb" format="2">
	<advance width="0"/>
	<unicode hex="0328"/>
	<outline>
		<contour>
			<point x="203" y="0" type="curve"/>
			<point x="150" y="35" type="line"/>
			<point x="74" y="-24"/>
			<point x="35" y="-53"/>
			<point x="35" y="-110" type="curve"/>
			<point x="35" y="-190"/>
			<point x="155" y="-208"/>
			<point x="215" y="-215" type="curve"/>
			<point x="230" y="-142" type="line"/>
			<point x="173" y="-136"/>
			<point x="135" y="-124"/>
			<point x="135" y="-104" type="curve"/>
			<point x="135" y="-78"/>
			<point x="139" y="-58"/>
		</contour>
	</outline>
</glyph>
<glyph name="strokelongcomb" format="2">
	<advance width="530"/>
	<unicode hex="0336"/>
	<outline>
		<contour>
			<point x="35" y="190" type="line"/>
			<point x="495" y="190" type="line"/>
			<point x="495" y="310" type="line"/>
			<point x="35" y="310" type="line"/>
		</contour>
	</outline>
</glyph>
<glyph name="greekanoteleia" format="2">
	<advance width="340"/>
	<unicode hex="0387"/>
	<outline>
		<contour>
			<point x="170" y="250" type="curve"/>
			<point x="229" y="250"/>
			<point x="270" y="299"/>
			<point x="270" y="361" type="curve"/>
			<point x="270" y="406"/>
			<point x="231" y="450"/>
			<point x="170" y="450" type="curve"/>
			<point x="111" y="450"/>
			<point x="70" y="401"/>
			<point x="70" y="339" type="curve"/>
			<point x="70" y="294"/>
			<point x="109" y="250"/>
		</contour>
	</outline>
</glyph>
<glyph name="Xi-grek" format="2">
	<advance width="651"/>
	<unicode hex="039E"/>
	<outline>
		<contour>
			<point x="587" y="550" type="line"/>
			<point x="587" y="700" type="line"/>
			<point x="64" y="700" type="line"/>
			<point x="64" y="550" type="line"/>
		</contour>
		<contour>
			<point x="616" y="0" type="line"/>
			<point x="616" y="150" type="line"/>
			<point x="35" y="150" type="line"/>
			<point x="35" y="0" type="line"/>
		</contour>
		<contour>
			<point x="572" y="276" type="line"/>
			<point x="572" y="426" type="line"/>
			<point x="79" y="426" type="line"/>
			<point x="79" y="276" type="line"/>
		</contour>
	</outline>
</glyph>
<glyph name="Sigma-grek" format="2">
	<advance width="676"/>
	<unicode hex="03A3"/>
	<outline>
		<contour>
			<point x="586" y="358" type="line"/>
			<point x="586" y="360" type="line"/>
			<point x="376" y="538" type="line"/>
			<point x="376" y="534" type="line"/>
			<point x="641" y="572" type="line"/>
			<point x="624" y="719" type="line"/>
			<point x="35" y="614" type="line"/>
			<point x="35" y="613" type="line"/>
			<point x="361" y="354" type="line"/>
			<point x="361" y="364" type="line"/>
			<point x="35" y="106" type="line"/>
			<point x="35" y="105" type="line"/>
			<point x="624" y="-1" type="line"/>
			<point x="641" y="146" type="line"/>
			<point x="376" y="185" type="line"/>
			<point x="376" y="181" type="line"/>
		</contour>
	</outline>
</glyph>
<glyph name="Psi-grek" format="2">
	<advance width="940"/>
	<unicode hex="03A8"/>
	<outline>
		<contour>
			<point x="570" y="0" type="line"/>
			<point x="570" y="700" type="line"/>
			<point x="370" y="700" type="line"/>
			<point x="370" y="0" type="line"/>
		</contour>
		<contour>
			<point x="518" y="140" type="line"/>
			<point x="736" y="140"/>
			<point x="870" y="253"/>
			<point x="870" y="463" type="curve"/>
			<point x="870" y="700" type="line"/>
			<point x="670" y="700" type="line"/>
			<point x="670" y="463" type="line"/>
			<point x="670" y="361"/>
			<point x="598" y="290"/>
			<point x="518" y="290" type="curve"/>
		</contour>
		<contour>
			<point x="70" y="463" type="line"/>
			<point x="70" y="272"/>
			<point x="202" y="140"/>
			<point x="398" y="140" type="curve"/>
			<point x="398" y="290" type="line"/>
			<point x="340" y="290"/>
			<point x="270" y="351"/>
			<point x="270" y="463" type="curve"/>
			<point x="270" y="700" type="line"/>
			<point x="70" y="700" type="line"/>
		</contour>
	</outline>
</glyph>
<glyph name="Omega-grek" format="2">
	<advance width="940"/>
	<unicode hex="03A9"/>
	<outline>
		<contour>
			<point x="670" y="0" type="line"/>
			<point x="810" y="127"/>
			<point x="850" y="236"/>
			<point x="850" y="410" type="curve"/>
			<point x="850" y="542"/>
			<point x="723" y="710"/>
			<point x="470" y="710" type="curve"/>
			<point x="239" y="710"/>
			<point x="90" y="559"/>
			<point x="90" y="350" type="curve"/>
			<point x="90" y="248"/>
			<point x="151" y="130"/>
			<point x="292" y="0" type="curve"/>
			<point x="282" y="141" type="line"/>
			<point x="35" y="140" type="line"/>
			<point x="35" y="0" type="line"/>
			<point x="429" y="0" type="line"/>
			<point x="328" y="93"/>
			<point x="290" y="212"/>
			<point x="290" y="307" type="curve"/>
			<point x="290" y="432"/>
			<point x="348" y="560"/>
			<point x="470" y="560" type="curve"/>
			<point x="591" y="560"/>
			<point x="650" y="449"/>
			<point x="650" y="353" type="curve"/>
			<point x="650" y="228"/>
			<point x="585" y="97"/>
			<point x="490" y="0" type="curve"/>
			<point x="905" y="0" type="line"/>
			<point x="905" y="140" type="line"/>
			<point x="700" y="140" type="line"/>
		</contour>
	</outline>
</glyph>
<glyph name="alpha-grek" format="2">
	<advance width="753"/>
	<unicode hex="03B1"/>
	<outline>
		<contour>
			<point x="308" y="-10" type="curve"/>
			<point x="318" y="140" type="line"/>
			<point x="276" y="140"/>
			<point x="235" y="192"/>
			<point x="235" y="231" type="curve"/>
			<point x="235" y="296"/>
			<point x="277" y="360"/>
			<point x="328" y="360" type="curve"/>
			<point x="328" y="510" type="line"/>
			<point x="164" y="510"/>
			<point x="35" y="374"/>
			<point x="35" y="221" type="curve"/>
			<point x="35" y="66"/>
			<point x="174" y="-10"/>
		</contour>
		<contour>
			<point x="328" y="510" type="curve"/>
			<point x="328" y="360" type="line"/>
			<point x="373" y="360"/>
			<point x="423" y="337"/>
			<point x="463" y="214" type="curve"/>
			<point x="531" y="-6" type="line"/>
			<point x="718" y="57" type="line"/>
			<point x="607" y="293" type="line"/>
			<point x="521" y="468"/>
			<point x="411" y="510"/>
		</contour>
		<contour>
			<point x="308" y="-10" type="line"/>
			<point x="391" y="-10"/>
			<point x="461" y="32"/>
			<point x="567" y="207" type="curve"/>
			<point x="711" y="431" type="line"/>
			<point x="551" y="510" type="line"/>
			<point x="466" y="286" type="line"/>
			<point x="423" y="163"/>
			<point x="373" y="140"/>
			<point x="318" y="140" type="curve"/>
		</contour>
	</outline>
</glyph>
<glyph name="beta-grek" format="2">
	<advance width="653"/>
	<unicode hex="03B2"/>
	<outline>
		<contour>
			<point x="270" y="-230" type="line"/>
			<point x="270" y="491" type="line"/>
			<point x="70" y="491" type="line"/>
			<point x="70" y="-230" type="line"/>
		</contour>
		<contour>
			<point x="310" y="330" type="line"/>
			<point x="449" y="330"/>
			<point x="583" y="456"/>
			<point x="583" y="577" type="curve"/>
			<point x="583" y="688"/>
			<point x="475" y="740"/>
			<point x="300" y="740" type="curve"/>
			<point x="320" y="610" type="line"/>
			<point x="362" y="610"/>
			<point x="384" y="562"/>
			<point x="384" y="527" type="curve"/>
			<point x="384" y="478"/>
			<point x="352" y="427"/>
			<point x="310" y="427" type="curve"/>
		</contour>
		<contour>
			<point x="70" y="-10" type="line"/>
			<point x="484" y="-10"/>
			<point x="618" y="92"/>
			<point x="618" y="234" type="curve"/>
			<point x="618" y="356"/>
			<point x="469" y="427"/>
			<point x="310" y="427" type="curve"/>
			<point x="310" y="327" type="line"/>
			<point x="400" y="327"/>
			<point x="418" y="283"/>
			<point x="418" y="239" type="curve"/>
			<point x="418" y="195"/>
			<point x="369" y="140"/>
			<point x="70" y="140" type="curve"/>
		</contour>
		<contour>
			<point x="270" y="491" type="line"/>
			<point x="270" y="573"/>
			<point x="280" y="610"/>
			<point x="320" y="610" type="curve"/>
			<point x="300" y="740" type="line"/>
			<point x="127" y="740"/>
			<point x="70" y="644"/>
			<point x="70" y="491" type="curve"/>
		</contour>
	</outline>
</glyph>
<glyph name="gamma-grek" format="2">
	<advance width="698"/>
	<unicode hex="03B3"/>
	<outline>
		<contour>
			<point x="350" y="168" type="line"/>
			<point x="222" y="510" type="line"/>
			<point x="35" y="449" type="line"/>
			<point x="348" y="-184" type="line"/>
			<point x="350" y="-184" type="line"/>
			<point x="663" y="449" type="line"/>
			<point x="476" y="510" type="line"/>
			<point x="348" y="168" type="line"/>
		</contour>
		<contour>
			<point x="449" y="-230" type="line"/>
			<point x="449" y="110" type="line"/>
			<point x="249" y="110" type="line"/>
			<point x="249" y="-230" type="line"/>
		</contour>
	</outline>
</glyph>
<glyph name="delta-grek" format="2">
	<advance width="628"/>
	<unicode hex="03B4"/>
	<outline>
		<contour>
			<point x="229" y="680" type="curve"/>
			<point x="229" y="580" type="line"/>
			<point x="564" y="580" type="line"/>
			<point x="565" y="730" type="line"/>
			<point x="56" y="730" type="line"/>
			<point x="56" y="729" type="line"/>
			<point x="306" y="475"/>
			<point x="393" y="344"/>
			<point x="393" y="239" type="curve"/>
			<point x="393" y="177"/>
			<point x="367" y="140"/>
			<point x="321" y="140" type="curve"/>
			<point x="275" y="140"/>
			<point x="234" y="170"/>
			<point x="234" y="226" type="curve"/>
			<point x="234" y="302"/>
			<point x="278" y="380"/>
			<point x="426" y="380" type="curve"/>
			<point x="426" y="510" type="line"/>
			<point x="172" y="510"/>
			<point x="35" y="359"/>
			<point x="35" y="216" type="curve"/>
			<point x="35" y="79"/>
			<point x="159" y="-10"/>
			<point x="311" y="-10" type="curve"/>
			<point x="462" y="-10"/>
			<point x="593" y="105"/>
			<point x="593" y="249" type="curve"/>
			<point x="593" y="393"/>
			<point x="392" y="591"/>
		</contour>
	</outline>
</glyph>
<glyph name="zeta-grek" format="2">
	<advance width="563"/>
	<unicode hex="03B6"/>
	<outline>
		<contour>
			<point x="339" y="680" type="line"/>
			<point x="186" y="591"/>
			<point x="35" y="383"/>
			<point x="35" y="239" type="curve"/>
			<point x="35" y="95"/>
			<point x="156" y="-10"/>
			<point x="337" y="-10" type="curve"/>
			<point x="337" y="140" type="line"/>
			<point x="261" y="140"/>
			<point x="235" y="177"/>
			<point x="235" y="239" type="curve"/>
			<point x="235" y="344"/>
			<point x="272" y="475"/>
			<point x="522" y="729" type="curve"/>
			<point x="522" y="730" type="line"/>
			<point x="43" y="730" type="line"/>
			<point x="43" y="580" type="line"/>
			<point x="339" y="580" type="line"/>
		</contour>
		<contour>
			<point x="471" y="-193" type="line"/>
			<point x="524" y="143" type="line"/>
			<point x="463" y="141"/>
			<point x="403" y="140"/>
			<point x="337" y="140" type="curve"/>
			<point x="337" y="-10" type="line"/>
			<point x="354" y="-10"/>
			<point x="373" y="-9"/>
			<point x="388" y="-7" type="curve"/>
			<point x="364" y="93" type="line"/>
			<point x="324" y="-170" type="line"/>
		</contour>
	</outline>
</glyph>
<glyph name="theta-grek" format="2">
	<advance width="634"/>
	<unicode hex="03B8"/>
	<outline>
		<contour>
			<point x="317" y="-10" type="curve"/>
			<point x="482" y="-10"/>
			<point x="599" y="173"/>
			<point x="599" y="401" type="curve"/>
			<point x="599" y="568"/>
			<point x="488" y="730"/>
			<point x="317" y="730" type="curve"/>
			<point x="152" y="730"/>
			<point x="35" y="547"/>
			<point x="35" y="319" type="curve"/>
			<point x="35" y="152"/>
			<point x="146" y="-10"/>
		</contour>
		<contour>
			<point x="317" y="140" type="curve"/>
			<point x="267" y="140"/>
			<point x="235" y="236"/>
			<point x="235" y="336" type="curve"/>
			<point x="235" y="471"/>
			<point x="269" y="580"/>
			<point x="317" y="580" type="curve"/>
			<point x="367" y="580"/>
			<point x="399" y="484"/>
			<point x="399" y="384" type="curve"/>
			<point x="399" y="249"/>
			<point x="365" y="140"/>
		</contour>
		<contour>
			<point x="485" y="420" type="line"/>
			<point x="155" y="420" type="line"/>
			<point x="155" y="310" type="line"/>
			<point x="485" y="310" type="line"/>
		</contour>
	</outline>
</glyph>
<glyph name="lamda-grek" format="2">
	<advance width="692"/>
	<unicode hex="03BB"/>
	<outline>
		<contour>
			<point x="420" y="493" type="line"/>
			<point x="273" y="564" type="line"/>
			<point x="35" y="56" type="line"/>
			<point x="222" y="-5" type="line"/>
		</contour>
		<contour>
			<point x="349" y="741" type="line"/>
			<point x="172" y="670" type="line"/>
			<point x="247" y="506" type="line"/>
			<point x="283" y="493" type="line"/>
			<point x="480" y="-5" type="line"/>
			<point x="657" y="56" type="line"/>
			<point x="455" y="506" type="line"/>
		</contour>
	</outline>
</glyph>
<glyph name="xi-grek" format="2">
	<advance width="539"/>
	<unicode hex="03BE"/>
	<outline>
		<contour>
			<point x="443" y="330" type="curve"/>
			<point x="443" y="447" type="line"/>
			<point x="301" y="447"/>
			<point x="269" y="458"/>
			<point x="269" y="487" type="curve"/>
			<point x="270" y="522"/>
			<point x="321" y="590"/>
			<point x="473" y="590" type="curve"/>
			<point x="473" y="740" type="line"/>
			<point x="208" y="740"/>
			<point x="70" y="618"/>
			<point x="70" y="497" type="curve"/>
			<point x="70" y="376"/>
			<point x="204" y="330"/>
		</contour>
		<contour>
			<point x="317" y="-10" type="curve"/>
			<point x="317" y="140" type="line"/>
			<point x="284" y="140"/>
			<point x="235" y="150"/>
			<point x="235" y="184" type="curve"/>
			<point x="235" y="218"/>
			<point x="253" y="327"/>
			<point x="443" y="327" type="curve"/>
			<point x="443" y="447" type="line"/>
			<point x="184" y="447"/>
			<point x="35" y="296"/>
			<point x="35" y="164" type="curve"/>
			<point x="35" y="22"/>
			<point x="169" y="-10"/>
		</contour>
		<contour>
			<point x="451" y="-193" type="line"/>
			<point x="504" y="143" type="line"/>
			<point x="443" y="141"/>
			<point x="383" y="140"/>
			<point x="317" y="140" type="curve"/>
			<point x="317" y="-10" type="line"/>
			<point x="334" y="-10"/>
			<point x="353" y="-9"/>
			<point x="368" y="-7" type="curve"/>
			<point x="344" y="93" type="line"/>
			<point x="304" y="-170" type="line"/>
		</contour>
	</outline>
</glyph>
<glyph name="rho-grek" format="2">
	<advance width="634"/>
	<unicode hex="03C1"/>
	<outline>
		<contour>
			<point x="502" y="-10"/>
			<point x="599" y="119"/>
			<point x="599" y="279" type="curve"/>
			<point x="599" y="396"/>
			<point x="488" y="510"/>
			<point x="317" y="510" type="curve"/>
			<point x="152" y="510"/>
			<point x="35" y="381"/>
			<point x="35" y="221" type="curve"/>
			<point x="135" y="184" type="line"/>
			<point x="135" y="104"/>
			<point x="204" y="-10"/>
			<point x="337" y="-10" type="curve"/>
		</contour>
		<contour>
			<point x="317" y="140" type="curve"/>
			<point x="267" y="140"/>
			<point x="235" y="188"/>
			<point x="235" y="238" type="curve"/>
			<point x="235" y="306"/>
			<point x="269" y="360"/>
			<point x="317" y="360" type="curve"/>
			<point x="367" y="360"/>
			<point x="399" y="312"/>
			<point x="399" y="262" type="curve"/>
			<point x="399" y="194"/>
			<point x="365" y="140"/>
		</contour>
		<contour>
			<point x="235" y="-230" type="line"/>
			<point x="235" y="238" type="line"/>
			<point x="35" y="221" type="line"/>
			<point x="35" y="-230" type="line"/>
		</contour>
	</outline>
</glyph>
<glyph name="finalsigma-grek" format="2">
	<advance width="498"/>
	<unicode hex="03C2"/>
	<outline>
		<contour>
			<point x="441" y="510" type="line"/>
			<point x="213" y="510"/>
			<point x="35" y="344"/>
			<point x="35" y="172" type="curve"/>
			<point x="35" y="53"/>
			<point x="125" y="-10"/>
			<point x="289" y="-10" type="curve"/>
			<point x="289" y="140" type="line"/>
			<point x="260" y="140"/>
			<point x="235" y="170"/>
			<point x="235" y="204" type="curve"/>
			<point x="235" y="290"/>
			<point x="354" y="360"/>
			<point x="441" y="360" type="curve"/>
		</contour>
		<contour>
			<point x="423" y="-193" type="line"/>
			<point x="476" y="143" type="line"/>
			<point x="415" y="141"/>
			<point x="355" y="140"/>
			<point x="289" y="140" type="curve"/>
			<point x="289" y="-10" type="line"/>
			<point x="306" y="-10"/>
			<point x="325" y="-9"/>
			<point x="340" y="-7" type="curve"/>
			<point x="316" y="93" type="line"/>
			<point x="276" y="-170" type="line"/>
		</contour>
	</outline>
</glyph>
<glyph name="sigma-grek" format="2">
	<advance width="720"/>
	<unicode hex="03C3"/>
	<outline>
		<contour>
			<point x="317" y="-10" type="curve"/>
			<point x="482" y="-10"/>
			<point x="599" y="119"/>
			<point x="599" y="279" type="curve"/>
			<point x="599" y="396"/>
			<point x="488" y="510"/>
			<point x="317" y="510" type="curve"/>
			<point x="152" y="510"/>
			<point x="35" y="381"/>
			<point x="35" y="221" type="curve"/>
			<point x="35" y="104"/>
			<point x="146" y="-10"/>
		</contour>
		<contour>
			<point x="317" y="140" type="curve"/>
			<point x="267" y="140"/>
			<point x="235" y="188"/>
			<point x="235" y="238" type="curve"/>
			<point x="235" y="306"/>
			<point x="269" y="360"/>
			<point x="317" y="360" type="curve"/>
			<point x="367" y="360"/>
			<point x="399" y="312"/>
			<point x="399" y="262" type="curve"/>
			<point x="399" y="194"/>
			<point x="365" y="140"/>
		</contour>
		<contour>
			<point x="685" y="500" type="line"/>
			<point x="345" y="500" type="line"/>
			<point x="345" y="380" type="line"/>
			<point x="685" y="350" type="line"/>
		</contour>
	</outline>
</glyph>
<glyph name="phi-grek" format="2">
	<advance width="820"/>
	<unicode hex="03C6"/>
	<outline>
		<contour>
			<point x="507" y="-230" type="line"/>
			<point x="507" y="470" type="line"/>
			<point x="307" y="500" type="line"/>
			<point x="307" y="-230" type="line"/>
		</contour>
		<contour>
			<point x="507" y="-30" type="curve"/>
			<point x="507" y="120" type="line"/>
			<point x="266" y="120"/>
			<point x="235" y="179"/>
			<point x="235" y="248" type="curve"/>
			<point x="235" y="313"/>
			<point x="244" y="351"/>
			<point x="287" y="430" type="curve"/>
			<point x="127" y="510" type="line"/>
			<point x="58" y="399"/>
			<point x="35" y="344"/>
			<point x="35" y="231" type="curve"/>
			<point x="35" y="98"/>
			<point x="144" y="-30"/>
		</contour>
		<contour>
			<point x="307" y="-30" type="line"/>
			<point x="654" y="-30"/>
			<point x="785" y="112"/>
			<point x="785" y="270" type="curve"/>
			<point x="784" y="406"/>
			<point x="619" y="510"/>
			<point x="307" y="510" type="curve"/>
			<point x="307" y="370" type="line"/>
			<point x="538" y="370"/>
			<point x="584" y="299"/>
			<point x="584" y="250" type="curve"/>
			<point x="584" y="189"/>
			<point x="525" y="121"/>
			<point x="307" y="121" type="curve"/>
		</contour>
	</outline>
</glyph>
<glyph name="chi-grek" format="2">
	<advance width="686"/>
	<unicode hex="03C7"/>
	<outline>
		<contour>
			<point x="641" y="415" type="line"/>
			<point x="484" y="506" type="line"/>
			<point x="35" y="-146" type="line"/>
			<point x="192" y="-236" type="line"/>
		</contour>
		<contour>
			<point x="45" y="415" type="line"/>
			<point x="494" y="-236" type="line"/>
			<point x="651" y="-146" type="line"/>
			<point x="202" y="506" type="line"/>
		</contour>
	</outline>
</glyph>
<glyph name="psi-grek" format="2">
	<advance width="940"/>
	<unicode hex="03C8"/>
	<outline>
		<contour>
			<point x="570" y="-230" type="line"/>
			<point x="570" y="600" type="line"/>
			<point x="370" y="600" type="line"/>
			<point x="370" y="-230" type="line"/>
		</contour>
		<contour>
			<point x="518" y="-10" type="line"/>
			<point x="736" y="-10"/>
			<point x="870" y="103"/>
			<point x="870" y="313" type="curve"/>
			<point x="870" y="500" type="line"/>
			<point x="670" y="500" type="line"/>
			<point x="670" y="313" type="line"/>
			<point x="670" y="211"/>
			<point x="598" y="140"/>
			<point x="518" y="140" type="curve"/>
		</contour>
		<contour>
			<point x="70" y="313" type="line"/>
			<point x="70" y="122"/>
			<point x="202" y="-10"/>
			<point x="398" y="-10" type="curve"/>
			<point x="398" y="140" type="line"/>
			<point x="340" y="140"/>
			<point x="270" y="201"/>
			<point x="270" y="313" type="curve"/>
			<point x="270" y="500" type="line"/>
			<point x="70" y="500" type="line"/>
		</contour>
	</outline>
</glyph>
<glyph name="omega-grek" format="2">
	<advance width="892"/>
	<unicode hex="03C9"/>
	<outline>
		<contour>
			<point x="35" y="215" type="curve"/>
			<point x="35" y="90"/>
			<point x="97" y="-10"/>
			<point x="259" y="-10" type="curve"/>
			<point x="391" y="-10"/>
			<point x="511" y="145"/>
			<point x="511" y="375" type="curve"/>
			<point x="361" y="375" type="line"/>
			<point x="361" y="164"/>
			<point x="329" y="142"/>
			<point x="289" y="142" type="curve"/>
			<point x="259" y="142"/>
			<point x="235" y="178"/>
			<point x="235" y="255" type="curve"/>
			<point x="235" y="340"/>
			<point x="249" y="381"/>
			<point x="288" y="456" type="curve"/>
			<point x="105" y="507" type="line"/>
			<point x="66" y="426"/>
			<point x="35" y="371"/>
		</contour>
		<contour>
			<point x="837" y="215" type="curve"/>
			<point x="837" y="371"/>
			<point x="806" y="426"/>
			<point x="767" y="507" type="curve"/>
			<point x="584" y="456" type="line"/>
			<point x="623" y="381"/>
			<point x="637" y="340"/>
			<point x="637" y="255" type="curve"/>
			<point x="637" y="178"/>
			<point x="613" y="142"/>
			<point x="583" y="142" type="curve"/>
			<point x="543" y="142"/>
			<point x="511" y="164"/>
			<point x="511" y="375" type="curve"/>
			<point x="361" y="375" type="line"/>
			<point x="361" y="145"/>
			<point x="481" y="-10"/>
			<point x="613" y="-10" type="curve"/>
			<point x="775" y="-10"/>
			<point x="837" y="90"/>
		</contour>
	</outline>
</glyph>
<glyph name="thetasymbol-grek" format="2">
	<advance width="700"/>
	<unicode hex="03D1"/>
	<outline>
		<contour>
			<point x="317" y="-10" type="curve"/>
			<point x="482" y="-10"/>
			<point x="599" y="169"/>
			<point x="599" y="401" type="curve"/>
			<point x="599" y="560"/>
			<point x="496" y="730"/>
			<point x="317" y="730" type="curve"/>
			<point x="153" y="730"/>
			<point x="41" y="555"/>
			<point x="35" y="340" type="curve"/>
			<point x="235" y="340" type="line"/>
			<point x="235" y="467"/>
			<point x="267" y="580"/>
			<point x="317" y="580" type="curve"/>
			<point x="369" y="580"/>
			<point x="399" y="483"/>
			<point x="399" y="384" type="curve"/>
			<point x="399" y="254"/>
			<point x="367" y="140"/>
			<point x="317" y="140" type="curve"/>
			<point x="274" y="140"/>
			<point x="246" y="208"/>
			<point x="238" y="287" type="curve"/>
			<point x="41" y="251" type="line"/>
			<point x="66" y="118"/>
			<point x="163" y="-10"/>
		</contour>
		<contour>
			<point x="665" y="340" type="line"/>
			<point x="665" y="450" type="line"/>
			<point x="155" y="450" type="line"/>
			<point x="155" y="340" type="line"/>
		</contour>
	</outline>
</glyph>
<glyph name="pisymbol-grek" format="2">
	<advance width="942"/>
	<unicode hex="03D6"/>
	<outline>
		<contour>
			<point x="70" y="205" type="curve"/>
			<point x="70" y="80"/>
			<point x="132" y="-10"/>
			<point x="294" y="-10" type="curve"/>
			<point x="426" y="-10"/>
			<point x="546" y="145"/>
			<point x="546" y="275" type="curve"/>
			<point x="396" y="275" type="line"/>
			<point x="396" y="164"/>
			<point x="364" y="142"/>
			<point x="324" y="142" type="curve"/>
			<point x="294" y="142"/>
			<point x="270" y="178"/>
			<point x="270" y="255" type="curve"/>
			<point x="270" y="330"/>
			<point x="314" y="381"/>
			<point x="433" y="456" type="curve"/>
			<point x="247" y="500" type="line"/>
			<point x="161" y="426"/>
			<point x="70" y="321"/>
		</contour>
		<contour>
			<point x="872" y="205" type="curve"/>
			<point x="872" y="321"/>
			<point x="781" y="426"/>
			<point x="695" y="500" type="curve"/>
			<point x="509" y="456" type="line"/>
			<point x="628" y="381"/>
			<point x="672" y="330"/>
			<point x="672" y="255" type="curve"/>
			<point x="672" y="178"/>
			<point x="648" y="142"/>
			<point x="618" y="142" type="curve"/>
			<point x="578" y="142"/>
			<point x="546" y="164"/>
			<point x="546" y="275" type="curve"/>
			<point x="396" y="275" type="line"/>
			<point x="396" y="145"/>
			<point x="516" y="-10"/>
			<point x="648" y="-10" type="curve"/>
			<point x="810" y="-10"/>
			<point x="872" y="80"/>
		</contour>
		<contour>
			<point x="907" y="350" type="line"/>
			<point x="907" y="500" type="line"/>
			<point x="35" y="500" type="line"/>
			<point x="35" y="350" type="line"/>
		</contour>
	</outline>
</glyph>
<glyph name="kappasymbol-grek" format="2">
	<advance width="675"/>
	<unicode hex="03F0"/>
	<outline>
		<contour>
			<point x="52" y="510" type="curve"/>
			<point x="-3" y="360" type="line"/>
			<point x="57" y="333"/>
			<point x="70" y="299"/>
			<point x="70" y="207" type="curve"/>
			<point x="270" y="357" type="line"/>
			<point x="270" y="415"/>
			<point x="178" y="500"/>
		</contour>
		<contour>
			<point x="623" y="-10" type="curve"/>
			<point x="678" y="140" type="line"/>
			<point x="618" y="167"/>
			<point x="605" y="201"/>
			<point x="605" y="293" type="curve"/>
			<point x="405" y="143" type="line"/>
			<point x="405" y="85"/>
			<point x="497" y="0"/>
		</contour>
		<contour>
			<point x="405" y="217" type="line"/>
			<point x="405" y="143" type="line"/>
			<point x="605" y="293" type="line"/>
			<point x="605" y="514" type="line"/>
			<point x="604" y="514" type="line"/>
			<point x="270" y="300" type="line"/>
			<point x="270" y="357" type="line"/>
			<point x="70" y="207" type="line"/>
			<point x="70" y="-14" type="line"/>
			<point x="71" y="-14" type="line"/>
		</contour>
	</outline>
</glyph>
<glyph name="Ghe-cyrl" format="2">
	<advance width="521"/>
	<unicode hex="0413"/>
	<outline>
		<contour>
			<point x="70" y="700" type="line"/>
			<point x="70" y="0" type="line"/>
			<point x="270" y="0" type="line"/>
			<point x="270" y="550" type="line"/>
			<point x="486" y="550" type="line"/>
			<point x="486" y="700" type="line"/>
		</contour>
	</outline>
</glyph>
<glyph name="De-cyrl" format="2">
	<advance width="817"/>
	<unicode hex="0414"/>
	<outline>
		<contour>
			<point x="696" y="700" type="line"/>
			<point x="280" y="700" type="line"/>
			<point x="280" y="550" type="line"/>
			<point x="496" y="550" type="line"/>
			<point x="496" y="0" type="line"/>
			<point x="696" y="0" type="line"/>
		</contour>
		<contour>
			<point x="235" y="0" type="line"/>
			<point x="582" y="0" type="line"/>
			<point x="582" y="-150" type="line"/>
			<point x="782" y="-150" type="line"/>
			<point x="782" y="150" type="line"/>
			<point x="35" y="150" type="line"/>
			<point x="35" y="-150" type="line"/>
			<point x="235" y="-150" type="line"/>
		</contour>
		<contour>
			<point x="279" y="4" type="line"/>
			<point x="366" y="275"/>
			<point x="392" y="438"/>
			<point x="420" y="700" type="curve"/>
			<point x="220" y="700" type="line"/>
			<point x="192" y="446"/>
			<point x="168" y="283"/>
			<point x="83" y="15" type="curve"/>
		</contour>
	</outline>
</glyph>
<glyph name="Zhe-cyrl" format="2">
	<advance width="1028"/>
	<unicode hex="0416"/>
	<outline>
		<contour>
			<point x="614" y="0" type="line"/>
			<point x="614" y="700" type="line"/>
			<point x="414" y="700" type="line"/>
			<point x="414" y="0" type="line"/>
		</contour>
		<contour>
			<point x="564" y="344" type="line"/>
			<point x="830" y="0" type="line"/>
			<point x="993" y="126" type="line"/>
			<point x="765" y="346" type="line"/>
			<point x="970" y="570" type="line"/>
			<point x="794" y="700" type="line"/>
		</contour>
		<contour>
			<point x="464" y="344" type="line"/>
			<point x="234" y="700" type="line"/>
			<point x="58" y="570" type="line"/>
			<point x="273" y="346" type="line"/>
			<point x="35" y="126" type="line"/>
			<point x="198" y="0" type="line"/>
		</contour>
	</outline>
</glyph>
<glyph name="Ze-cyrl" format="2">
	<advance width="528"/>
	<unicode hex="0417"/>
	<outline>
		<contour>
			<point x="85" y="300" type="line"/>
			<point x="324" y="300"/>
			<point x="458" y="436"/>
			<point x="458" y="557" type="curve"/>
			<point x="458" y="678"/>
			<point x="320" y="710"/>
			<point x="55" y="710" type="curve"/>
			<point x="55" y="560" type="line"/>
			<point x="207" y="560"/>
			<point x="258" y="542"/>
			<point x="259" y="507" type="curve"/>
			<point x="259" y="478"/>
			<point x="227" y="417"/>
			<point x="85" y="417" type="curve"/>
		</contour>
		<contour>
			<point x="35" y="-10" type="line"/>
			<point x="359" y="-10"/>
			<point x="493" y="92"/>
			<point x="493" y="214" type="curve"/>
			<point x="493" y="336"/>
			<point x="344" y="417"/>
			<point x="85" y="417" type="curve"/>
			<point x="85" y="297" type="line"/>
			<point x="275" y="297"/>
			<point x="293" y="258"/>
			<point x="293" y="224" type="curve"/>
			<point x="293" y="190"/>
			<point x="244" y="140"/>
			<point x="35" y="140" type="curve"/>
		</contour>
	</outline>
</glyph>
<glyph name="Pe-cyrl" format="2">
	<advance width="931"/>
	<unicode hex="041F"/>
	<outline>
		<contour>
			<point x="351" y="550" type="line"/>
			<point x="580" y="550" type="line"/>
			<point x="580" y="0" type="line"/>
			<point x="780" y="0" type="line"/>
			<point x="780" y="550" type="line"/>
			<point x="896" y="550" type="line"/>
			<point x="896" y="700" type="line"/>
			<point x="35" y="700" type="line"/>
			<point x="35" y="550" type="line"/>
			<point x="151" y="550" type="line"/>
			<point x="151" y="0" type="line"/>
			<point x="351" y="0" type="line"/>
		</contour>
	</outline>
</glyph>
<glyph name="U-cyrl" format="2">
	<advance width="746"/>
	<unicode hex="0423"/>
	<outline>
		<contour>
			<point x="376" y="-8" type="line"/>
			<point x="711" y="649" type="line"/>
			<point x="534" y="707" type="line"/>
			<point x="313" y="251" type="line"/>
			<point x="284" y="238" type="line"/>
			<point x="199" y="63" type="line"/>
		</contour>
		<contour>
			<point x="294" y="162" type="line"/>
			<point x="453" y="230" type="line"/>
			<point x="222" y="707" type="line"/>
			<point x="35" y="649" type="line"/>
		</contour>
	</outline>
</glyph>
<glyph name="Ef-cyrl" format="2">
	<advance width="850"/>
	<unicode hex="0424"/>
	<outline>
		<contour>
			<point x="525" y="0" type="line"/>
			<point x="525" y="700" type="line"/>
			<point x="325" y="700" type="line"/>
			<point x="325" y="0" type="line"/>
		</contour>
		<contour>
			<point x="515" y="90" type="line"/>
			<point x="690" y="90"/>
			<point x="815" y="216"/>
			<point x="815" y="379" type="curve"/>
			<point x="815" y="494"/>
			<point x="700" y="610"/>
			<point x="515" y="610" type="curve"/>
			<point x="515" y="460" type="line"/>
			<point x="578" y="460"/>
			<point x="615" y="410"/>
			<point x="615" y="362" type="curve"/>
			<point x="615" y="296"/>
			<point x="576" y="240"/>
			<point x="515" y="240" type="curve"/>
		</contour>
		<contour>
			<point x="335" y="90" type="curve"/>
			<point x="335" y="240" type="line"/>
			<point x="272" y="240"/>
			<point x="235" y="290"/>
			<point x="235" y="338" type="curve"/>
			<point x="235" y="404"/>
			<point x="274" y="460"/>
			<point x="335" y="460" type="curve"/>
			<point x="335" y="610" type="line"/>
			<point x="160" y="610"/>
			<point x="35" y="484"/>
			<point x="35" y="321" type="curve"/>
			<point x="35" y="206"/>
			<point x="150" y="90"/>
		</contour>
	</outline>
</glyph>
<glyph name="Che-cyrl" format="2">
	<advance width="780"/>
	<unicode hex="0427"/>
	<outline>
		<contour>
			<point x="70" y="463" type="line"/>
			<point x="70" y="292"/>
			<point x="182" y="180"/>
			<point x="338" y="180" type="curve"/>
			<point x="446" y="180"/>
			<point x="511" y="193"/>
			<point x="540" y="213" type="curve"/>
			<point x="540" y="356" type="line"/>
			<point x="512" y="339"/>
			<point x="448" y="330"/>
			<point x="398" y="330" type="curve"/>
			<point x="340" y="330"/>
			<point x="270" y="371"/>
			<point x="270" y="463" type="curve"/>
			<point x="270" y="700" type="line"/>
			<point x="70" y="700" type="line"/>
		</contour>
		<contour>
			<point x="710" y="0" type="line"/>
			<point x="710" y="700" type="line"/>
			<point x="510" y="700" type="line"/>
			<point x="510" y="0" type="line"/>
		</contour>
	</outline>
</glyph>
<glyph name="Sha-cyrl" format="2">
	<advance width="1110"/>
	<unicode hex="0428"/>
	<outline>
		<contour>
			<point x="1040" y="0" type="line"/>
			<point x="1040" y="700" type="line"/>
			<point x="840" y="700" type="line"/>
			<point x="840" y="150" type="line"/>
			<point x="655" y="150" type="line"/>
			<point x="655" y="700" type="line"/>
			<point x="455" y="700" type="line"/>
			<point x="455" y="150" type="line"/>
			<point x="270" y="150" type="line"/>
			<point x="270" y="700" type="line"/>
			<point x="70" y="700" type="line"/>
			<point x="70" y="0" type="line"/>
		</contour>
	</outline>
</glyph>
<glyph name="Signsoft-cyrl" format="2">
	<advance width="619"/>
	<unicode hex="042C"/>
	<outline>
		<contour>
			<point x="70" y="-10" type="line"/>
			<point x="390" y="-10"/>
			<point x="584" y="161"/>
			<point x="584" y="319" type="curve"/>
			<point x="584" y="475"/>
			<point x="375" y="533"/>
			<point x="70" y="533" type="curve"/>
			<point x="70" y="383" type="line"/>
			<point x="326" y="383"/>
			<point x="384" y="359"/>
			<point x="384" y="289" type="curve"/>
			<point x="384" y="187"/>
			<point x="250" y="140"/>
			<point x="70" y="140" type="curve"/>
		</contour>
		<contour>
			<point x="270" y="30" type="line"/>
			<point x="270" y="700" type="line"/>
			<point x="70" y="700" type="line"/>
			<point x="70" y="0" type="line"/>
		</contour>
	</outline>
</glyph>
<glyph name="E-cyrl" format="2">
	<advance width="653"/>
	<unicode hex="042D"/>
	<outline>
		<contour>
			<point x="65" y="710" type="curve"/>
			<point x="65" y="560" type="line"/>
			<point x="207" y="560"/>
			<point x="418" y="490"/>
			<point x="418" y="342" type="curve"/>
			<point x="418" y="194"/>
			<point x="295" y="140"/>
			<point x="237" y="140" type="curve"/>
			<point x="175" y="140"/>
			<point x="100" y="147"/>
			<point x="62" y="165" type="curve"/>
			<point x="35" y="16" type="line"/>
			<point x="94" y="-4"/>
			<point x="159" y="-10"/>
			<point x="250" y="-10" type="curve"/>
			<point x="399" y="-10"/>
			<point x="618" y="107"/>
			<point x="618" y="342" type="curve"/>
			<point x="618" y="580"/>
			<point x="380" y="710"/>
		</contour>
		<contour>
			<point x="481" y="415" type="line"/>
			<point x="135" y="415" type="line"/>
			<point x="135" y="265" type="line"/>
			<point x="481" y="265" type="line"/>
		</contour>
	</outline>
</glyph>
<glyph name="Yu-cyrl" format="2">
	<advance width="1041"/>
	<unicode hex="042E"/>
	<outline>
		<contour>
			<point x="270" y="436" type="line"/>
			<point x="270" y="700" type="line"/>
			<point x="70" y="700" type="line"/>
			<point x="70" y="0" type="line"/>
			<point x="270" y="0" type="line"/>
			<point x="270" y="286" type="line"/>
			<point x="468" y="286" type="line"/>
			<point x="468" y="436" type="line"/>
		</contour>
		<contour>
			<point x="681" y="-10" type="curve"/>
			<point x="871" y="-10"/>
			<point x="1006" y="168"/>
			<point x="1006" y="390" type="curve"/>
			<point x="1006" y="552"/>
			<point x="878" y="710"/>
			<point x="681" y="710" type="curve"/>
			<point x="491" y="710"/>
			<point x="356" y="532"/>
			<point x="356" y="310" type="curve"/>
			<point x="356" y="148"/>
			<point x="484" y="-10"/>
		</contour>
		<contour>
			<point x="681" y="140" type="curve"/>
			<point x="605" y="140"/>
			<point x="556" y="232"/>
			<point x="556" y="327" type="curve"/>
			<point x="556" y="456"/>
			<point x="608" y="560"/>
			<point x="681" y="560" type="curve"/>
			<point x="757" y="560"/>
			<point x="806" y="468"/>
			<point x="806" y="373" type="curve"/>
			<point x="806" y="244"/>
			<point x="754" y="140"/>
		</contour>
	</outline>
</glyph>
<glyph name="be-cyrl" format="2">
	<advance width="634"/>
	<unicode hex="0431"/>
	<outline>
		<contour>
			<point x="317" y="-10" type="curve"/>
			<point x="482" y="-10"/>
			<point x="599" y="119"/>
			<point x="599" y="279" type="curve"/>
			<point x="599" y="396"/>
			<point x="508" y="510"/>
			<point x="367" y="510" type="curve"/>
			<point x="242" y="510"/>
			<point x="135" y="381"/>
			<point x="135" y="269" type="curve"/>
			<point x="35" y="221" type="line"/>
			<point x="35" y="104"/>
			<point x="146" y="-10"/>
		</contour>
		<contour>
			<point x="317" y="140" type="curve"/>
			<point x="267" y="140"/>
			<point x="235" y="188"/>
			<point x="235" y="238" type="curve"/>
			<point x="235" y="306"/>
			<point x="269" y="360"/>
			<point x="317" y="360" type="curve"/>
			<point x="367" y="360"/>
			<point x="399" y="312"/>
			<point x="399" y="262" type="curve"/>
			<point x="399" y="194"/>
			<point x="365" y="140"/>
		</contour>
		<contour>
			<point x="476" y="740" type="line"/>
			<point x="167" y="712"/>
			<point x="35" y="589"/>
			<point x="35" y="337" type="curve"/>
			<point x="35" y="221" type="line"/>
			<point x="195" y="238" type="line"/>
			<point x="195" y="337" type="line"/>
			<point x="195" y="501"/>
			<point x="258" y="557"/>
			<point x="500" y="580" type="curve"/>
		</contour>
	</outline>
</glyph>
<glyph name="ve-cyrl" format="2">
	<advance width="603"/>
	<unicode hex="0432"/>
	<outline>
		<contour>
			<point x="270" y="10" type="line"/>
			<point x="270" y="490" type="line"/>
			<point x="70" y="500" type="line"/>
			<point x="70" y="0" type="line"/>
		</contour>
		<contour>
			<point x="70" y="223" type="line"/>
			<point x="399" y="223"/>
			<point x="553" y="282"/>
			<point x="553" y="370" type="curve"/>
			<point x="553" y="457"/>
			<point x="395" y="510"/>
			<point x="70" y="510" type="curve"/>
			<point x="70" y="380" type="line"/>
			<point x="282" y="380"/>
			<point x="343" y="359"/>
			<point x="344" y="334" type="curve"/>
			<point x="344" y="312"/>
			<point x="302" y="281"/>
			<point x="70" y="281" type="curve"/>
		</contour>
		<contour>
			<point x="70" y="-10" type="line"/>
			<point x="434" y="-10"/>
			<point x="568" y="74"/>
			<point x="568" y="162" type="curve"/>
			<point x="568" y="250"/>
			<point x="419" y="281"/>
			<point x="70" y="281" type="curve"/>
			<point x="70" y="221" type="line"/>
			<point x="350" y="221"/>
			<point x="368" y="206"/>
			<point x="368" y="182" type="curve"/>
			<point x="368" y="157"/>
			<point x="319" y="120"/>
			<point x="70" y="120" type="curve"/>
		</contour>
	</outline>
</glyph>
<glyph name="ghe-cyrl" format="2">
	<advance width="474"/>
	<unicode hex="0433"/>
	<outline>
		<contour>
			<point x="70" y="500" type="line"/>
			<point x="70" y="0" type="line"/>
			<point x="270" y="0" type="line"/>
			<point x="270" y="350" type="line"/>
			<point x="439" y="350" type="line"/>
			<point x="439" y="500" type="line"/>
		</contour>
	</outline>
</glyph>
<glyph name="de-cyrl" format="2">
	<advance width="767"/>
	<unicode hex="0434"/>
	<outline>
		<contour>
			<point x="638" y="500" type="line"/>
			<point x="284" y="500" type="line"/>
			<point x="284" y="350" type="line"/>
			<point x="438" y="350" type="line"/>
			<point x="438" y="0" type="line"/>
			<point x="638" y="0" type="line"/>
		</contour>
		<contour>
			<point x="235" y="0" type="line"/>
			<point x="532" y="0" type="line"/>
			<point x="532" y="-150" type="line"/>
			<point x="732" y="-150" type="line"/>
			<point x="732" y="150" type="line"/>
			<point x="35" y="150" type="line"/>
			<point x="35" y="-150" type="line"/>
			<point x="235" y="-150" type="line"/>
		</contour>
		<contour>
			<point x="280" y="3" type="line"/>
			<point x="343" y="196"/>
			<point x="361" y="313"/>
			<point x="381" y="500" type="curve"/>
			<point x="181" y="500" type="line"/>
			<point x="161" y="319"/>
			<point x="144" y="202"/>
			<point x="83" y="11" type="curve"/>
		</contour>
	</outline>
</glyph>
<glyph name="zhe-cyrl" format="2">
	<advance width="823"/>
	<unicode hex="0436"/>
	<outline>
		<contour>
			<point x="511" y="0" type="line"/>
			<point x="511" y="500" type="line"/>
			<point x="311" y="500" type="line"/>
			<point x="311" y="0" type="line"/>
		</contour>
		<contour>
			<point x="472" y="246" type="line"/>
			<point x="654" y="0" type="line"/>
			<point x="788" y="125" type="line"/>
			<point x="644" y="253" type="line"/>
			<point x="644" y="240" type="line"/>
			<point x="775" y="376" type="line"/>
			<point x="641" y="500" type="line"/>
		</contour>
		<contour>
			<point x="351" y="246" type="line"/>
			<point x="182" y="500" type="line"/>
			<point x="48" y="376" type="line"/>
			<point x="179" y="240" type="line"/>
			<point x="179" y="253" type="line"/>
			<point x="35" y="125" type="line"/>
			<point x="169" y="0" type="line"/>
		</contour>
	</outline>
</glyph>
<glyph name="ze-cyrl" format="2">
	<advance width="468"/>
	<unicode hex="0437"/>
	<outline>
		<contour>
			<point x="65" y="223" type="line"/>
			<point x="264" y="223"/>
			<point x="418" y="282"/>
			<point x="418" y="370" type="curve"/>
			<point x="418" y="457"/>
			<point x="260" y="510"/>
			<point x="45" y="510" type="curve"/>
			<point x="45" y="380" type="line"/>
			<point x="147" y="380"/>
			<point x="208" y="359"/>
			<point x="209" y="334" type="curve"/>
			<point x="209" y="312"/>
			<point x="167" y="281"/>
			<point x="65" y="281" type="curve"/>
		</contour>
		<contour>
			<point x="35" y="-10" type="line"/>
			<point x="299" y="-10"/>
			<point x="433" y="74"/>
			<point x="433" y="162" type="curve"/>
			<point x="433" y="250"/>
			<point x="284" y="281"/>
			<point x="65" y="281" type="curve"/>
			<point x="65" y="221" type="line"/>
			<point x="215" y="221"/>
			<point x="233" y="206"/>
			<point x="233" y="182" type="curve"/>
			<point x="233" y="157"/>
			<point x="184" y="120"/>
			<point x="35" y="120" type="curve"/>
		</contour>
	</outline>
</glyph>
<glyph name="em-cyrl" format="2">
	<advance width="783"/>
	<unicode hex="043C"/>
	<outline>
		<contour>
			<point x="391" y="86" type="line"/>
			<point x="392" y="86" type="line"/>
			<point x="575" y="264" type="line"/>
			<point x="510" y="264" type="line"/>
			<point x="548" y="-4" type="line"/>
			<point x="748" y="44" type="line"/>
			<point x="641" y="522" type="line"/>
			<point x="640" y="522" type="line"/>
			<point x="387" y="270" type="line"/>
			<point x="396" y="270" type="line"/>
			<point x="143" y="522" type="line"/>
			<point x="142" y="522" type="line"/>
			<point x="35" y="44" type="line"/>
			<point x="235" y="-4" type="line"/>
			<point x="273" y="264" type="line"/>
			<point x="209" y="264" type="line"/>
		</contour>
	</outline>
</glyph>
<glyph name="en-cyrl" format="2">
	<advance width="688"/>
	<unicode hex="043D"/>
	<outline>
		<contour>
			<point x="270" y="190" type="line"/>
			<point x="418" y="190" type="line"/>
			<point x="418" y="0" type="line"/>
			<point x="618" y="0" type="line"/>
			<point x="618" y="500" type="line"/>
			<point x="418" y="500" type="line"/>
			<point x="418" y="340" type="line"/>
			<point x="270" y="340" type="line"/>
			<point x="270" y="500" type="line"/>
			<point x="70" y="500" type="line"/>
			<point x="70" y="0" type="line"/>
			<point x="270" y="0" type="line"/>
		</contour>
	</outline>
</glyph>
<glyph name="pe-cyrl" format="2">
	<advance width="775"/>
	<unicode hex="043F"/>
	<outline>
		<contour>
			<point x="312" y="350" type="line"/>
			<point x="433" y="350" type="line"/>
			<point x="433" y="0" type="line"/>
			<point x="633" y="0" type="line"/>
			<point x="633" y="350" type="line"/>
			<point x="710" y="350" type="line"/>
			<point x="710" y="500" type="line"/>
			<point x="35" y="500" type="line"/>
			<point x="35" y="350" type="line"/>
			<point x="112" y="350" type="line"/>
			<point x="112" y="0" type="line"/>
			<point x="312" y="0" type="line"/>
		</contour>
	</outline>
</glyph>
<glyph name="te-cyrl" format="2">
	<advance width="605"/>
	<unicode hex="0442"/>
	<outline>
		<contour>
			<point x="203" y="350" type="line"/>
			<point x="203" y="0" type="line"/>
			<point x="403" y="0" type="line"/>
			<point x="403" y="350" type="line"/>
			<point x="570" y="350" type="line"/>
			<point x="570" y="500" type="line"/>
			<point x="35" y="500" type="line"/>
			<point x="35" y="350" type="line"/>
		</contour>
	</outline>
</glyph>
<glyph name="ef-cyrl" format="2">
	<advance width="814"/>
	<unicode hex="0444"/>
	<outline>
		<contour>
			<point x="507" y="-230" type="line"/>
			<point x="507" y="700" type="line"/>
			<point x="307" y="700" type="line"/>
			<point x="307" y="-230" type="line"/>
		</contour>
		<contour>
			<point x="317" y="-10" type="curve"/>
			<point x="317" y="140" type="line"/>
			<point x="266" y="140"/>
			<point x="235" y="189"/>
			<point x="235" y="238" type="curve"/>
			<point x="235" y="303"/>
			<point x="267" y="360"/>
			<point x="317" y="360" type="curve"/>
			<point x="317" y="510" type="line"/>
			<point x="144" y="510"/>
			<point x="35" y="374"/>
			<point x="35" y="221" type="curve"/>
			<point x="35" y="106"/>
			<point x="144" y="-10"/>
		</contour>
		<contour>
			<point x="497" y="-10" type="line"/>
			<point x="670" y="-10"/>
			<point x="779" y="126"/>
			<point x="779" y="279" type="curve"/>
			<point x="779" y="394"/>
			<point x="670" y="510"/>
			<point x="497" y="510" type="curve"/>
			<point x="497" y="360" type="line"/>
			<point x="548" y="360"/>
			<point x="579" y="311"/>
			<point x="579" y="262" type="curve"/>
			<point x="579" y="197"/>
			<point x="547" y="140"/>
			<point x="497" y="140" type="curve"/>
		</contour>
	</outline>
</glyph>
<glyph name="che-cyrl" format="2">
	<advance width="684"/>
	<unicode hex="0447"/>
	<outline>
		<contour>
			<point x="70" y="331" type="line"/>
			<point x="70" y="189"/>
			<point x="180" y="119"/>
			<point x="291" y="119" type="curve"/>
			<point x="368" y="119"/>
			<point x="415" y="128"/>
			<point x="436" y="142" type="curve"/>
			<point x="436" y="267" type="line"/>
			<point x="416" y="255"/>
			<point x="380" y="249"/>
			<point x="344" y="249" type="curve"/>
			<point x="303" y="249"/>
			<point x="270" y="265"/>
			<point x="270" y="331" type="curve"/>
			<point x="270" y="500" type="line"/>
			<point x="70" y="500" type="line"/>
		</contour>
		<contour>
			<point x="614" y="0" type="line"/>
			<point x="614" y="500" type="line"/>
			<point x="414" y="500" type="line"/>
			<point x="414" y="0" type="line"/>
		</contour>
	</outline>
</glyph>
<glyph name="signsoft-cyrl" format="2">
	<advance width="598"/>
	<unicode hex="044C"/>
	<outline>
		<contour>
			<point x="70" y="-10" type="line"/>
			<point x="439" y="-10"/>
			<point x="563" y="113"/>
			<point x="563" y="246" type="curve"/>
			<point x="563" y="359"/>
			<point x="375" y="410"/>
			<point x="70" y="410" type="curve"/>
			<point x="70" y="260" type="line"/>
			<point x="316" y="260"/>
			<point x="363" y="235"/>
			<point x="363" y="215" type="curve"/>
			<point x="363" y="182"/>
			<point x="290" y="140"/>
			<point x="70" y="140" type="curve"/>
		</contour>
		<contour>
			<point x="270" y="22" type="line"/>
			<point x="270" y="500" type="line"/>
			<point x="70" y="500" type="line"/>
			<point x="70" y="0" type="line"/>
		</contour>
	</outline>
</glyph>
<glyph name="e-cyrl" format="2">
	<advance width="517"/>
	<unicode hex="044D"/>
	<outline>
		<contour>
			<point x="57" y="510" type="curve"/>
			<point x="57" y="360" type="line"/>
			<point x="159" y="360"/>
			<point x="282" y="331"/>
			<point x="282" y="244" type="curve"/>
			<point x="282" y="158"/>
			<point x="213" y="140"/>
			<point x="171" y="140" type="curve"/>
			<point x="127" y="140"/>
			<point x="85" y="147"/>
			<point x="54" y="158" type="curve"/>
			<point x="35" y="9" type="line"/>
			<point x="78" y="-6"/>
			<point x="124" y="-10"/>
			<point x="190" y="-10" type="curve"/>
			<point x="308" y="-10"/>
			<point x="482" y="75"/>
			<point x="482" y="244" type="curve"/>
			<point x="482" y="416"/>
			<point x="294" y="510"/>
		</contour>
		<contour>
			<point x="327" y="291" type="line"/>
			<point x="87" y="291" type="line"/>
			<point x="87" y="201" type="line"/>
			<point x="327" y="201" type="line"/>
		</contour>
	</outline>
</glyph>
<glyph name="yu-cyrl" format="2">
	<advance width="862"/>
	<unicode hex="044E"/>
	<outline>
		<contour>
			<point x="567" y="-10" type="curve"/>
			<point x="719" y="-10"/>
			<point x="827" y="119"/>
			<point x="827" y="279" type="curve"/>
			<point x="827" y="396"/>
			<point x="725" y="510"/>
			<point x="567" y="510" type="curve"/>
			<point x="415" y="510"/>
			<point x="307" y="381"/>
			<point x="307" y="221" type="curve"/>
			<point x="307" y="104"/>
			<point x="410" y="-10"/>
		</contour>
		<contour>
			<point x="567" y="140" type="curve"/>
			<point x="531" y="140"/>
			<point x="507" y="188"/>
			<point x="507" y="238" type="curve"/>
			<point x="507" y="306"/>
			<point x="532" y="360"/>
			<point x="567" y="360" type="curve"/>
			<point x="603" y="360"/>
			<point x="627" y="312"/>
			<point x="627" y="262" type="curve"/>
			<point x="627" y="194"/>
			<point x="602" y="140"/>
		</contour>
		<contour>
			<point x="270" y="336" type="line"/>
			<point x="270" y="500" type="line"/>
			<point x="70" y="500" type="line"/>
			<point x="70" y="0" type="line"/>
			<point x="270" y="0" type="line"/>
			<point x="270" y="186" type="line"/>
			<point x="388" y="186" type="line"/>
			<point x="388" y="336" type="line"/>
		</contour>
	</outline>
</glyph>
<glyph name="asmallcapital" format="2">
	<advance width="698"/>
	<unicode hex="1D00"/>
	<outline>
		<contour>
			<point x="350" y="275" type="line"/>
			<point x="348" y="275" type="line"/>
			<point x="476" y="-7" type="line"/>
			<point x="663" y="64" type="line"/>
			<point x="350" y="527" type="line"/>
			<point x="348" y="527" type="line"/>
			<point x="35" y="64" type="line"/>
			<point x="222" y="-7" type="line"/>
		</contour>
		<contour>
			<point x="125" y="73" type="line"/>
			<point x="579" y="73" type="line"/>
			<point x="499" y="173" type="line"/>
			<point x="205" y="173" type="line"/>
		</contour>
	</outline>
</glyph>
<glyph name="dsmallcapital" format="2">
	<advance width="640"/>
	<unicode hex="1D05"/>
	<outline>
		<contour>
			<point x="270" y="22" type="line"/>
			<point x="270" y="496" type="line"/>
			<point x="70" y="503" type="line"/>
			<point x="70" y="-3" type="line"/>
		</contour>
		<contour>
			<point x="70" y="-10" type="line"/>
			<point x="345" y="-10"/>
			<point x="605" y="127"/>
			<point x="605" y="299" type="curve"/>
			<point x="605" y="469"/>
			<point x="329" y="510"/>
			<point x="70" y="510" type="curve"/>
			<point x="70" y="360" type="line"/>
			<point x="299" y="360"/>
			<point x="405" y="335"/>
			<point x="405" y="279" type="curve"/>
			<point x="405" y="188"/>
			<point x="264" y="140"/>
			<point x="70" y="140" type="curve"/>
		</contour>
	</outline>
</glyph>
<glyph name="esmallcapital" format="2">
	<advance width="495"/>
	<unicode hex="1D07"/>
	<outline>
		<contour>
			<point x="270" y="296" type="line"/>
			<point x="270" y="350" type="line"/>
			<point x="439" y="350" type="line"/>
			<point x="439" y="500" type="line"/>
			<point x="70" y="500" type="line"/>
			<point x="70" y="0" type="line"/>
			<point x="460" y="0" type="line"/>
			<point x="460" y="150" type="line"/>
			<point x="270" y="150" type="line"/>
			<point x="270" y="206" type="line"/>
			<point x="429" y="206" type="line"/>
			<point x="429" y="296" type="line"/>
		</contour>
	</outline>
</glyph>
<glyph name="jsmallcapital" format="2">
	<advance width="420"/>
	<unicode hex="1D0A"/>
	<outline>
		<contour>
			<point x="79" y="-10" type="line"/>
			<point x="218" y="18"/>
			<point x="350" y="91"/>
			<point x="350" y="263" type="curve"/>
			<point x="350" y="500" type="line"/>
			<point x="150" y="500" type="line"/>
			<point x="150" y="263" type="line"/>
			<point x="150" y="219"/>
			<point x="130" y="166"/>
			<point x="35" y="140" type="curve"/>
		</contour>
	</outline>
</glyph>
<glyph name="psmallcapital" format="2">
	<advance width="586"/>
	<unicode hex="1D18"/>
	<outline>
		<contour>
			<point x="70" y="68" type="line"/>
			<point x="349" y="68"/>
			<point x="551" y="194"/>
			<point x="551" y="346" type="curve"/>
			<point x="551" y="478"/>
			<point x="339" y="510"/>
			<point x="70" y="510" type="curve"/>
			<point x="70" y="360" type="line"/>
			<point x="294" y="360"/>
			<point x="351" y="345"/>
			<point x="351" y="315" type="curve"/>
			<point x="351" y="262"/>
			<point x="249" y="218"/>
			<point x="70" y="218" type="curve"/>
		</contour>
		<contour>
			<point x="270" y="0" type="line"/>
			<point x="270" y="496" type="line"/>
			<point x="70" y="503" type="line"/>
			<point x="70" y="0" type="line"/>
		</contour>
	</outline>
</glyph>
<glyph name="usmallcapital" format="2">
	<advance width="686"/>
	<unicode hex="1D1C"/>
	<outline>
		<contour>
			<point x="70" y="232" type="line"/>
			<point x="70" y="85"/>
			<point x="174" y="-10"/>
			<point x="334" y="-10" type="curve"/>
			<point x="490" y="-10"/>
			<point x="616" y="71"/>
			<point x="616" y="232" type="curve"/>
			<point x="616" y="500" type="line"/>
			<point x="416" y="500" type="line"/>
			<point x="416" y="252" type="line"/>
			<point x="416" y="179"/>
			<point x="392" y="140"/>
			<point x="334" y="140" type="curve"/>
			<point x="293" y="140"/>
			<point x="270" y="171"/>
			<point x="270" y="252" type="curve"/>
			<point x="270" y="500" type="line"/>
			<point x="70" y="500" type="line"/>
		</contour>
	</outline>
</glyph>
<glyph name="Germandbls" format="2">
	<advance width="729"/>
	<unicode hex="1E9E"/>
	<outline>
		<contour>
			<point x="450" y="465" type="curve"/>
			<point x="528" y="346" type="line"/>
			<point x="655" y="509" type="line"/>
			<point x="505" y="578" type="line"/>
			<point x="348" y="380" type="line"/>
			<point x="474" y="334"/>
			<point x="495" y="263"/>
			<point x="494" y="218" type="curve"/>
			<point x="494" y="168"/>
			<point x="437" y="144"/>
			<point x="340" y="144" type="curve"/>
			<point x="340" y="-6" type="line"/>
			<point x="526" y="-6"/>
			<point x="694" y="52"/>
			<point x="694" y="188" type="curve"/>
			<point x="694" y="290"/>
			<point x="590" y="391"/>
		</contour>
		<contour>
			<point x="270" y="0" type="line"/>
			<point x="270" y="451" type="line"/>
			<point x="70" y="451" type="line"/>
			<point x="70" y="0" type="line"/>
		</contour>
		<contour>
			<point x="655" y="509" type="line"/>
			<point x="632" y="641"/>
			<point x="525" y="710"/>
			<point x="360" y="710" type="curve"/>
			<point x="360" y="580" type="line"/>
			<point x="422" y="580"/>
			<point x="461" y="562"/>
			<point x="489" y="434" type="curve"/>
		</contour>
		<contour>
			<point x="270" y="451" type="line"/>
			<point x="270" y="543"/>
			<point x="300" y="580"/>
			<point x="360" y="580" type="curve"/>
			<point x="360" y="710" type="line"/>
			<point x="157" y="710"/>
			<point x="70" y="614"/>
			<point x="70" y="451" type="curve"/>
		</contour>
	</outline>
</glyph>
<glyph name="quoteleft" format="2">
	<advance width="323"/>
	<unicode hex="2018"/>
	<outline>
		<contour>
			<point x="288" y="425" type="line"/>
			<point x="195" y="710" type="line"/>
			<point x="35" y="652" type="line"/>
			<point x="147" y="373" type="line"/>
		</contour>
	</outline>
</glyph>
<glyph name="quoteright" format="2">
	<advance width="323"/>
	<unicode hex="2019"/>
	<outline>
		<contour>
			<point x="35" y="425" type="line"/>
			<point x="176" y="373" type="line"/>
			<point x="288" y="652" type="line"/>
			<point x="128" y="710" type="line"/>
		</contour>
	</outline>
</glyph>
<glyph name="bullet" format="2">
	<advance width="370"/>
	<unicode hex="2022"/>
	<outline>
		<contour>
			<point x="185" y="100" type="curve"/>
			<point x="273" y="100"/>
			<point x="335" y="174"/>
			<point x="335" y="267" type="curve"/>
			<point x="335" y="334"/>
			<point x="276" y="400"/>
			<point x="185" y="400" type="curve"/>
			<point x="97" y="400"/>
			<point x="35" y="326"/>
			<point x="35" y="233" type="curve"/>
			<point x="35" y="166"/>
			<point x="94" y="100"/>
		</contour>
	</outline>
</glyph>
<glyph name="guilsinglleft" format="2">
	<advance width="289"/>
	<unicode hex="2039"/>
	<outline>
		<contour>
			<point x="254" y="100" type="line"/>
			<point x="144" y="257" type="line"/>
			<point x="144" y="244" type="line"/>
			<point x="254" y="400" type="line"/>
			<point x="157" y="470" type="line"/>
			<point x="35" y="251" type="line"/>
			<point x="35" y="250" type="line"/>
			<point x="157" y="30" type="line"/>
		</contour>
	</outline>
</glyph>
<glyph name="fraction" format="2">
	<advance width="540"/>
	<unicode hex="2044"/>
	<unicode hex="2215"/>
	<outline>
		<contour>
			<point x="115" y="-53" type="line"/>
			<point x="540" y="685" type="line"/>
			<point x="426" y="752" type="line"/>
			<point x="0" y="12" type="line"/>
		</contour>
	</outline>
</glyph>
<glyph name="zeroinferior" format="2">
	<advance width="342"/>
	<unicode hex="2080"/>
	<outline>
		<contour>
			<point x="173" y="-110" type="curve"/>
			<point x="261" y="-110"/>
			<point x="323" y="-6"/>
			<point x="323" y="123" type="curve"/>
			<point x="323" y="218"/>
			<point x="264" y="310"/>
			<point x="173" y="310" type="curve"/>
			<point x="85" y="310"/>
			<point x="23" y="206"/>
			<point x="23" y="77" type="curve"/>
			<point x="23" y="-18"/>
			<point x="82" y="-110"/>
		</contour>
		<contour>
			<point x="173" y="6" type="curve"/>
			<point x="153" y="6"/>
			<point x="141" y="47"/>
			<point x="141" y="89" type="curve"/>
			<point x="141" y="148"/>
			<point x="154" y="196"/>
			<point x="173" y="196" type="curve"/>
			<point x="193" y="196"/>
			<point x="206" y="154"/>
			<point x="206" y="111" type="curve"/>
			<point x="206" y="52"/>
			<point x="192" y="6"/>
		</contour>
	</outline>
</glyph>
<glyph name="oneinferior" format="2">
	<advance width="342"/>
	<unicode hex="2081"/>
	<outline>
		<contour>
			<point x="292" y="-100" type="line"/>
			<point x="292" y="320" type="line"/>
			<point x="291" y="320" type="line"/>
			<point x="16" y="168" type="line"/>
			<point x="70" y="64" type="line"/>
			<point x="257" y="171" type="line"/>
			<point x="137" y="171" type="line"/>
			<point x="137" y="-100" type="line"/>
		</contour>
	</outline>
</glyph>
<glyph name="twoinferior" format="2">
	<advance width="342"/>
	<unicode hex="2082"/>
	<outline>
		<contour>
			<point x="152" y="-100" type="line"/>
			<point x="242" y="9"/>
			<point x="308" y="71"/>
			<point x="308" y="170" type="curve"/>
			<point x="308" y="270"/>
			<point x="169" y="310"/>
			<point x="48" y="310" type="curve"/>
			<point x="48" y="208" type="line"/>
			<point x="117" y="208"/>
			<point x="153" y="179"/>
			<point x="153" y="132" type="curve"/>
			<point x="153" y="80"/>
			<point x="138" y="23"/>
			<point x="25" y="-99" type="curve"/>
			<point x="25" y="-100" type="line"/>
			<point x="325" y="-100" type="line"/>
			<point x="325" y="15" type="line"/>
			<point x="170" y="15" type="line"/>
		</contour>
	</outline>
</glyph>
<glyph name="threeinferior" format="2">
	<advance width="342"/>
	<unicode hex="2083"/>
	<outline>
		<contour>
			<point x="205" y="98" type="line"/>
			<point x="252" y="114"/>
			<point x="288" y="153"/>
			<point x="288" y="215" type="curve"/>
			<point x="288" y="289"/>
			<point x="160" y="310"/>
			<point x="46" y="310" type="curve"/>
			<point x="46" y="195" type="line"/>
			<point x="105" y="195"/>
			<point x="133" y="183"/>
			<point x="133" y="165" type="curve"/>
			<point x="133" y="147"/>
			<point x="122" y="132"/>
			<point x="79" y="128" type="curve"/>
			<point x="79" y="85" type="line"/>
			<point x="128" y="78"/>
			<point x="146" y="68"/>
			<point x="146" y="51" type="curve"/>
			<point x="146" y="29"/>
			<point x="118" y="5"/>
			<point x="34" y="5" type="curve"/>
			<point x="34" y="-110" type="line"/>
			<point x="166" y="-110"/>
			<point x="301" y="-80"/>
			<point x="301" y="20" type="curve"/>
			<point x="301" y="88"/>
			<point x="245" y="112"/>
			<point x="205" y="120" type="curve"/>
		</contour>
	</outline>
</glyph>
<glyph name="fourinferior" format="2">
	<advance width="342"/>
	<unicode hex="2084"/>
	<outline>
		<contour>
			<point x="185" y="123" type="line"/>
			<point x="185" y="-13" type="line"/>
			<point x="133" y="-13" type="line"/>
			<point x="133" y="-100" type="line"/>
			<point x="288" y="-100" type="line"/>
			<point x="288" y="300" type="line"/>
			<point x="230" y="300" type="line"/>
			<point x="14" y="9" type="line"/>
			<point x="14" y="-43" type="line"/>
			<point x="327" y="-43" type="line"/>
			<point x="327" y="72" type="line"/>
			<point x="233" y="72" type="line"/>
			<point x="233" y="31" type="line"/>
			<point x="122" y="31" type="line"/>
		</contour>
	</outline>
</glyph>
<glyph name="fiveinferior" format="2">
	<advance width="342"/>
	<unicode hex="2085"/>
	<outline>
		<contour>
			<point x="309" y="195" type="line"/>
			<point x="309" y="310" type="line"/>
			<point x="60" y="310" type="line"/>
			<point x="55" y="94" type="line"/>
			<point x="137" y="94"/>
			<point x="155" y="88"/>
			<point x="155" y="70" type="curve"/>
			<point x="155" y="47"/>
			<point x="121" y="34"/>
			<point x="25" y="25" type="curve"/>
			<point x="39" y="-100" type="line"/>
			<point x="141" y="-97"/>
			<point x="310" y="-59"/>
			<point x="310" y="71" type="curve"/>
			<point x="310" y="134"/>
			<point x="238" y="167"/>
			<point x="167" y="167" type="curve"/>
			<point x="170" y="161" type="line"/>
			<point x="176" y="308" type="line"/>
			<point x="63" y="195" type="line"/>
		</contour>
	</outline>
</glyph>
<glyph name="sixinferior" format="2">
	<advance width="342"/>
	<unicode hex="2086"/>
	<outline>
		<contour>
			<point x="216" y="310" type="line"/>
			<point x="116" y="248"/>
			<point x="19" y="143"/>
			<point x="19" y="29" type="curve"/>
			<point x="19" y="-56"/>
			<point x="72" y="-110"/>
			<point x="160" y="-110" type="curve"/>
			<point x="248" y="-110"/>
			<point x="321" y="-58"/>
			<point x="321" y="22" type="curve"/>
			<point x="321" y="105"/>
			<point x="235" y="162"/>
			<point x="81" y="162" type="curve"/>
			<point x="81" y="73" type="line"/>
			<point x="174" y="73"/>
			<point x="205" y="63"/>
			<point x="205" y="32" type="curve"/>
			<point x="205" y="1"/>
			<point x="181" y="-15"/>
			<point x="166" y="-15" type="curve"/>
			<point x="151" y="-15"/>
			<point x="136" y="1"/>
			<point x="136" y="40" type="curve"/>
			<point x="136" y="99"/>
			<point x="189" y="169"/>
			<point x="278" y="224" type="curve"/>
		</contour>
	</outline>
</glyph>
<glyph name="seveninferior" format="2">
	<advance width="342"/>
	<unicode hex="2087"/>
	<outline>
		<contour>
			<point x="183" y="185" type="line"/>
			<point x="183" y="264" type="line"/>
			<point x="33" y="-65" type="line"/>
			<point x="178" y="-109" type="line"/>
			<point x="322" y="299" type="line"/>
			<point x="322" y="300" type="line"/>
			<point x="23" y="300" type="line"/>
			<point x="23" y="185" type="line"/>
		</contour>
	</outline>
</glyph>
<glyph name="eightinferior" format="2">
	<advance width="342"/>
	<unicode hex="2088"/>
	<outline>
		<contour>
			<point x="171" y="-110" type="curve"/>
			<point x="258" y="-110"/>
			<point x="321" y="-53"/>
			<point x="321" y="18" type="curve"/>
			<point x="321" y="70"/>
			<point x="262" y="120"/>
			<point x="171" y="120" type="curve"/>
			<point x="83" y="120"/>
			<point x="20" y="63"/>
			<point x="20" y="-7" type="curve"/>
			<point x="20" y="-59"/>
			<point x="80" y="-110"/>
		</contour>
		<contour>
			<point x="171" y="-15" type="curve"/>
			<point x="151" y="-15"/>
			<point x="138" y="2"/>
			<point x="138" y="19" type="curve"/>
			<point x="138" y="43"/>
			<point x="152" y="62"/>
			<point x="171" y="62" type="curve"/>
			<point x="190" y="62"/>
			<point x="203" y="45"/>
			<point x="203" y="28" type="curve"/>
			<point x="203" y="4"/>
			<point x="189" y="-15"/>
		</contour>
		<contour>
			<point x="171" y="91" type="curve"/>
			<point x="255" y="91"/>
			<point x="315" y="146"/>
			<point x="315" y="213" type="curve"/>
			<point x="315" y="262"/>
			<point x="258" y="310"/>
			<point x="171" y="310" type="curve"/>
			<point x="86" y="310"/>
			<point x="26" y="256"/>
			<point x="26" y="189" type="curve"/>
			<point x="26" y="140"/>
			<point x="83" y="91"/>
		</contour>
		<contour>
			<point x="170" y="151" type="curve"/>
			<point x="152" y="151"/>
			<point x="141" y="166"/>
			<point x="141" y="181" type="curve"/>
			<point x="141" y="203"/>
			<point x="153" y="220"/>
			<point x="170" y="220" type="curve"/>
			<point x="189" y="220"/>
			<point x="201" y="205"/>
			<point x="201" y="189" type="curve"/>
			<point x="201" y="168"/>
			<point x="188" y="151"/>
		</contour>
	</outline>
</glyph>
<glyph name="nineinferior" format="2">
	<advance width="342"/>
	<unicode hex="2089"/>
	<outline>
		<contour>
			<point x="126" y="-110" type="line"/>
			<point x="226" y="-48"/>
			<point x="323" y="57"/>
			<point x="323" y="171" type="curve"/>
			<point x="323" y="256"/>
			<point x="270" y="310"/>
			<point x="182" y="310" type="curve"/>
			<point x="94" y="310"/>
			<point x="21" y="258"/>
			<point x="21" y="178" type="curve"/>
			<point x="21" y="90"/>
			<point x="102" y="38"/>
			<point x="261" y="38" type="curve"/>
			<point x="261" y="127" type="line"/>
			<point x="163" y="127"/>
			<point x="137" y="132"/>
			<point x="137" y="168" type="curve"/>
			<point x="137" y="199"/>
			<point x="161" y="215"/>
			<point x="176" y="215" type="curve"/>
			<point x="191" y="215"/>
			<point x="206" y="199"/>
			<point x="206" y="160" type="curve"/>
			<point x="206" y="101"/>
			<point x="153" y="31"/>
			<point x="64" y="-24" type="curve"/>
		</contour>
	</outline>
</glyph>
<glyph name="partialdifferential" format="2">
	<advance width="650"/>
	<unicode hex="2202"/>
	<outline>
		<contour>
			<point x="325" y="-10" type="curve"/>
			<point x="518" y="-10"/>
			<point x="615" y="115"/>
			<point x="615" y="365" type="curve"/>
			<point x="615" y="612"/>
			<point x="522" y="740"/>
			<point x="305" y="740" type="curve"/>
			<point x="241" y="740"/>
			<point x="132" y="709"/>
			<point x="60" y="670" type="curve"/>
			<point x="110" y="520" type="line"/>
			<point x="186" y="557"/>
			<point x="248" y="575"/>
			<point x="295" y="575" type="curve"/>
			<point x="371" y="575"/>
			<point x="406" y="538"/>
			<point x="406" y="461" type="curve"/>
			<point x="404" y="459" type="line"/>
			<point x="363" y="480"/>
			<point x="320" y="490"/>
			<point x="275" y="490" type="curve"/>
			<point x="115" y="490"/>
			<point x="35" y="410"/>
			<point x="35" y="250" type="curve"/>
			<point x="35" y="88"/>
			<point x="160" y="-10"/>
		</contour>
		<contour>
			<point x="325" y="130" type="curve"/>
			<point x="264" y="130"/>
			<point x="225" y="171"/>
			<point x="225" y="250" type="curve"/>
			<point x="225" y="319"/>
			<point x="264" y="360"/>
			<point x="325" y="360" type="curve"/>
			<point x="386" y="360"/>
			<point x="425" y="319"/>
			<point x="425" y="250" type="curve"/>
			<point x="425" y="171"/>
			<point x="386" y="130"/>
		</contour>
	</outline>
</glyph>
<glyph name="increment" format="2">
	<advance width="897"/>
	<unicode hex="2206"/>
	<outline>
		<contour>
			<point x="152" y="0" type="line"/>
			<point x="746" y="0" type="line"/>
			<point x="666" y="150" type="line"/>
			<point x="232" y="150" type="line"/>
		</contour>
		<contour>
			<point x="448" y="714" type="line"/>
			<point x="35" y="0" type="line"/>
			<point x="252" y="0" type="line"/>
			<point x="453" y="407" type="line"/>
			<point x="445" y="407" type="line"/>
			<point x="644" y="0" type="line"/>
			<point x="862" y="0" type="line"/>
			<point x="450" y="714" type="line"/>
		</contour>
	</outline>
</glyph>
<glyph name="naryproduct" format="2">
	<advance width="931"/>
	<unicode hex="220F"/>
	<outline>
		<contour>
			<point x="351" y="550" type="line"/>
			<point x="580" y="550" type="line"/>
			<point x="580" y="-230" type="line"/>
			<point x="780" y="-230" type="line"/>
			<point x="780" y="550" type="line"/>
			<point x="896" y="550" type="line"/>
			<point x="896" y="700" type="line"/>
			<point x="35" y="700" type="line"/>
			<point x="35" y="550" type="line"/>
			<point x="151" y="550" type="line"/>
			<point x="151" y="-230" type="line"/>
			<point x="351" y="-230" type="line"/>
		</contour>
	</outline>
</glyph>
<glyph name="narysummation" format="2">
	<advance width="736"/>
	<unicode hex="2211"/>
	<outline>
		<contour>
			<point x="586" y="234" type="line"/>
			<point x="586" y="236" type="line"/>
			<point x="376" y="555" type="line"/>
			<point x="376" y="550" type="line"/>
			<point x="701" y="550" type="line"/>
			<point x="701" y="700" type="line"/>
			<point x="35" y="700" type="line"/>
			<point x="35" y="699" type="line"/>
			<point x="361" y="229" type="line"/>
			<point x="361" y="241" type="line"/>
			<point x="35" y="-229" type="line"/>
			<point x="35" y="-230" type="line"/>
			<point x="701" y="-230" type="line"/>
			<point x="701" y="-80" type="line"/>
			<point x="376" y="-80" type="line"/>
			<point x="376" y="-85" type="line"/>
		</contour>
	</outline>
</glyph>
<glyph name="squareroot" format="2">
	<advance width="900"/>
	<unicode hex="221A"/>
	<outline>
		<contour>
			<point x="428" y="-154" type="line"/>
			<point x="890" y="810" type="line"/>
			<point x="702" y="810" type="line"/>
			<point x="405" y="148" type="line"/>
			<point x="449" y="148" type="line"/>
			<point x="301" y="450" type="line"/>
			<point x="35" y="308" type="line"/>
			<point x="97" y="195" type="line"/>
			<point x="241" y="275" type="line"/>
			<point x="184" y="296" type="line"/>
			<point x="426" y="-154" type="line"/>
		</contour>
	</outline>
</glyph>
<glyph name="infinity" format="2">
	<advance width="1014"/>
	<unicode hex="221E"/>
	<outline>
		<contour>
			<point x="593" y="30" type="curve"/>
			<point x="712" y="30"/>
			<point x="808" y="119"/>
			<point x="808" y="260" type="curve"/>
			<point x="808" y="398"/>
			<point x="717" y="490"/>
			<point x="593" y="490" type="curve"/>
			<point x="528" y="490"/>
			<point x="473" y="457"/>
			<point x="429" y="390" type="curve"/>
			<point x="427" y="390" type="line"/>
			<point x="373" y="457"/>
			<point x="312" y="490"/>
			<point x="243" y="490" type="curve"/>
			<point x="124" y="490"/>
			<point x="28" y="401"/>
			<point x="28" y="260" type="curve"/>
			<point x="28" y="122"/>
			<point x="119" y="30"/>
			<point x="243" y="30" type="curve"/>
			<point x="308" y="30"/>
			<point x="363" y="63"/>
			<point x="407" y="130" type="curve"/>
			<point x="409" y="130" type="line"/>
			<point x="463" y="63"/>
			<point x="524" y="30"/>
		</contour>
		<contour>
			<point x="248" y="190" type="curve"/>
			<point x="202" y="190"/>
			<point x="173" y="217"/>
			<point x="173" y="260" type="curve"/>
			<point x="173" y="305"/>
			<point x="202" y="330"/>
			<point x="248" y="330" type="curve"/>
			<point x="282" y="330"/>
			<point x="320" y="301"/>
			<point x="343" y="250" type="curve"/>
			<point x="320" y="210"/>
			<point x="288" y="190"/>
		</contour>
		<contour>
			<point x="588" y="190" type="curve"/>
			<point x="554" y="190"/>
			<point x="516" y="219"/>
			<point x="493" y="270" type="curve"/>
			<point x="516" y="310"/>
			<point x="548" y="330"/>
			<point x="588" y="330" type="curve"/>
			<point x="634" y="330"/>
			<point x="663" y="303"/>
			<point x="663" y="260" type="curve"/>
			<point x="663" y="215"/>
			<point x="634" y="190"/>
		</contour>
	</outline>
</glyph>
<glyph name="integral" format="2">
	<advance width="650"/>
	<unicode hex="222B"/>
	<outline>
		<contour>
			<point x="170" y="-230" type="curve"/>
			<point x="319" y="-230"/>
			<point x="408" y="-150"/>
			<point x="415" y="-25" type="curve"/>
			<point x="445" y="510" type="line"/>
			<point x="447" y="550"/>
			<point x="465" y="570"/>
			<point x="500" y="570" type="curve"/>
			<point x="531" y="570"/>
			<point x="562" y="567"/>
			<point x="595" y="560" type="curve"/>
			<point x="615" y="725" type="line"/>
			<point x="571" y="735"/>
			<point x="526" y="740"/>
			<point x="480" y="740" type="curve"/>
			<point x="331" y="740"/>
			<point x="242" y="660"/>
			<point x="235" y="535" type="curve"/>
			<point x="205" y="0" type="line"/>
			<point x="203" y="-40"/>
			<point x="185" y="-60"/>
			<point x="150" y="-60" type="curve"/>
			<point x="119" y="-60"/>
			<point x="88" y="-57"/>
			<point x="55" y="-50" type="curve"/>
			<point x="35" y="-215" type="line"/>
			<point x="79" y="-225"/>
			<point x="124" y="-230"/>
		</contour>
	</outline>
</glyph>
<glyph name="almostequalto" format="2">
	<advance width="710"/>
	<unicode hex="2248"/>
	<outline>
		<contour>
			<point x="473" y="35" type="curve"/>
			<point x="557" y="35"/>
			<point x="624" y="81"/>
			<point x="675" y="174" type="curve"/>
			<point x="574" y="275" type="line"/>
			<point x="531" y="212"/>
			<point x="507" y="191"/>
			<point x="473" y="191" type="curve"/>
			<point x="450" y="191"/>
			<point x="424" y="205"/>
			<point x="395" y="233" type="curve"/>
			<point x="346" y="281"/>
			<point x="294" y="305"/>
			<point x="237" y="305" type="curve"/>
			<point x="153" y="305"/>
			<point x="86" y="259"/>
			<point x="35" y="166" type="curve"/>
			<point x="136" y="65" type="line"/>
			<point x="179" y="128"/>
			<point x="203" y="149"/>
			<point x="237" y="149" type="curve"/>
			<point x="260" y="149"/>
			<point x="286" y="135"/>
			<point x="315" y="107" type="curve"/>
			<point x="364" y="59"/>
			<point x="416" y="35"/>
		</contour>
		<contour>
			<point x="473" y="275" type="curve"/>
			<point x="557" y="275"/>
			<point x="624" y="321"/>
			<point x="675" y="414" type="curve"/>
			<point x="574" y="515" type="line"/>
			<point x="531" y="452"/>
			<point x="507" y="431"/>
			<point x="473" y="431" type="curve"/>
			<point x="450" y="431"/>
			<point x="424" y="445"/>
			<point x="395" y="473" type="curve"/>
			<point x="346" y="521"/>
			<point x="294" y="545"/>
			<point x="237" y="545" type="curve"/>
			<point x="153" y="545"/>
			<point x="86" y="499"/>
			<point x="35" y="406" type="curve"/>
			<point x="136" y="305" type="line"/>
			<point x="179" y="368"/>
			<point x="203" y="389"/>
			<point x="237" y="389" type="curve"/>
			<point x="260" y="389"/>
			<point x="286" y="375"/>
			<point x="315" y="347" type="curve"/>
			<point x="364" y="299"/>
			<point x="416" y="275"/>
		</contour>
	</outline>
</glyph>
<glyph name="fsmallcapital" format="2">
	<advance width="474"/>
	<unicode hex="A730"/>
	<outline>
		<contour>
			<point x="270" y="283" type="line"/>
			<point x="270" y="350" type="line"/>
			<point x="439" y="350" type="line"/>
			<point x="439" y="500" type="line"/>
			<point x="70" y="500" type="line"/>
			<point x="70" y="0" type="line"/>
			<point x="270" y="0" type="line"/>
			<point x="270" y="133" type="line"/>
			<point x="428" y="133" type="line"/>
			<point x="428" y="283" type="line"/>
		</contour>
	</outline>
</glyph>
<glyph name="uF000" format="2">
	<advance width="1300"/>
	<unicode hex="F000"/>
	<outline>
		<contour>
			<point x="1231" y="350" type="line"/>
			<point x="1179" y="474"/>
			<point x="1016" y="586"/>
			<point x="847" y="586" type="curve"/>
			<point x="704" y="586"/>
			<point x="599" y="531"/>
			<point x="550" y="480" type="curve"/>
			<point x="550" y="350" type="line"/>
			<point x="770" y="350" type="line"/>
			<point x="770" y="480" type="line"/>
			<point x="1000" y="350" type="line"/>
		</contour>
		<contour>
			<point x="650" y="593" type="curve"/>
			<point x="650" y="660" type="line"/>
			<point x="401" y="660" type="line"/>
			<point x="550" y="590" type="line"/>
			<point x="550" y="530" type="line"/>
			<point x="583" y="561"/>
			<point x="617" y="582"/>
		</contour>
		<contour>
			<point x="500" y="350" type="line"/>
			<point x="500" y="476" type="line"/>
			<point x="410" y="446" type="line"/>
			<point x="410" y="350" type="line"/>
		</contour>
		<contour>
			<point x="699" y="660" type="line"/>
			<point x="699" y="606" type="line"/>
			<point x="746" y="616"/>
			<point x="795" y="621"/>
			<point x="847" y="621" type="curve"/>
		</contour>
		<contour>
			<point x="847" y="114" type="curve"/>
			<point x="1013" y="114"/>
			<point x="1178" y="223"/>
			<point x="1231" y="350" type="curve"/>
			<point x="1000" y="350" type="line"/>
			<point x="770" y="220" type="line"/>
			<point x="770" y="350" type="line"/>
			<point x="550" y="350" type="line"/>
			<point x="550" y="220" type="line"/>
			<point x="599" y="169"/>
			<point x="704" y="114"/>
		</contour>
		<contour>
			<point x="650" y="107" type="line"/>
			<point x="617" y="118"/>
			<point x="583" y="139"/>
			<point x="550" y="170" type="curve"/>
			<point x="550" y="110" type="line"/>
			<point x="401" y="40" type="line"/>
			<point x="650" y="40" type="line"/>
		</contour>
		<contour>
			<point x="500" y="224" type="line"/>
			<point x="500" y="350" type="line"/>
			<point x="410" y="350" type="line"/>
			<point x="410" y="254" type="line"/>
		</contour>
		<contour>
			<point x="699" y="40" type="line"/>
			<point x="847" y="79" type="line"/>
			<point x="795" y="79"/>
			<point x="746" y="84"/>
			<point x="699" y="94" type="curve"/>
		</contour>
		<contour>
			<point x="371" y="350" type="line"/>
			<point x="371" y="378" type="line"/>
			<point x="365" y="384"/>
			<point x="353" y="387"/>
			<point x="340" y="387" type="curve"/>
			<point x="315" y="387"/>
			<point x="297" y="375"/>
			<point x="285" y="350" type="curve"/>
		</contour>
		<contour>
			<point x="191" y="350" type="line"/>
			<point x="214" y="393"/>
			<point x="268" y="445"/>
			<point x="320" y="445" type="curve"/>
			<point x="331" y="445"/>
			<point x="349" y="444"/>
			<point x="371" y="432" type="curve"/>
			<point x="371" y="446" type="line"/>
			<point x="352" y="456"/>
			<point x="328" y="461"/>
			<point x="299" y="461" type="curve"/>
			<point x="221" y="461"/>
			<point x="121" y="416"/>
			<point x="69" y="350" type="curve"/>
		</contour>
		<contour>
			<point x="371" y="350" type="line"/>
			<point x="285" y="350" type="line"/>
			<point x="297" y="325"/>
			<point x="315" y="313"/>
			<point x="340" y="313" type="curve"/>
			<point x="353" y="313"/>
			<point x="365" y="316"/>
			<point x="371" y="322" type="curve"/>
		</contour>
		<contour>
			<point x="191" y="350" type="curve"/>
			<point x="69" y="350" type="line"/>
			<point x="121" y="284"/>
			<point x="221" y="239"/>
			<point x="299" y="239" type="curve"/>
			<point x="328" y="239"/>
			<point x="352" y="244"/>
			<point x="371" y="254" type="curve"/>
			<point x="371" y="268" type="line"/>
			<point x="349" y="256"/>
			<point x="331" y="255"/>
			<point x="320" y="255" type="curve"/>
			<point x="268" y="255"/>
			<point x="214" y="307"/>
		</contour>
	</outline>
</glyph>
<glyph name="Longs" format="2">
	<advance width="420"/>
	<outline>
		<contour>
			<point x="341" y="710" type="line"/>
			<point x="202" y="682"/>
			<point x="70" y="609"/>
			<point x="70" y="437" type="curve"/>
			<point x="70" y="0" type="line"/>
			<point x="270" y="0" type="line"/>
			<point x="270" y="437" type="line"/>
			<point x="270" y="481"/>
			<point x="290" y="534"/>
			<point x="385" y="560" type="curve"/>
		</contour>
	</outline>
</glyph>
<glyph name="__AE" format="2">
	<advance width="1072"/>
	<outline>
		<contour>
			<point x="180" y="-14" type="line"/>
			<point x="684" y="632" type="line"/>
			<point x="571" y="700" type="line"/>
			<point x="35" y="94" type="line"/>
		</contour>
	</outline>
</glyph>
<glyph name="__AE_2" format="2">
	<advance width="1072"/>
	<outline>
		<contour>
			<point x="166" y="103" type="line"/>
			<point x="660" y="103" type="line"/>
			<point x="660" y="253" type="line"/>
			<point x="276" y="253" type="line"/>
		</contour>
	</outline>
</glyph>
<glyph name="__Be-cyrl" format="2">
	<advance width="653"/>
	<outline>
		<contour>
			<point x="70" y="700" type="line"/>
			<point x="70" y="0" type="line"/>
			<point x="270" y="10" type="line"/>
			<point x="270" y="700" type="line"/>
		</contour>
		<contour>
			<point x="70" y="-10" type="line"/>
			<point x="484" y="-10"/>
			<point x="618" y="102"/>
			<point x="618" y="224" type="curve"/>
			<point x="618" y="346"/>
			<point x="469" y="457"/>
			<point x="70" y="457" type="curve"/>
			<point x="70" y="307" type="line"/>
			<point x="400" y="307"/>
			<point x="418" y="258"/>
			<point x="418" y="224" type="curve"/>
			<point x="418" y="190"/>
			<point x="369" y="140"/>
			<point x="70" y="140" type="curve"/>
		</contour>
	</outline>
</glyph>
<glyph name="__Be-cyrl_2" format="2">
	<advance width="653"/>
	<outline>
		<contour>
			<point x="70" y="700" type="line"/>
			<point x="70" y="550" type="line"/>
			<point x="566" y="550" type="line"/>
			<point x="566" y="700" type="line"/>
		</contour>
	</outline>
</glyph>
<glyph name="__Dje-cyrl" format="2">
	<advance width="894"/>
	<outline>
		<contour>
			<point x="541" y="-10" type="line"/>
			<point x="735" y="-10"/>
			<point x="859" y="102"/>
			<point x="859" y="224" type="curve"/>
			<point x="859" y="346"/>
			<point x="710" y="457"/>
			<point x="381" y="457" type="curve"/>
			<point x="381" y="307" type="line"/>
			<point x="641" y="307"/>
			<point x="659" y="258"/>
			<point x="659" y="224" type="curve"/>
			<point x="659" y="190"/>
			<point x="620" y="140"/>
			<point x="541" y="140" type="curve"/>
		</contour>
	</outline>
</glyph>
<glyph name="__Dtopbar" format="2">
	<advance width="653"/>
	<outline>
		<contour>
			<point x="583" y="700" type="line"/>
			<point x="383" y="700" type="line"/>
			<point x="383" y="10" type="line"/>
			<point x="583" y="0" type="line"/>
		</contour>
		<contour>
			<point x="583" y="457" type="line"/>
			<point x="169" y="457"/>
			<point x="35" y="295"/>
			<point x="35" y="173" type="curve"/>
			<point x="35" y="51"/>
			<point x="184" y="-10"/>
			<point x="583" y="-10" type="curve"/>
			<point x="583" y="140" type="line"/>
			<point x="293" y="140"/>
			<point x="235" y="169"/>
			<point x="235" y="203" type="curve"/>
			<point x="235" y="237"/>
			<point x="264" y="307"/>
			<point x="583" y="307" type="curve"/>
		</contour>
	</outline>
</glyph>
<glyph name="__El-cyrl" format="2">
	<advance width="826"/>
	<outline>
		<contour>
			<point x="210" y="-14" type="line"/>
			<point x="538" y="568" type="line"/>
			<point x="445" y="700" type="line"/>
			<point x="35" y="94" type="line"/>
		</contour>
		<contour>
			<point x="756" y="700" type="line"/>
			<point x="445" y="700" type="line"/>
			<point x="445" y="550" type="line"/>
			<point x="756" y="550" type="line"/>
		</contour>
	</outline>
</glyph>
<glyph name="__Eth" format="2">
	<advance width="763"/>
	<outline>
		<contour>
			<point x="445" y="415" type="line"/>
			<point x="35" y="415" type="line"/>
			<point x="35" y="325" type="line"/>
			<point x="445" y="325" type="line"/>
		</contour>
	</outline>
</glyph>
<glyph name="__Hbar" format="2">
	<advance width="939"/>
	<outline>
		<contour>
			<point x="35" y="540" type="line"/>
			<point x="904" y="540" type="line"/>
			<point x="904" y="630" type="line"/>
			<point x="35" y="630" type="line"/>
		</contour>
	</outline>
</glyph>
<glyph name="__Nje-cyrl" format="2">
	<advance width="1069"/>
	<outline>
		<contour>
			<point x="270" y="296" type="line"/>
			<point x="531" y="296" type="line"/>
			<point x="531" y="446" type="line"/>
			<point x="270" y="446" type="line"/>
			<point x="270" y="700" type="line"/>
			<point x="70" y="700" type="line"/>
			<point x="70" y="0" type="line"/>
			<point x="270" y="0" type="line"/>
		</contour>
	</outline>
</glyph>
<glyph name="__Oslash" format="2">
	<advance width="770"/>
	<outline>
		<contour>
			<point x="125" y="-39" type="line"/>
			<point x="713" y="689" type="line"/>
			<point x="645" y="739" type="line"/>
			<point x="54" y="11" type="line"/>
		</contour>
	</outline>
</glyph>
<glyph name="__Theta-grek" format="2">
	<advance width="770"/>
	<outline>
		<contour>
			<point x="485" y="405" type="line"/>
			<point x="285" y="405" type="line"/>
			<point x="285" y="295" type="line"/>
			<point x="485" y="295" type="line"/>
		</contour>
	</outline>
</glyph>
<glyph name="__Tse-cyrl_2" format="2">
	<advance width="891"/>
	<outline>
		<contour>
			<point x="856" y="150" type="line"/>
			<point x="600" y="150" type="line"/>
			<point x="600" y="0" type="line"/>
			<point x="656" y="0" type="line"/>
			<point x="656" y="-150" type="line"/>
			<point x="856" y="-150" type="line"/>
		</contour>
	</outline>
</glyph>
<glyph name="__Tshe-cyrl" format="2">
	<advance width="921"/>
	<outline>
		<contour>
			<point x="851" y="197" type="line"/>
			<point x="851" y="358"/>
			<point x="739" y="460"/>
			<point x="583" y="460" type="curve"/>
			<point x="476" y="460"/>
			<point x="410" y="447"/>
			<point x="381" y="427" type="curve"/>
			<point x="381" y="284" type="line"/>
			<point x="409" y="301"/>
			<point x="473" y="310"/>
			<point x="523" y="310" type="curve"/>
			<point x="581" y="310"/>
			<point x="651" y="279"/>
			<point x="651" y="197" type="curve"/>
			<point x="651" y="0" type="line"/>
			<point x="851" y="0" type="line"/>
		</contour>
	</outline>
</glyph>
<glyph name="__cent" format="2">
	<advance width="498"/>
	<outline>
		<contour>
			<point x="330" y="394" type="line"/>
			<point x="330" y="600" type="line"/>
			<point x="210" y="600" type="line"/>
			<point x="210" y="394" type="line"/>
		</contour>
		<contour>
			<point x="210" y="106" type="line"/>
			<point x="210" y="-100" type="line"/>
			<point x="330" y="-100" type="line"/>
			<point x="330" y="106" type="line"/>
		</contour>
	</outline>
</glyph>
<glyph name="__copyright" format="2">
	<advance width="840"/>
	<outline>
		<contour>
			<point x="420" y="-25" type="curve"/>
			<point x="639" y="-25"/>
			<point x="805" y="137"/>
			<point x="805" y="350" type="curve"/>
			<point x="805" y="556"/>
			<point x="647" y="725"/>
			<point x="420" y="725" type="curve"/>
			<point x="202" y="725"/>
			<point x="35" y="564"/>
			<point x="35" y="350" type="curve"/>
			<point x="35" y="147"/>
			<point x="191" y="-25"/>
		</contour>
		<contour>
			<point x="420" y="60" type="curve"/>
			<point x="250" y="60"/>
			<point x="120" y="183"/>
			<point x="120" y="350" type="curve"/>
			<point x="120" y="516"/>
			<point x="249" y="640"/>
			<point x="420" y="640" type="curve"/>
			<point x="590" y="640"/>
			<point x="720" y="517"/>
			<point x="720" y="350" type="curve"/>
			<point x="720" y="184"/>
			<point x="591" y="60"/>
		</contour>
	</outline>
</glyph>
<glyph name="__copyright_2" format="2">
	<advance width="840"/>
	<outline>
		<contour>
			<point x="537" y="560" type="line"/>
			<point x="362" y="560"/>
			<point x="225" y="432"/>
			<point x="225" y="300" type="curve"/>
			<point x="225" y="209"/>
			<point x="294" y="160"/>
			<point x="434" y="160" type="curve"/>
			<point x="485" y="160"/>
			<point x="521" y="163"/>
			<point x="554" y="175" type="curve"/>
			<point x="547" y="290" type="line"/>
			<point x="515" y="279"/>
			<point x="503" y="275"/>
			<point x="458" y="275" type="curve"/>
			<point x="428" y="275"/>
			<point x="378" y="298"/>
			<point x="378" y="325" type="curve"/>
			<point x="378" y="391"/>
			<point x="470" y="445"/>
			<point x="537" y="445" type="curve"/>
		</contour>
	</outline>
</glyph>
<glyph name="__dcroat" format="2">
	<advance width="690"/>
	<outline>
		<contour>
			<point x="195" y="570" type="line"/>
			<point x="655" y="570" type="line"/>
			<point x="655" y="660" type="line"/>
			<point x="195" y="660" type="line"/>
		</contour>
	</outline>
</glyph>
<glyph name="__dollar" format="2">
	<advance width="447"/>
	<outline>
		<contour>
			<point x="260" y="594" type="line"/>
			<point x="260" y="800" type="line"/>
			<point x="140" y="800" type="line"/>
			<point x="140" y="594" type="line"/>
		</contour>
		<contour>
			<point x="190" y="106" type="line"/>
			<point x="190" y="-100" type="line"/>
			<point x="310" y="-100" type="line"/>
			<point x="310" y="106" type="line"/>
		</contour>
	</outline>
</glyph>
<glyph name="__el-cyrl" format="2">
	<advance width="683"/>
	<outline>
		<contour>
			<point x="210" y="-14" type="line"/>
			<point x="436" y="405" type="line"/>
			<point x="329" y="500" type="line"/>
			<point x="35" y="94" type="line"/>
		</contour>
		<contour>
			<point x="613" y="500" type="line"/>
			<point x="329" y="500" type="line"/>
			<point x="329" y="350" type="line"/>
			<point x="613" y="350" type="line"/>
		</contour>
	</outline>
</glyph>
<glyph name="__eng" format="2">
	<advance width="701"/>
	<outline>
		<contour>
			<point x="353" y="-239" type="line"/>
			<point x="469" y="-237"/>
			<point x="631" y="-137"/>
			<point x="631" y="0" type="curve"/>
			<point x="631" y="200" type="line"/>
			<point x="431" y="200" type="line"/>
			<point x="431" y="40" type="line"/>
			<point x="431" y="-49"/>
			<point x="382" y="-82"/>
			<point x="306" y="-89" type="curve"/>
		</contour>
	</outline>
</glyph>
<glyph name="__f" format="2">
	<advance width="470"/>
	<outline>
		<contour>
			<point x="431" y="500" type="line"/>
			<point x="35" y="500" type="line"/>
			<point x="35" y="350" type="line"/>
			<point x="431" y="350" type="line"/>
		</contour>
	</outline>
</glyph>
<glyph name="__lshash" format="2">
	<advance width="514"/>
	<outline>
		<contour>
			<point x="80" y="258" type="line"/>
			<point x="479" y="488" type="line"/>
			<point x="434" y="566" type="line"/>
			<point x="35" y="336" type="line"/>
		</contour>
	</outline>
</glyph>
<glyph name="__oslash" format="2">
	<advance width="634"/>
	<outline>
		<contour>
			<point x="140" y="-39" type="line"/>
			<point x="238" y="84" type="line"/>
			<point x="250" y="116" type="line"/>
			<point x="428" y="342" type="line"/>
			<point x="466" y="366" type="line"/>
			<point x="566" y="489" type="line"/>
			<point x="498" y="539" type="line"/>
			<point x="398" y="417" type="line"/>
			<point x="381" y="374" type="line"/>
			<point x="199" y="150" type="line"/>
			<point x="171" y="137" type="line"/>
			<point x="69" y="11" type="line"/>
		</contour>
	</outline>
</glyph>
<glyph name="__qsmallcapital" format="2">
	<advance width="634"/>
	<outline>
		<contour>
			<point x="374" y="46" type="line"/>
			<point x="327" y="0" type="line"/>
			<point x="547" y="-107" type="line"/>
			<point x="593" y="35" type="line"/>
		</contour>
	</outline>
</glyph>
<glyph name="__registered" format="2">
	<advance width="840"/>
	<outline>
		<contour>
			<point x="405" y="143" type="line"/>
			<point x="405" y="532" type="line"/>
			<point x="250" y="532" type="line"/>
			<point x="250" y="143" type="line"/>
		</contour>
		<contour>
			<point x="457" y="265" type="line"/>
			<point x="529" y="281"/>
			<point x="622" y="344"/>
			<point x="622" y="432" type="curve"/>
			<point x="622" y="508"/>
			<point x="492" y="540"/>
			<point x="250" y="540" type="curve"/>
			<point x="250" y="423" type="line"/>
			<point x="442" y="423"/>
			<point x="467" y="412"/>
			<point x="467" y="384" type="curve"/>
			<point x="467" y="358"/>
			<point x="455" y="329"/>
			<point x="392" y="309" type="curve"/>
			<point x="526" y="140" type="line"/>
			<point x="662" y="221" type="line"/>
			<point x="511" y="347" type="line"/>
		</contour>
	</outline>
</glyph>
<glyph name="__signhard-cyrl" format="2">
	<advance width="693"/>
	<outline>
		<contour>
			<point x="365" y="500" type="line"/>
			<point x="35" y="500" type="line"/>
			<point x="35" y="350" type="line"/>
			<point x="365" y="350" type="line"/>
		</contour>
	</outline>
</glyph>
<glyph name="__sterling" format="2">
	<advance width="506"/>
	<outline>
		<contour>
			<point x="471" y="150" type="line"/>
			<point x="35" y="150" type="line"/>
			<point x="35" y="0" type="line"/>
			<point x="471" y="0" type="line"/>
		</contour>
		<contour>
			<point x="82" y="10" type="line"/>
			<point x="198" y="12"/>
			<point x="330" y="122"/>
			<point x="330" y="259" type="curve"/>
			<point x="330" y="400" type="line"/>
			<point x="130" y="400" type="line"/>
			<point x="130" y="279" type="line"/>
			<point x="130" y="190"/>
			<point x="111" y="157"/>
			<point x="35" y="150" type="curve"/>
		</contour>
		<contour>
			<point x="421" y="740" type="line"/>
			<point x="262" y="712"/>
			<point x="130" y="639"/>
			<point x="130" y="467" type="curve"/>
			<point x="130" y="400" type="line"/>
			<point x="330" y="400" type="line"/>
			<point x="330" y="467" type="line"/>
			<point x="330" y="511"/>
			<point x="320" y="554"/>
			<point x="445" y="580" type="curve"/>
		</contour>
	</outline>
</glyph>
<glyph name="__sterling_2" format="2">
	<advance width="506"/>
	<outline>
		<contour>
			<point x="431" y="430" type="line"/>
			<point x="65" y="430" type="line"/>
			<point x="65" y="310" type="line"/>
			<point x="431" y="310" type="line"/>
		</contour>
	</outline>
</glyph>
<glyph name="__tbar" format="2">
	<advance width="466"/>
	<outline>
		<contour>
			<point x="431" y="290" type="line"/>
			<point x="35" y="290" type="line"/>
			<point x="35" y="200" type="line"/>
			<point x="431" y="200" type="line"/>
		</contour>
	</outline>
</glyph>
<glyph name="__tse-cyrl" format="2">
	<advance width="773"/>
	<outline>
		<contour>
			<point x="582" y="0" type="line"/>
			<point x="582" y="500" type="line"/>
			<point x="382" y="500" type="line"/>
			<point x="382" y="150" type="line"/>
			<point x="270" y="150" type="line"/>
			<point x="270" y="500" type="line"/>
			<point x="70" y="500" type="line"/>
			<point x="70" y="0" type="line"/>
		</contour>
	</outline>
</glyph>
<glyph name=".notdef" format="2">
	<advance width="552"/>
	<outline>
		<contour>
			<point x="318" y="168" type="line"/>
			<point x="304" y="201"/>
			<point x="303" y="211"/>
			<point x="303" y="221" type="curve"/>
			<point x="303" y="230"/>
			<point x="304" y="232"/>
			<point x="305" y="236" type="curve"/>
			<point x="311" y="250"/>
			<point x="319" y="262"/>
			<point x="335" y="280" type="curve"/>
			<point x="392" y="342" type="line"/>
			<point x="412" y="364"/>
			<point x="432" y="389"/>
			<point x="447" y="414" type="curve"/>
			<point x="463" y="438"/>
			<point x="477" y="464"/>
			<point x="483" y="485" type="curve"/>
			<point x="492" y="507"/>
			<point x="495" y="536"/>
			<point x="495" y="563" type="curve"/>
			<point x="495" y="620"/>
			<point x="475" y="673"/>
			<point x="439" y="707" type="curve"/>
			<point x="404" y="741"/>
			<point x="346" y="760"/>
			<point x="282" y="760" type="curve"/>
			<point x="220" y="760"/>
			<point x="151" y="732"/>
			<point x="58" y="658" type="curve"/>
			<point x="138" y="559" type="line"/>
			<point x="213" y="622"/>
			<point x="244" y="636"/>
			<point x="276" y="636" type="curve"/>
			<point x="308" y="636"/>
			<point x="325" y="630"/>
			<point x="342" y="616" type="curve"/>
			<point x="358" y="601"/>
			<point x="363" y="589"/>
			<point x="363" y="560" type="curve"/>
			<point x="363" y="541"/>
			<point x="363" y="529"/>
			<point x="360" y="519" type="curve"/>
			<point x="358" y="509"/>
			<point x="353" y="497"/>
			<point x="341" y="476" type="curve"/>
			<point x="331" y="457"/>
			<point x="318" y="440"/>
			<point x="297" y="421" type="curve"/>
			<point x="274" y="398"/>
			<point x="252" y="375"/>
			<point x="232" y="353" type="curve"/>
			<point x="211" y="328"/>
			<point x="193" y="302"/>
			<point x="183" y="278" type="curve"/>
			<point x="177" y="263"/>
			<point x="174" y="242"/>
			<point x="174" y="223" type="curve"/>
			<point x="174" y="207"/>
			<point x="176" y="189"/>
			<point x="185" y="168" type="curve"/>
		</contour>
		<contour>
			<point x="243" y="-53" type="curve"/>
			<point x="283" y="-53"/>
			<point x="328" y="-12"/>
			<point x="328" y="33" type="curve"/>
			<point x="328" y="73"/>
			<point x="286" y="118"/>
			<point x="243" y="118" type="curve"/>
			<point x="203" y="118"/>
			<point x="157" y="76"/>
			<point x="157" y="33" type="curve"/>
			<point x="157" y="-12"/>
			<point x="204" y="-53"/>
		</contour>
	</outline>
</glyph>
<glyph name="acutecombsmall" format="2">
	<advance width="0"/>
	<outline>
		<contour>
			<point x="36" y="585" type="line"/>
			<point x="90" y="540" type="line"/>
			<point x="238" y="672" type="line"/>
			<point x="139" y="756" type="line"/>
		</contour>
	</outline>
</glyph>
<glyph name="gravecombsmall" format="2">
	<advance width="0"/>
	<outline>
		<contour>
			<point x="237" y="585" type="line"/>
			<point x="134" y="756" type="line"/>
			<point x="35" y="672" type="line"/>
			<point x="183" y="540" type="line"/>
		</contour>
	</outline>
</glyph>
<glyph name="hookcombsmall" format="2">
	<advance width="0"/>
	<outline>
		<contour>
			<point x="122" y="682" type="line"/>
			<point x="196" y="682" type="line"/>
			<point x="196" y="714" type="line"/>
			<point x="150" y="691" type="line"/>
			<point x="217" y="691"/>
			<point x="263" y="715"/>
			<point x="263" y="772" type="curve"/>
			<point x="263" y="849"/>
			<point x="145" y="876"/>
			<point x="58" y="882" type="curve"/>
			<point x="55" y="809" type="line"/>
			<point x="127" y="804"/>
			<point x="144" y="788"/>
			<point x="144" y="768" type="curve"/>
			<point x="144" y="752"/>
			<point x="132" y="735"/>
			<point x="122" y="735" type="curve"/>
		</contour>
	</outline>
</glyph>
<glyph name="middotcomb" format="2">
	<advance width="0"/>
	<outline>
		<contour>
			<point x="120" y="165" type="curve"/>
			<point x="170" y="165"/>
			<point x="205" y="207"/>
			<point x="205" y="259" type="curve"/>
			<point x="205" y="298"/>
			<point x="171" y="335"/>
			<point x="120" y="335" type="curve"/>
			<point x="70" y="335"/>
			<point x="35" y="293"/>
			<point x="35" y="241" type="curve"/>
			<point x="35" y="202"/>
			<point x="69" y="165"/>
		</contour>
	</outline>
</glyph>
<glyph name="one.osf" format="2">
	<advance width="550"/>
	<outline>
		<contour>
			<point x="467" y="0" type="line"/>
			<point x="467" y="520" type="line"/>
			<point x="466" y="520" type="line"/>
			<point x="38" y="376" type="line"/>
			<point x="86" y="226" type="line"/>
			<point x="440" y="357" type="line"/>
			<point x="267" y="357" type="line"/>
			<point x="267" y="0" type="line"/>
		</contour>
	</outline>
</glyph>
<glyph name="primecomb" format="2">
	<advance width="0"/>
	<outline>
		<contour>
			<point x="0" y="465" type="line"/>
			<point x="65" y="441" type="line"/>
			<point x="180" y="666" type="line"/>
			<point x="57" y="710" type="line"/>
		</contour>
	</outline>
</glyph>
<glyph name="two.osf" format="2">
	<advance width="600"/>
	<outline>
		<contour>
			<point x="254" y="0" type="line"/>
			<point x="407" y="101"/>
			<point x="523" y="215"/>
			<point x="523" y="338" type="curve"/>
			<point x="523" y="462"/>
			<point x="284" y="510"/>
			<point x="75" y="510" type="curve"/>
			<point x="75" y="360" type="line"/>
			<point x="265" y="360"/>
			<point x="323" y="326"/>
			<point x="323" y="280" type="curve"/>
			<point x="323" y="223"/>
			<point x="218" y="124"/>
			<point x="35" y="1" type="curve"/>
			<point x="35" y="0" type="line"/>
			<point x="553" y="0" type="line"/>
			<point x="553" y="150" type="line"/>
			<point x="285" y="150" type="line"/>
		</contour>
	</outline>
</glyph>
<glyph name="zero.osf" format="2">
	<advance width="600"/>
	<outline>
		<contour>
			<point x="300" y="-10" type="curve"/>
			<point x="451" y="-10"/>
			<point x="558" y="119"/>
			<point x="558" y="279" type="curve"/>
			<point x="558" y="396"/>
			<point x="456" y="510"/>
			<point x="300" y="510" type="curve"/>
			<point x="149" y="510"/>
			<point x="43" y="381"/>
			<point x="43" y="221" type="curve"/>
			<point x="43" y="104"/>
			<point x="144" y="-10"/>
		</contour>
		<contour>
			<point x="300" y="140" type="curve"/>
			<point x="261" y="140"/>
			<point x="235" y="188"/>
			<point x="235" y="238" type="curve"/>
			<point x="235" y="306"/>
			<point x="262" y="360"/>
			<point x="300" y="360" type="curve"/>
			<point x="339" y="360"/>
			<point x="365" y="312"/>
			<point x="365" y="262" type="curve"/>
			<point x="365" y="194"/>
			<point x="338" y="140"/>
		</contour>
	</outline>
</glyph>
